<svg xmlns="http://www.w3.org/2000/svg" width="37" height="36" viewBox="0 0 37 36" fill="none">
  <path d="M8 10.5H9.5C10.2956 10.5 11.0587 10.1839 11.6213 9.62132C12.1839 9.05871 12.5 8.29565 12.5 7.5C12.5 7.10218 12.658 6.72064 12.9393 6.43934C13.2206 6.15804 13.6022 6 14 6H23C23.3978 6 23.7794 6.15804 24.0607 6.43934C24.342 6.72064 24.5 7.10218 24.5 7.5C24.5 8.29565 24.8161 9.05871 25.3787 9.62132C25.9413 10.1839 26.7044 10.5 27.5 10.5H29C29.7956 10.5 30.5587 10.8161 31.1213 11.3787C31.6839 11.9413 32 12.7044 32 13.5V27C32 27.7956 31.6839 28.5587 31.1213 29.1213C30.5587 29.6839 29.7956 30 29 30H8C7.20435 30 6.44129 29.6839 5.87868 29.1213C5.31607 28.5587 5 27.7956 5 27V13.5C5 12.7044 5.31607 11.9413 5.87868 11.3787C6.44129 10.8161 7.20435 10.5 8 10.5Z" stroke="#777777" stroke-width="2" stroke-linecap="round" stroke-linejoin="round"/>
  <path d="M14 19.5C14 20.6935 14.4741 21.8381 15.318 22.682C16.1619 23.5259 17.3065 24 18.5 24C19.6935 24 20.8381 23.5259 21.682 22.682C22.5259 21.8381 23 20.6935 23 19.5C23 18.3065 22.5259 17.1619 21.682 16.318C20.8381 15.4741 19.6935 15 18.5 15C17.3065 15 16.1619 15.4741 15.318 16.318C14.4741 17.1619 14 18.3065 14 19.5Z" stroke="#777777" stroke-width="2" stroke-linecap="round" stroke-linejoin="round"/>
</svg>