<svg xmlns="http://www.w3.org/2000/svg" width="24" height="25" viewBox="0 0 24 25" fill="none">
    <path d="M17.2905 12.4686C17.2905 13.2073 16.6984 13.8062 15.9679 13.8062C15.2374 13.8062 14.6453 13.2073 14.6453 12.4686C14.6453 11.73 15.2374 11.1311 15.9679 11.1311C16.6984 11.1311 17.2905 11.73 17.2905 12.4686Z" fill="black"/>
    <path fill-rule="evenodd" clip-rule="evenodd" d="M18.1316 7.90799C17.2832 7.78732 16.1897 7.78733 14.8267 7.78735H9.17326C7.81031 7.78733 6.7168 7.78732 5.86839 7.90799C4.99062 8.03283 4.25955 8.30072 3.71603 8.92851C3.17252 9.55629 3.00655 10.3245 3.00019 11.2209C2.99404 12.0872 3.13858 13.1834 3.31873 14.5496L3.68419 17.3214C3.825 18.3894 3.93897 19.2539 4.11616 19.9309C4.3006 20.6355 4.57289 21.2197 5.08383 21.672C5.59477 22.1244 6.20337 22.3201 6.91841 22.4119C7.60534 22.5 8.46777 22.5 9.53332 22.5H14.4667C15.5322 22.5 16.3947 22.5 17.0816 22.4119C17.7966 22.3201 18.4052 22.1244 18.9162 21.672C19.4271 21.2197 19.6994 20.6355 19.8838 19.9309C20.061 19.2539 20.175 18.3894 20.3158 17.3213L20.6813 14.5496C20.8614 13.1834 21.006 12.0872 20.9998 11.2209C20.9934 10.3245 20.8275 9.55629 20.284 8.92851C19.7404 8.30072 19.0094 8.03283 18.1316 7.90799ZM6.05259 9.23246C5.32568 9.33585 4.95802 9.52442 4.71116 9.80956C4.4643 10.0947 4.32805 10.4882 4.32278 11.2305C4.31738 11.9918 4.44802 12.9944 4.63662 14.4249L4.68663 14.8042L5.05822 14.532C6.0171 13.8297 7.43388 13.8642 8.34576 14.6275L11.7301 17.4603C12.0499 17.728 12.6011 17.7781 12.9989 17.5441L13.2341 17.4057C14.3594 16.7437 15.8676 16.8135 16.9059 17.5958L18.7378 18.9758C18.8281 18.4802 18.909 17.8709 19.0107 17.0999L19.3634 14.4249C19.552 12.9945 19.6826 11.9918 19.6772 11.2305C19.6719 10.4882 19.5357 10.0947 19.2888 9.80956C19.042 9.52442 18.6743 9.33585 17.9474 9.23246C17.2019 9.12643 16.2018 9.12487 14.7748 9.12487H9.22521C7.79821 9.12487 6.7981 9.12643 6.05259 9.23246Z" fill="black"/>
    <g opacity="0.7">
      <path d="M6.87908 5C5.62752 5 4.60128 5.83974 4.25881 6.95377C4.25167 6.977 4.24482 7.00034 4.23828 7.0238C4.59662 6.90323 4.96954 6.82446 5.34706 6.77068C6.3194 6.63218 7.54821 6.63225 8.97563 6.63234L9.08223 6.63234L15.1785 6.63234C16.606 6.63225 17.8348 6.63218 18.8071 6.77068C19.1846 6.82446 19.5575 6.90323 19.9159 7.0238C19.9093 7.00034 19.9025 6.977 19.8953 6.95377C19.5529 5.83974 18.5266 5 17.2751 5H6.87908Z" fill="#333333"/>
    </g>
    <g opacity="0.4">
      <path d="M8.86046 2.50001H15.1425C15.3518 2.49995 15.5122 2.49991 15.6524 2.51515C16.6495 2.62351 17.4655 3.28957 17.8116 4.18676H6.19141C6.53747 3.28957 7.35355 2.62351 8.35058 2.51515C8.49081 2.49991 8.65123 2.49995 8.86046 2.50001Z" fill="#333333"/>
    </g>
  </svg>