<svg xmlns="http://www.w3.org/2000/svg" width="24" height="25" viewBox="0 0 24 25" fill="none">
    <path d="M12.531 2.219C12.4613 2.14915 12.3786 2.09374 12.2875 2.05593C12.1963 2.01812 12.0987 1.99866 12 1.99866C11.9014 1.99866 11.8037 2.01812 11.7126 2.05593C11.6214 2.09374 11.5387 2.14915 11.469 2.219L2.469 11.219C2.3994 11.2888 2.34423 11.3716 2.30665 11.4627C2.26908 11.5538 2.24983 11.6514 2.25 11.75V22.25C2.25 22.4489 2.32902 22.6397 2.46967 22.7803C2.61032 22.921 2.80109 23 3 23H9.75C9.94891 23 10.1397 22.921 10.2803 22.7803C10.421 22.6397 10.5 22.4489 10.5 22.25V16.25H13.5V22.25C13.5 22.4489 13.579 22.6397 13.7197 22.7803C13.8603 22.921 14.0511 23 14.25 23H21C21.1989 23 21.3897 22.921 21.5303 22.7803C21.671 22.6397 21.75 22.4489 21.75 22.25V11.75C21.7502 11.6514 21.7309 11.5538 21.6933 11.4627C21.6558 11.3716 21.6006 11.2888 21.531 11.219L19.5 9.1895V4.25C19.5 4.05109 19.421 3.86032 19.2803 3.71967C19.1397 3.57902 18.9489 3.5 18.75 3.5H17.25C17.0511 3.5 16.8603 3.57902 16.7197 3.71967C16.579 3.86032 16.5 4.05109 16.5 4.25V6.1895L12.531 2.219ZM3.75 21.5V12.0605L12 3.8105L20.25 12.0605V21.5H15V15.5C15 15.3011 14.921 15.1103 14.7803 14.9697C14.6397 14.829 14.4489 14.75 14.25 14.75H9.75C9.55109 14.75 9.36032 14.829 9.21967 14.9697C9.07902 15.1103 9 15.3011 9 15.5V21.5H3.75Z" fill="#333333"/>
  </svg>