<svg xmlns="http://www.w3.org/2000/svg" width="24" height="24" viewBox="0 0 24 24" fill="none">
    <path d="M13.2734 7.0875L9.89839 4.5C9.59839 4.275 9.1859 4.275 8.8859 4.5L5.51089 7.0875C5.13589 7.3875 5.06089 7.9125 5.36089 8.2875C5.66089 8.6625 6.18589 8.7375 6.56089 8.4375L6.71089 8.325V10.125C6.71089 10.575 7.0859 10.9875 7.5734 10.9875H11.3234C11.7734 10.9875 12.1859 10.6125 12.1859 10.125V8.325L12.3359 8.4375C12.4859 8.55 12.6734 8.625 12.8609 8.625C13.1234 8.625 13.3484 8.5125 13.5359 8.2875C13.7234 7.875 13.6484 7.35 13.2734 7.0875ZM10.4234 9.2625H8.36089V7.0125L9.3734 6.225L10.3859 7.0125V9.2625H10.4234Z" fill="#333333"/>
    <path d="M6.8625 15.6375H10.2C10.65 15.6375 11.0625 15.2625 11.0625 14.775C11.0625 14.2875 10.6875 13.9125 10.2 13.9125H6.8625C6.4125 13.9125 6 14.2875 6 14.775C6 15.2625 6.375 15.6375 6.8625 15.6375Z" fill="#333333"/>
    <path d="M11.8875 17.3625H6.8625C6.4125 17.3625 6 17.7375 6 18.225C6 18.7125 6.375 19.0875 6.8625 19.0875H11.925C12.375 19.0875 12.7875 18.7125 12.7875 18.225C12.7875 17.7375 12.375 17.3625 11.8875 17.3625Z" fill="#333333"/>
    <path d="M20.9234 12.525H18.2234V3.1875C18.2234 1.8 17.0984 0.637501 15.6734 0.637501H3.63594C2.24844 0.637501 1.08594 1.7625 1.08594 3.1875V20.775C1.08594 22.1625 2.21094 23.325 3.63594 23.325H20.5109C21.8234 23.325 22.9109 22.2375 22.9109 20.925V14.475C22.9109 13.3875 22.0109 12.525 20.9234 12.525ZM2.77344 20.8125V3.1875C2.77344 2.7 3.14844 2.325 3.63594 2.325H15.6734C16.1609 2.325 16.5359 2.7 16.5359 3.1875V20.925C16.5359 21.1875 16.5734 21.4125 16.6484 21.6375H3.63594C3.18594 21.675 2.77344 21.2625 2.77344 20.8125ZM21.2234 20.9625C21.2234 21.3375 20.9234 21.675 20.5109 21.675H18.9359C18.5609 21.675 18.2234 21.375 18.2234 20.9625V14.2125H20.9234C21.0734 14.2125 21.2234 14.325 21.2234 14.5125V20.9625Z" fill="#333333"/>
  </svg>