<svg xmlns="http://www.w3.org/2000/svg" width="24" height="25" viewBox="0 0 24 25" fill="none">
    <path d="M21 8V6.5C21 5.96957 20.7893 5.46086 20.4142 5.08579C20.0391 4.71071 19.5304 4.5 19 4.5H5C4.46957 4.5 3.96086 4.71071 3.58579 5.08579C3.21071 5.46086 3 5.96957 3 6.5V20.5C3 21.0304 3.21071 21.5391 3.58579 21.9142C3.96086 22.2893 4.46957 22.5 5 22.5H8.5" stroke="#333333" stroke-width="2" stroke-linecap="round" stroke-linejoin="round"/>
    <path d="M16 2.5V6.5" stroke="#333333" stroke-width="2" stroke-linecap="round" stroke-linejoin="round"/>
    <path d="M8 2.5V6.5" stroke="#333333" stroke-width="2" stroke-linecap="round" stroke-linejoin="round"/>
    <path d="M3 10.5H8" stroke="#333333" stroke-width="2" stroke-linecap="round" stroke-linejoin="round"/>
    <path d="M17.5 18L16 16.75V14.5" stroke="#333333" stroke-width="2" stroke-linecap="round" stroke-linejoin="round"/>
    <path d="M22 16.5C22 18.0913 21.3679 19.6174 20.2426 20.7426C19.1174 21.8679 17.5913 22.5 16 22.5C14.4087 22.5 12.8826 21.8679 11.7574 20.7426C10.6321 19.6174 10 18.0913 10 16.5C10 14.9087 10.6321 13.3826 11.7574 12.2574C12.8826 11.1321 14.4087 10.5 16 10.5C17.5913 10.5 19.1174 11.1321 20.2426 12.2574C21.3679 13.3826 22 14.9087 22 16.5Z" stroke="#333333" stroke-width="2" stroke-linecap="round" stroke-linejoin="round"/>
  </svg>