<svg xmlns="http://www.w3.org/2000/svg" width="32" height="32" viewBox="0 0 32 32" fill="none">
    <path fill-rule="evenodd" clip-rule="evenodd" d="M6.71616 6.71757C7.70816 5.72557 9.59152 5.34578 12.2698 6.13352C12.4586 6.18905 12.6495 6.24999 12.8422 6.31629C11.6279 7.1782 10.438 8.18116 9.30889 9.31029C8.87229 9.74689 8.45525 10.1918 8.05844 10.643C7.51133 11.2651 7.5721 12.2129 8.19417 12.76C8.81624 13.3071 9.76404 13.2463 10.3111 12.6243C10.6656 12.2213 11.0388 11.8231 11.4302 11.4316C12.9124 9.94939 14.4818 8.73835 16.0264 7.81847C17.571 8.73835 19.1404 9.94939 20.6226 11.4316C22.3046 13.1136 23.6373 14.9078 24.5917 16.6506C24.621 16.7154 24.6549 16.7781 24.6932 16.8384C25.2328 17.8505 25.6439 18.8433 25.9207 19.7844C26.7084 22.4627 26.3286 24.346 25.3366 25.338C24.3446 26.33 22.4613 26.7098 19.783 25.9221C19.5942 25.8666 19.4033 25.8056 19.2106 25.7393C20.4249 24.8774 21.6148 23.8745 22.7439 22.7453C23.1616 22.3277 23.5613 21.9024 23.9426 21.4713C24.4914 20.8508 24.4333 19.9028 23.8128 19.354C23.1922 18.8051 22.2442 18.8632 21.6954 19.4838C21.3548 19.8689 20.997 20.2495 20.6226 20.624C19.1404 22.1062 17.571 23.3173 16.0264 24.2371C14.4818 23.3173 12.9124 22.1062 11.4302 20.624C8.70886 17.9026 6.90162 14.8875 6.13212 12.2712C5.34438 9.59293 5.72416 7.70956 6.71616 6.71757ZM13.1163 3.25542C14.0699 3.53587 15.046 3.92169 16.0264 4.40533C17.0068 3.92169 17.983 3.53588 18.9365 3.25542C22.0591 2.33701 25.3258 2.46405 27.458 4.59625C28.9171 6.05539 29.4376 8.07153 29.3277 10.159C29.2298 12.0189 28.6334 14.0318 27.6488 16.0278C28.1325 17.0082 28.5183 17.9843 28.7988 18.9379C29.7172 22.0605 29.5902 25.3272 27.458 27.4594C25.3258 29.5916 22.0591 29.7186 18.9365 28.8002C17.983 28.5197 17.0068 28.1339 16.0264 27.6503C15.046 28.1339 14.0699 28.5197 13.1163 28.8002C9.99371 29.7186 6.72704 29.5916 4.59484 27.4594C3.13671 26.0012 2.61592 23.9868 2.72488 21.9009C2.82211 20.0398 3.4187 18.0253 4.40396 16.0279C3.9203 15.0474 3.53448 14.0713 3.25402 13.1177C2.33561 9.99511 2.46265 6.72844 4.59484 4.59624C6.72704 2.46405 9.99371 2.33701 13.1163 3.25542ZM22.7439 9.31029C21.6148 8.18116 20.4249 7.1782 19.2106 6.31629C19.4033 6.24999 19.5942 6.18905 19.783 6.13352C22.4613 5.34579 24.3446 5.72557 25.3366 6.71757C26.0208 7.40176 26.4118 8.48246 26.3318 10.0013C26.2866 10.8601 26.0901 11.8198 25.7379 12.8437C24.876 11.6293 23.8731 10.4394 22.7439 9.31029ZM9.30889 22.7453C10.438 23.8745 11.6279 24.8774 12.8422 25.7393C12.6495 25.8056 12.4586 25.8666 12.2698 25.9221C9.59152 26.7098 7.70816 26.33 6.71616 25.338C6.03242 24.6543 5.64154 23.5746 5.7208 22.0574C5.7657 21.1979 5.96225 20.2371 6.31488 19.2119C7.17679 20.4263 8.17975 21.6162 9.30889 22.7453ZM18.998 16C18.998 17.6569 17.6549 19 15.998 19C14.3412 19 12.998 17.6569 12.998 16C12.998 14.3431 14.3412 13 15.998 13C17.6549 13 18.998 14.3431 18.998 16Z" fill="#060606"/>
  </svg>