<svg width="41" height="40" viewBox="0 0 41 40" fill="none" xmlns="http://www.w3.org/2000/svg">
<g id="connect" clip-path="url(#clip0_75_292)">
<path id="Vector" d="M10.1585 26.0232C11.2864 26.9996 12.118 28.3182 12.2362 29.8329C12.3237 31.5863 12.0296 33.1258 10.8412 34.4903C9.76274 35.64 8.35437 36.4389 6.74756 36.5002C4.9812 36.5312 3.46841 36.017 2.16748 34.7943C1.00809 33.6233 0.475459 32.2184 0.460938 30.5859C0.476045 28.8876 1.06238 27.5252 2.24255 26.297C4.42683 24.1986 7.81996 24.1573 10.1585 26.0232Z" fill="#3498DB"/>
<path id="Vector_2" d="M38.4386 26.0233C39.5665 26.9996 40.3981 28.3182 40.5163 29.8329C40.6038 31.5863 40.3097 33.1259 39.1213 34.4904C38.0261 35.6578 36.6382 36.4297 35.0142 36.5018C33.2607 36.5501 31.7337 36.0032 30.4476 34.7943C29.4018 33.7381 28.7817 32.3733 28.6992 30.8823C28.7183 29.0959 29.2759 27.5961 30.5229 26.2964C32.709 24.2001 36.099 24.1564 38.4386 26.0233Z" fill="#3498DB"/>
<path id="Vector_3" d="M24.2944 1.33027C25.4186 2.28958 26.2568 3.6527 26.3752 5.14607C26.4625 6.89911 26.168 8.43876 24.9799 9.80286C23.8847 10.9703 22.4967 11.7422 20.8728 11.8143C19.1275 11.8624 17.595 11.3197 16.3116 10.1178C15.0818 8.84024 14.5863 7.38517 14.6019 5.64118C14.6496 3.96087 15.3625 2.58818 16.5674 1.43067C18.7948 -0.499309 22.003 -0.460785 24.2944 1.33027Z" fill="#3498DB"/>
<path id="Vector_4" d="M13.5461 35.9375C13.9698 36.0719 14.3814 36.2227 14.7911 36.3949C18.4451 37.9234 22.6138 37.8613 26.2775 36.394C26.5708 36.2727 26.8595 36.1423 27.1451 36.0037C27.2961 35.9375 27.2961 35.9375 27.4524 35.9375C27.5994 36.222 27.7455 36.507 27.8906 36.7925C27.9401 36.8895 27.9899 36.9865 28.04 37.0832C28.1119 37.2223 28.1827 37.3619 28.2535 37.5015C28.2964 37.5854 28.3394 37.6693 28.3836 37.7557C28.468 37.9688 28.468 37.9688 28.3899 38.2031C28.2527 38.2868 28.2527 38.2868 28.0728 38.3633C28.0063 38.3919 27.9398 38.4205 27.8712 38.4499C27.7991 38.4797 27.7269 38.5094 27.6526 38.54C27.5782 38.5711 27.5039 38.6021 27.4273 38.6341C22.8484 40.5193 17.8699 40.4223 13.3098 38.5284C13.254 38.5049 13.1983 38.4813 13.1408 38.457C13.0879 38.435 13.0349 38.413 12.9803 38.3904C12.8348 38.3264 12.8348 38.3264 12.6086 38.2031C12.5305 37.9688 12.5305 37.9688 12.6149 37.7557C12.6578 37.6718 12.7008 37.5879 12.745 37.5015C12.8141 37.3652 12.8141 37.3652 12.8846 37.2261C12.9342 37.1302 12.9838 37.0343 13.0334 36.9385C13.0828 36.8417 13.1321 36.7449 13.1813 36.6481C13.3022 36.4109 13.4238 36.174 13.5461 35.9375Z" fill="#3498DB"/>
<path id="Vector_5" d="M30.0312 7.65625C30.3537 7.70265 30.5851 7.88435 30.8418 8.07129C30.8898 8.10606 30.9378 8.14084 30.9872 8.17667C32.2989 9.14133 33.4962 10.2744 34.4642 11.5857C34.5602 11.7157 34.658 11.8442 34.756 11.9727C36.6563 14.5041 38.2453 18.1751 38.0781 21.4062C37.9098 21.5746 37.5406 21.5175 37.3066 21.5283C37.2434 21.5317 37.1802 21.5351 37.115 21.5385C36.6285 21.5627 36.1432 21.5662 35.6562 21.5625C35.6516 21.5183 35.647 21.4741 35.6422 21.4285C35.1928 17.2967 33.474 13.3728 30.1875 10.7031C29.9323 10.5094 29.674 10.3202 29.4132 10.1341C29.3651 10.0997 29.317 10.0653 29.2674 10.0299C29.2245 9.99961 29.1816 9.96931 29.1374 9.93809C29.0076 9.83751 28.895 9.72769 28.7812 9.60938C29.6223 8.25465 29.6223 8.25465 30.0312 7.65625Z" fill="#3498DB"/>
<path id="Vector_6" d="M10.9688 7.65625C11.1017 7.81748 11.1017 7.81748 11.2453 8.04108C11.297 8.12109 11.3488 8.2011 11.4021 8.28354C11.4557 8.36818 11.5093 8.45283 11.5645 8.54004C11.6187 8.62378 11.6729 8.70752 11.7287 8.79379C12.1285 9.41649 12.1285 9.41649 12.2188 9.6875C12.1489 9.73574 12.079 9.78398 12.007 9.83368C11.4826 10.1995 10.9858 10.573 10.5174 11.0101C10.3609 11.156 10.2002 11.2935 10.0362 11.4307C8.94676 12.3866 8.09319 13.5934 7.37504 14.8438C7.34707 14.8922 7.3191 14.9407 7.29028 14.9906C6.12374 17.0333 5.58825 19.2362 5.34379 21.5625C4.80701 21.5665 4.27327 21.5589 3.73734 21.5283C3.67546 21.5252 3.61357 21.5222 3.54981 21.519C3.09729 21.4939 3.09729 21.4939 2.92191 21.4062C2.8242 17.8095 4.55427 14.0889 6.75004 11.3281C6.78505 11.284 6.82006 11.2398 6.85613 11.1943C7.70299 10.1363 8.65762 9.18347 9.7469 8.37631C9.87422 8.28186 10.0003 8.18588 10.1262 8.0896C10.7027 7.65625 10.7027 7.65625 10.9688 7.65625Z" fill="#3498DB"/>
</g>
<defs>
<clipPath id="clip0_75_292">
<rect width="40" height="40" fill="white" transform="translate(0.5)"/>
</clipPath>
</defs>
</svg>
