<svg width="41" height="40" viewBox="0 0 41 40" fill="none" xmlns="http://www.w3.org/2000/svg">
<g id="iconamoon:search">
<path id="Vector" d="M35.5003 35L28.262 27.7616M28.262 27.7616C29.5002 26.5235 30.4823 25.0536 31.1524 23.4359C31.8225 21.8182 32.1674 20.0843 32.1674 18.3333C32.1674 16.5823 31.8225 14.8484 31.1524 13.2307C30.4823 11.613 29.5002 10.1431 28.262 8.90498C27.0239 7.66683 25.554 6.68468 23.9363 6.0146C22.3185 5.34452 20.5847 4.99963 18.8337 4.99963C17.0827 4.99963 15.3488 5.34452 13.7311 6.0146C12.1134 6.68468 10.6435 7.66683 9.40534 8.90498C6.90479 11.4055 5.5 14.797 5.5 18.3333C5.5 21.8696 6.90479 25.2611 9.40534 27.7616C11.9059 30.2622 15.2974 31.667 18.8337 31.667C22.37 31.667 25.7615 30.2622 28.262 27.7616Z" stroke="#3498DB" stroke-width="3" stroke-linecap="round" stroke-linejoin="round"/>
</g>
</svg>
