<svg width="41" height="42" viewBox="0 0 41 42" fill="none" xmlns="http://www.w3.org/2000/svg">
<g id="dashboard">
<path id="Vector" d="M3.36568 22.022C3.41985 22.0218 3.47401 22.0216 3.52981 22.0213C3.71132 22.0206 3.89282 22.0204 4.07433 22.0202C4.20449 22.0198 4.33464 22.0193 4.4648 22.0189C4.89234 22.0176 5.31988 22.0169 5.74743 22.0163C5.8948 22.016 6.04217 22.0158 6.18953 22.0155C6.88213 22.0143 7.57473 22.0134 8.26732 22.0129C9.06575 22.0122 9.86416 22.0106 10.6626 22.008C11.2803 22.0061 11.8981 22.0052 12.5158 22.005C12.8845 22.0048 13.2531 22.0042 13.6217 22.0026C13.9689 22.0012 14.3161 22.0009 14.6633 22.0016C14.7902 22.0016 14.9171 22.0012 15.044 22.0003C15.9912 21.9942 16.7879 22.0747 17.5396 22.5984C18.1549 23.1037 18.4823 23.6797 18.491 24.3979C18.4905 24.4547 18.4901 24.5115 18.4896 24.5699C18.4902 24.6627 18.4902 24.6627 18.4908 24.7572C18.4919 24.963 18.4914 25.1688 18.4908 25.3746C18.4913 25.5227 18.4918 25.6708 18.4924 25.8189C18.4938 26.2202 18.4937 26.6216 18.4933 27.0229C18.493 27.4008 18.4936 27.7787 18.4941 28.1565C18.4952 28.9507 18.4948 29.7449 18.4939 30.5391C18.4931 31.2645 18.4941 31.9899 18.4959 32.7154C18.4978 33.4615 18.4985 34.2077 18.498 34.9538C18.4978 35.3722 18.498 35.7906 18.4993 36.209C18.5005 36.6025 18.5001 36.996 18.4987 37.3896C18.4984 37.5337 18.4987 37.6778 18.4995 37.8219C18.5046 38.8263 18.4619 39.628 17.5709 40.3785C17.0126 40.8021 16.4554 40.9758 15.7052 40.9779C15.6505 40.9781 15.5957 40.9784 15.5392 40.9786C15.3556 40.9793 15.172 40.9796 14.9884 40.9798C14.8567 40.9802 14.7251 40.9806 14.5934 40.9811C14.1609 40.9824 13.7284 40.9831 13.2959 40.9837C13.1469 40.9839 12.9978 40.9842 12.8487 40.9845C12.1482 40.9857 11.4476 40.9866 10.747 40.9871C9.93934 40.9877 9.13169 40.9894 8.32403 40.992C7.69916 40.9939 7.07429 40.9948 6.44941 40.995C6.07651 40.9952 5.70362 40.9957 5.33072 40.9973C4.97953 40.9988 4.62837 40.9991 4.27717 40.9984C4.14878 40.9984 4.02039 40.9988 3.892 40.9996C2.98712 41.0055 2.17307 40.9445 1.44386 40.4508C0.834042 39.9507 0.517953 39.3709 0.509487 38.6617C0.509946 38.6044 0.510404 38.5472 0.510876 38.4881C0.51026 38.3946 0.51026 38.3946 0.509632 38.2991C0.508546 38.0914 0.509084 37.8837 0.509628 37.676C0.509193 37.5266 0.508661 37.3772 0.508042 37.2277C0.506675 36.8227 0.506763 36.4177 0.507199 36.0127C0.507375 35.7596 0.507206 35.5064 0.506857 35.2532C0.5068 35.2111 0.506743 35.169 0.506684 35.1256C0.506567 35.0401 0.50645 34.9545 0.506332 34.869C0.505287 34.0678 0.5057 33.2666 0.506575 32.4654C0.507332 31.7334 0.506346 31.0014 0.504522 30.2693C0.50266 29.5165 0.501929 28.7637 0.502436 28.011C0.502702 27.5888 0.502509 27.1666 0.501197 26.7444C0.500017 26.3474 0.50032 25.9504 0.501754 25.5534C0.502035 25.4079 0.501799 25.2624 0.501 25.117C0.499991 24.9179 0.500875 24.7189 0.502219 24.5199C0.501121 24.4342 0.501121 24.4342 0.5 24.3467C0.509526 23.6583 0.859546 23.1105 1.42689 22.6212C1.98354 22.1931 2.61918 22.0241 3.36568 22.022Z" fill="#3498DB"/>
<path id="Vector_2" d="M24.963 0.988545C25.0192 0.988257 25.0753 0.98797 25.1331 0.987674C25.3213 0.986814 25.5094 0.986512 25.6975 0.986214C25.8324 0.985725 25.9673 0.985205 26.1022 0.984658C26.5453 0.983016 26.9884 0.982205 27.4315 0.981427C27.5842 0.98111 27.7369 0.980789 27.8897 0.980462C28.6074 0.978973 29.3252 0.977862 30.043 0.977211C30.8705 0.976448 31.6979 0.974393 32.5254 0.971234C33.1656 0.968874 33.8058 0.967721 34.446 0.967462C34.8281 0.967279 35.2101 0.966584 35.5922 0.964614C35.952 0.962788 36.3118 0.962467 36.6716 0.963267C36.8031 0.963306 36.9347 0.962816 37.0662 0.961739C37.9933 0.954578 38.8273 1.02974 39.5744 1.63878C40.1992 2.25564 40.5231 2.97078 40.5317 3.84558C40.5313 3.91625 40.5308 3.98693 40.5303 4.05975C40.531 4.17516 40.531 4.17516 40.5316 4.29289C40.5327 4.54909 40.5322 4.80526 40.5316 5.06146C40.532 5.24579 40.5326 5.43012 40.5332 5.61445C40.5346 6.11403 40.5345 6.6136 40.5341 7.11318C40.5339 7.42548 40.5341 7.73777 40.5344 8.05007C40.5345 8.10201 40.5346 8.15394 40.5346 8.20745C40.5347 8.31297 40.5349 8.41849 40.535 8.52401C40.536 9.51229 40.5356 10.5006 40.5347 11.4888C40.534 12.3918 40.535 13.2948 40.5368 14.1978C40.5387 15.1263 40.5395 16.0549 40.539 16.9835C40.5387 17.5043 40.5389 18.025 40.5402 18.5458C40.5414 19.0355 40.5411 19.5252 40.5397 20.015C40.5394 20.1944 40.5396 20.3738 40.5404 20.5533C40.5415 20.7988 40.5406 21.0443 40.5392 21.2898C40.5403 21.3955 40.5403 21.3955 40.5415 21.5034C40.5317 22.3526 40.1731 23.0283 39.5918 23.6319C39.0224 24.1591 38.3717 24.3686 37.6079 24.3704C37.5527 24.3706 37.4974 24.3709 37.4405 24.3711C37.2555 24.3718 37.0704 24.3719 36.8853 24.372C36.7526 24.3724 36.6199 24.3728 36.4872 24.3732C36.1266 24.3742 35.766 24.3747 35.4054 24.3751C35.1799 24.3753 34.9544 24.3756 34.729 24.376C34.0231 24.377 33.3172 24.3778 32.6113 24.3781C31.7974 24.3784 30.9834 24.3798 30.1695 24.3821C29.5398 24.3838 28.9102 24.3845 28.2805 24.3846C27.9047 24.3847 27.5289 24.3852 27.1531 24.3866C26.7992 24.3879 26.4454 24.388 26.0916 24.3874C25.9621 24.3873 25.8327 24.3876 25.7033 24.3884C24.6486 24.3944 23.8248 24.2906 23 23.5782C22.0451 22.6105 22.0953 21.4915 22.1002 20.2177C22.0998 20.035 22.0992 19.8523 22.0986 19.6697C22.0971 19.1752 22.0977 18.6809 22.0987 18.1864C22.0994 17.7207 22.0988 17.255 22.0984 16.7893C22.0975 15.8107 22.0985 14.8321 22.1002 13.8535C22.1016 13.0153 22.1014 12.1771 22.0999 11.3389C22.0982 10.3636 22.0976 9.38834 22.0985 8.41305C22.099 7.89748 22.0991 7.38191 22.0981 6.86634C22.0972 6.38155 22.0978 5.89678 22.0996 5.41199C22.1 5.23446 22.0999 5.05694 22.0992 4.87941C22.0948 3.64153 22.1395 2.65284 23.0516 1.72789C23.6237 1.20536 24.1945 0.991096 24.963 0.988545Z" fill="#3498DB"/>
<path id="Vector_3" d="M25.8063 27.6091C25.9397 27.6087 26.0731 27.6081 26.2065 27.6075C26.5673 27.6061 26.928 27.6062 27.2888 27.6066C27.5907 27.6069 27.8926 27.6064 28.1945 27.6059C28.907 27.6048 29.6196 27.6049 30.3322 27.6058C31.0657 27.6067 31.7992 27.6056 32.5327 27.6035C33.164 27.6018 33.7952 27.6013 34.4265 27.6017C34.8029 27.602 35.1792 27.6018 35.5556 27.6005C35.9097 27.5993 36.2638 27.5996 36.6179 27.601C36.7473 27.6013 36.8767 27.6011 37.0061 27.6003C38.1002 27.5939 38.9695 27.7595 39.7728 28.5516C40.2234 29.0449 40.5087 29.5992 40.5122 30.2733C40.513 30.3835 40.513 30.3835 40.5139 30.4959C40.5141 30.576 40.5143 30.656 40.5145 30.7385C40.515 30.8233 40.5155 30.9081 40.5161 30.9954C40.5176 31.2762 40.5185 31.557 40.5193 31.8378C40.5196 31.9338 40.5199 32.0298 40.5203 32.1288C40.5217 32.5849 40.5229 33.0411 40.5235 33.4972C40.5242 33.9698 40.5257 34.4424 40.5286 34.915C40.5316 35.4229 40.533 35.9308 40.5334 36.4388C40.5338 36.6319 40.5347 36.8251 40.5361 37.0182C40.538 37.2893 40.5379 37.5603 40.5374 37.8314C40.5389 37.9499 40.5389 37.9499 40.5404 38.0707C40.5346 38.8768 40.2946 39.6362 39.7194 40.2188C38.8375 40.9655 38.0029 41.0349 36.8983 41.0316C36.7632 41.0321 36.6281 41.0326 36.493 41.0332C36.1278 41.0346 35.7625 41.0346 35.3972 41.0341C35.0916 41.0339 34.786 41.0343 34.4805 41.0348C33.7593 41.0359 33.0381 41.0358 32.3169 41.0349C31.5742 41.034 30.8316 41.0351 30.0889 41.0372C29.45 41.0389 28.811 41.0395 28.1721 41.039C27.791 41.0387 27.41 41.0389 27.029 41.0403C26.6706 41.0415 26.3122 41.0412 25.9538 41.0397C25.8227 41.0394 25.6916 41.0396 25.5606 41.0405C24.4722 41.0468 23.6727 40.8659 22.8689 40.0919C22.4101 39.5964 22.1334 38.9727 22.1298 38.2953C22.1293 38.2231 22.1287 38.151 22.1281 38.0766C22.1279 37.998 22.1277 37.9194 22.1275 37.8384C22.127 37.7552 22.1265 37.6719 22.1259 37.5862C22.1244 37.3104 22.1235 37.0347 22.1227 36.759C22.1224 36.6647 22.1221 36.5704 22.1217 36.4732C22.1201 35.9738 22.119 35.4744 22.1183 34.9749C22.1174 34.4602 22.1147 33.9455 22.1116 33.4308C22.1096 33.0341 22.1089 32.6374 22.1086 32.2407C22.1082 32.051 22.1073 31.8614 22.1059 31.6717C22.104 31.4055 22.1041 31.1393 22.1046 30.8731C22.1036 30.7956 22.1026 30.7181 22.1016 30.6382C22.1079 29.7768 22.3917 29.0379 23.0007 28.4219C23.8751 27.6778 24.7088 27.6058 25.8063 27.6091Z" fill="#3498DB"/>
<path id="Vector_4" d="M4.05549 1.01257C4.18735 1.01197 4.3192 1.01124 4.45106 1.01039C4.80765 1.00852 5.16423 1.00864 5.52082 1.00923C5.81913 1.00956 6.11743 1.00892 6.41574 1.00829C7.11976 1.00682 7.82377 1.00698 8.52778 1.00817C9.25278 1.00937 9.97775 1.0079 10.7027 1.0051C11.3265 1.00278 11.9502 1.00209 12.574 1.0027C12.946 1.00305 13.3179 1.0028 13.6899 1.001C14.0398 0.999376 14.3896 0.9998 14.7395 1.00176C14.8674 1.00215 14.9954 1.00183 15.1233 1.00073C16.1858 0.992307 16.9662 1.23445 17.751 2.27107C18.1988 2.93452 18.4689 3.76978 18.4724 4.67695C18.4732 4.82189 18.4732 4.82189 18.4741 4.96975C18.4743 5.07503 18.4745 5.18031 18.4747 5.28878C18.4752 5.40026 18.4757 5.51174 18.4762 5.6266C18.4777 5.99581 18.4786 6.36503 18.4794 6.73425C18.4797 6.86055 18.48 6.98685 18.4803 7.11698C18.4819 7.78581 18.483 8.45463 18.4837 9.12346C18.4846 9.81273 18.4872 10.502 18.4902 11.1912C18.4922 11.7225 18.4928 12.2537 18.4931 12.785C18.4935 13.039 18.4944 13.293 18.4958 13.5469C18.4977 13.9035 18.4976 14.2599 18.497 14.6165C18.4985 14.7722 18.4985 14.7722 18.5 14.931C18.4938 16.0853 18.2164 17.073 17.6223 17.8989C16.7643 18.9157 15.8926 18.992 14.8055 18.9874C14.676 18.988 14.5466 18.9888 14.4171 18.9896C14.0672 18.9915 13.7174 18.9914 13.3676 18.9908C13.0748 18.9904 12.782 18.9911 12.4892 18.9917C11.7981 18.9932 11.107 18.993 10.4159 18.9918C9.70453 18.9906 8.9932 18.9921 8.28185 18.9949C7.6695 18.9972 7.05716 18.9979 6.4448 18.9973C6.07978 18.9969 5.71477 18.9972 5.34974 18.999C5.00638 19.0006 4.66304 19.0002 4.31967 18.9982C4.19421 18.9979 4.06875 18.9982 3.9433 18.9993C2.87792 19.0079 2.03132 18.7831 1.24932 17.7253C0.808163 17.0627 0.531 16.32 0.527579 15.4151C0.527033 15.3156 0.526488 15.2162 0.525925 15.1138C0.525618 14.9512 0.525618 14.9512 0.525304 14.7854C0.524803 14.6707 0.524302 14.556 0.523785 14.4378C0.522281 14.0579 0.521391 13.678 0.52063 13.298C0.52032 13.1681 0.520009 13.0382 0.519688 12.9044C0.518262 12.2876 0.517151 11.6708 0.516515 11.054C0.515771 10.3441 0.513766 9.63426 0.510681 8.92441C0.508094 8.30793 0.507199 7.69145 0.50689 7.07496C0.506519 6.8136 0.505634 6.55224 0.504218 6.29088C0.502355 5.92431 0.502432 5.55782 0.502961 5.19123C0.501984 5.08412 0.501007 4.97702 0.5 4.86667C0.505549 3.80637 0.758592 2.86969 1.30146 2.10106C2.16143 1.10021 2.97774 1.00815 4.05549 1.01257Z" fill="#3498DB"/>
</g>
</svg>
