<svg width="41" height="40" viewBox="0 0 41 40" fill="none" xmlns="http://www.w3.org/2000/svg">
<g id="fluent:chat-add-16-filled">
<path id="Vector" d="M20.4986 5C22.7995 5.00077 25.0693 5.53083 27.1325 6.54917C29.1958 7.56751 30.9971 9.04683 32.3971 10.8727C33.7971 12.6986 34.7584 14.822 35.2064 17.0788C35.6545 19.3356 35.5774 21.6653 34.9811 23.8875C34.3848 26.1097 33.2853 28.165 31.7676 29.8943C30.2499 31.6236 28.3548 32.9806 26.2287 33.8603C24.1027 34.74 21.8028 35.1189 19.5069 34.9675C17.2111 34.8162 14.9808 34.1387 12.9886 32.9875L7.14364 34.9375C6.9277 35.0096 6.69617 35.0214 6.47403 34.9715C6.25189 34.9216 6.04759 34.8121 5.88317 34.6546C5.71876 34.4971 5.60047 34.2977 5.54107 34.078C5.48168 33.8582 5.48343 33.6264 5.54614 33.4075L7.32614 27.18C6.08057 24.8953 5.45078 22.3259 5.49863 19.7242C5.54648 17.1224 6.27033 14.5779 7.59907 12.3406C8.92781 10.1032 10.8157 8.25003 13.0773 6.96305C15.339 5.67606 17.8965 4.99956 20.4986 5ZM21.7486 13.75C21.7486 13.4185 21.6169 13.1005 21.3825 12.8661C21.1481 12.6317 20.8302 12.5 20.4986 12.5C20.1671 12.5 19.8492 12.6317 19.6148 12.8661C19.3803 13.1005 19.2486 13.4185 19.2486 13.75V18.75H14.2486C13.9171 18.75 13.5992 18.8817 13.3648 19.1161C13.1303 19.3505 12.9986 19.6685 12.9986 20C12.9986 20.3315 13.1303 20.6495 13.3648 20.8839C13.5992 21.1183 13.9171 21.25 14.2486 21.25H19.2486V26.25C19.2486 26.5815 19.3803 26.8995 19.6148 27.1339C19.8492 27.3683 20.1671 27.5 20.4986 27.5C20.8302 27.5 21.1481 27.3683 21.3825 27.1339C21.6169 26.8995 21.7486 26.5815 21.7486 26.25V21.25H26.7486C27.0802 21.25 27.3981 21.1183 27.6325 20.8839C27.8669 20.6495 27.9986 20.3315 27.9986 20C27.9986 19.6685 27.8669 19.3505 27.6325 19.1161C27.3981 18.8817 27.0802 18.75 26.7486 18.75H21.7486V13.75Z" fill="#3498DB"/>
</g>
</svg>
