<svg width="64" height="68" viewBox="0 0 64 68" fill="none" xmlns="http://www.w3.org/2000/svg">
<g id="files 1">
<path id="Vector" d="M12.2424 1.94901C12.3787 1.94807 12.5151 1.94714 12.6555 1.94617C13.1117 1.94351 13.5679 1.94352 14.0241 1.94354C14.3514 1.94221 14.6787 1.94073 15.006 1.93911C15.8947 1.9351 16.7834 1.93387 17.672 1.93316C18.2272 1.93269 18.7824 1.93159 19.3375 1.93034C20.8756 1.92698 22.4136 1.92416 23.9516 1.92386C24.0991 1.92383 24.0991 1.92383 24.2496 1.9238C24.4489 1.92376 24.6482 1.92373 24.8475 1.92369C24.9959 1.92367 24.9959 1.92367 25.1473 1.92364C25.2463 1.92362 25.3454 1.9236 25.4475 1.92359C27.0533 1.92319 28.659 1.91862 30.2648 1.91218C31.9147 1.90563 33.5645 1.90235 35.2144 1.90242C36.1403 1.90238 37.0661 1.90098 37.992 1.89602C38.8626 1.89137 39.733 1.89125 40.6036 1.89416C40.9231 1.89452 41.2426 1.89339 41.562 1.89064C41.9983 1.88713 42.4342 1.88901 42.8705 1.89225C42.9968 1.88996 43.1232 1.88766 43.2533 1.8853C44.0642 1.89889 44.4723 2.07905 45.0468 2.65399C45.1144 2.72692 45.1821 2.79985 45.2519 2.87499C45.3897 3.00508 45.3897 3.00508 45.5304 3.13779C45.6029 3.21024 45.6754 3.28269 45.7501 3.35733C45.8778 3.48454 45.8778 3.48454 46.0081 3.61431C46.0976 3.70408 46.1872 3.79385 46.2794 3.88635C46.3767 3.98341 46.474 4.08047 46.5742 4.18047C46.8925 4.49826 47.2104 4.81649 47.5282 5.13476C47.7504 5.35683 47.9726 5.57888 48.1948 5.80092C48.6587 6.2647 49.1225 6.7287 49.586 7.19287C50.1216 7.72913 50.6576 8.26494 51.1939 8.80051C51.7113 9.31728 52.2284 9.8344 52.7453 10.3517C52.9648 10.5712 53.1844 10.7907 53.404 11.0101C53.7101 11.3159 54.0158 11.6221 54.3214 11.9283C54.4124 12.0191 54.5035 12.1099 54.5973 12.2034C54.6803 12.2868 54.7633 12.3702 54.8489 12.4561C54.9572 12.5645 54.9572 12.5645 55.0677 12.6751C55.5061 13.151 55.5334 13.4488 55.5344 14.0794C55.5349 14.1645 55.5353 14.2496 55.5358 14.3373C55.5371 14.6246 55.5366 14.9118 55.5361 15.1991C55.5367 15.4063 55.5374 15.6135 55.5381 15.8208C55.5399 16.3919 55.5401 16.9629 55.5401 17.534C55.5403 18.1494 55.5419 18.7647 55.5433 19.38C55.5462 20.7263 55.5472 22.0727 55.5478 23.419C55.5482 24.2595 55.549 25.1001 55.5499 25.9406C55.5524 28.2671 55.5544 30.5937 55.5548 32.9203C55.5548 33.0693 55.5548 33.2182 55.5549 33.3717C55.5549 33.6738 55.5549 33.9758 55.555 34.2778C55.555 34.4277 55.555 34.5777 55.5551 34.7321C55.5551 34.9573 55.5551 34.9573 55.5551 35.187C55.5556 37.6188 55.559 40.0505 55.5636 42.4823C55.5684 44.9782 55.5708 47.4742 55.5708 49.9701C55.5709 51.3718 55.572 52.7734 55.5756 54.175C55.5787 55.3688 55.5796 56.5625 55.5777 57.7562C55.5768 58.3653 55.5769 58.9742 55.5797 59.5832C55.5823 60.1411 55.582 60.699 55.5794 61.2569C55.5789 61.4583 55.5796 61.6598 55.5813 61.8613C55.5916 63.0934 55.5325 64.1659 54.6574 65.1123C53.6892 66.0324 52.7058 66.0546 51.4261 66.0493C51.2519 66.0499 51.0778 66.0507 50.9037 66.0516C50.4263 66.0536 49.949 66.0534 49.4717 66.0527C48.9564 66.0523 48.4412 66.0542 47.9259 66.0557C46.9169 66.0583 45.9078 66.0589 44.8988 66.0587C44.0785 66.0585 43.2582 66.059 42.4378 66.0599C42.2015 66.0602 41.9651 66.0604 41.7287 66.0607C41.6111 66.0608 41.4934 66.061 41.3722 66.0611C39.1475 66.0635 36.9227 66.0633 34.698 66.0625C32.6635 66.0618 30.6291 66.0644 28.5947 66.0685C26.505 66.0727 24.4153 66.0746 22.3255 66.0741C21.1526 66.0738 19.9797 66.0744 18.8068 66.0775C17.8082 66.0802 16.8096 66.0806 15.811 66.0783C15.3017 66.0771 14.7925 66.077 14.2832 66.0795C13.8165 66.0819 13.3498 66.0813 12.883 66.0785C12.6353 66.0777 12.3876 66.08 12.14 66.0824C11.0731 66.0719 10.194 65.8967 9.38834 65.1556C8.67963 64.405 8.44511 63.6118 8.45398 62.5955C8.45336 62.4948 8.45274 62.3941 8.4521 62.2904C8.45049 61.9532 8.45153 61.616 8.45257 61.2788C8.45196 61.0346 8.45119 60.7903 8.45026 60.546C8.44821 59.8749 8.4485 59.2037 8.44919 58.5326C8.44952 57.8087 8.4477 57.0849 8.44617 56.361C8.44354 54.9429 8.44297 53.5248 8.4432 52.1067C8.44336 50.9541 8.44289 49.8015 8.44196 48.6489C8.44169 48.317 8.44143 47.9852 8.44117 47.6533C8.4411 47.5708 8.44104 47.4883 8.44097 47.4033C8.43915 45.0829 8.43811 42.7625 8.43869 40.4422C8.43871 40.3547 8.43873 40.2672 8.43875 40.1771C8.43887 39.7338 8.43898 39.2905 8.4391 38.8471C8.43914 38.7151 8.43914 38.7151 8.43918 38.5803C8.43923 38.4023 8.43927 38.2242 8.43932 38.0462C8.44007 35.276 8.43814 32.5058 8.43412 29.7356C8.42961 26.6228 8.4272 23.51 8.42782 20.3972C8.4281 18.7492 8.42744 17.1013 8.42433 15.4533C8.4217 14.0503 8.42125 12.6473 8.42362 11.2442C8.42476 10.5284 8.4249 9.81257 8.42232 9.09672C8.41999 8.44123 8.42054 7.78581 8.42339 7.13032C8.42391 6.89336 8.42339 6.6564 8.42169 6.41945C8.40491 3.90154 8.40491 3.90154 9.34629 2.88898C10.2113 2.06149 11.0917 1.94451 12.2424 1.94901ZM10.7519 4.87499C10.6904 5.22866 10.6676 5.50696 10.6732 5.85986C10.6723 5.95875 10.6714 6.05763 10.6705 6.15951C10.6682 6.49218 10.6704 6.82467 10.6725 7.15734C10.6718 7.39771 10.6708 7.63807 10.6696 7.87843C10.6669 8.53998 10.6682 9.20146 10.6702 9.863C10.6716 10.576 10.6694 11.2891 10.6677 12.0021C10.6649 13.3993 10.6655 14.7965 10.6673 16.1938C10.6687 17.329 10.6689 18.4643 10.6682 19.5996C10.6681 19.761 10.668 19.9224 10.6679 20.0886C10.6677 20.4165 10.6675 20.7444 10.6673 21.0722C10.6656 24.0608 10.6674 27.0494 10.6707 30.038C10.6736 32.767 10.6734 35.496 10.6704 38.2251C10.667 41.2902 10.6657 44.3553 10.6676 47.4204C10.6678 47.7471 10.668 48.0738 10.6682 48.4004C10.6683 48.5612 10.6684 48.7219 10.6685 48.8875C10.6691 50.0218 10.6682 51.1561 10.6667 52.2904C10.6649 53.6721 10.6654 55.0539 10.6687 56.4356C10.6704 57.141 10.671 57.8464 10.669 58.5518C10.6671 59.197 10.6681 59.8421 10.6714 60.4873C10.6721 60.7213 10.6718 60.9552 10.6703 61.1891C10.6684 61.5062 10.6703 61.823 10.6732 62.1401C10.671 62.2776 10.671 62.2776 10.6688 62.4178C10.6775 62.8877 10.7426 63.1124 11.0243 63.4941C11.4254 63.7852 11.6066 63.8282 12.0962 63.8286C12.2408 63.8303 12.3853 63.8319 12.5343 63.8336C12.6925 63.8322 12.8508 63.8308 13.0138 63.8294C13.1841 63.8301 13.3543 63.8311 13.5246 63.8323C13.9923 63.8349 14.4599 63.8336 14.9276 63.8317C15.4321 63.8303 15.9365 63.8325 16.441 63.8342C17.4291 63.837 18.4172 63.8364 19.4054 63.8345C20.2084 63.8331 21.0114 63.8329 21.8143 63.8336C21.9857 63.8338 21.9857 63.8338 22.1605 63.8339C22.3925 63.8341 22.6245 63.8343 22.8565 63.8345C25.033 63.8363 27.2094 63.8343 29.3858 63.8309C31.254 63.8281 33.122 63.8286 34.9902 63.8315C37.1587 63.8348 39.3273 63.8361 41.4959 63.8342C41.7271 63.834 41.9582 63.8338 42.1894 63.8336C42.3032 63.8335 42.4169 63.8334 42.5341 63.8333C43.3363 63.8328 44.1384 63.8337 44.9406 63.8352C45.9179 63.8369 46.8953 63.8365 47.8726 63.8331C48.3715 63.8315 48.8702 63.8308 49.369 63.8329C49.8255 63.8348 50.2819 63.8338 50.7384 63.8304C50.9821 63.8294 51.2258 63.8314 51.4695 63.8336C51.6863 63.8311 51.6863 63.8311 51.9075 63.8286C52.0322 63.8285 52.157 63.8284 52.2855 63.8283C52.7699 63.7172 52.9544 63.5176 53.2519 63.125C53.3441 62.7313 53.3441 62.7313 53.3288 62.2945C53.3295 62.2124 53.3302 62.1302 53.331 62.0455C53.3326 61.7696 53.3298 61.4939 53.327 61.2181C53.3273 61.0185 53.3279 60.819 53.3286 60.6194C53.33 60.0706 53.3275 59.522 53.3244 58.9733C53.3217 58.3817 53.3226 57.7901 53.3231 57.1985C53.3234 56.1734 53.3215 55.1483 53.318 54.1232C53.3129 52.6411 53.3112 51.159 53.3105 49.6769C53.3091 47.2723 53.3049 44.8678 53.299 42.4632C53.2933 40.1272 53.2889 37.7913 53.2862 35.4553C53.286 35.3113 53.2859 35.1674 53.2857 35.019C53.2849 34.2969 53.2841 33.5747 53.2833 32.8525C53.2768 26.86 53.2658 20.8675 53.2519 14.875C53.1563 14.8745 53.0607 14.8741 52.9622 14.8736C52.0557 14.8689 51.1492 14.8617 50.2428 14.852C49.7769 14.8471 49.3111 14.8431 48.8452 14.8411C48.3945 14.8392 47.9439 14.8349 47.4933 14.829C47.3224 14.8271 47.1515 14.8261 46.9807 14.826C45.8399 14.8246 44.6281 14.7972 43.7264 14.0093C42.7178 12.9497 42.6941 11.9172 42.6879 10.5122C42.6858 10.3313 42.6835 10.1504 42.6811 9.96946C42.6752 9.4958 42.6715 9.02215 42.6682 8.54847C42.6644 8.06412 42.6586 7.57979 42.653 7.09545C42.6423 6.14698 42.6338 5.1985 42.6269 4.24999C38.6565 4.23574 34.686 4.22468 30.7156 4.21808C30.247 4.2173 29.7784 4.21649 29.3098 4.21566C29.2165 4.2155 29.1232 4.21533 29.0271 4.21516C27.5159 4.21244 26.0048 4.20752 24.4937 4.20177C22.9434 4.19593 21.3932 4.19246 19.843 4.19119C18.8861 4.19033 17.9294 4.18762 16.9726 4.18255C16.2393 4.17886 15.5059 4.17846 14.7726 4.1793C14.4715 4.17913 14.1704 4.17788 13.8694 4.17549C13.459 4.17239 13.0488 4.17312 12.6384 4.17483C12.5186 4.17301 12.3989 4.17119 12.2755 4.16932C12.1654 4.17056 12.0553 4.17181 11.9418 4.17309C11.8471 4.17285 11.7524 4.17261 11.6549 4.17237C11.212 4.29602 11.0281 4.51341 10.7519 4.87499ZM44.8769 5.87499C44.8642 6.73812 44.8554 7.60122 44.8494 8.46441C44.8469 8.75808 44.8435 9.05174 44.8391 9.34539C44.8331 9.76738 44.8302 10.1893 44.828 10.6113C44.8255 10.7427 44.8229 10.8741 44.8202 11.0095C44.8076 11.7136 44.8076 11.7136 45.1065 12.329C45.5235 12.5927 45.8517 12.6405 46.3338 12.6392C46.4513 12.6392 46.5689 12.6392 46.6901 12.6392C46.88 12.6382 46.88 12.6382 47.0736 12.6372C47.2035 12.637 47.3334 12.6368 47.4672 12.6367C47.8824 12.636 48.2976 12.6344 48.7128 12.6328C48.9941 12.6322 49.2755 12.6316 49.5568 12.6311C50.2468 12.6297 50.9368 12.6276 51.6269 12.625C50.9712 11.8306 50.2513 11.1061 49.5229 10.3794C49.3925 10.2489 49.2622 10.1185 49.1318 9.98798C48.8604 9.71642 48.5889 9.44509 48.3171 9.17391C47.9681 8.8256 47.6196 8.47672 47.2713 8.12767C47.0031 7.85905 46.7347 7.59073 46.4661 7.32249C46.3374 7.19385 46.2087 7.06511 46.0802 6.93628C45.9016 6.75735 45.7225 6.57887 45.5435 6.40042C45.4416 6.29869 45.3398 6.19696 45.2349 6.09214C45.0397 5.86079 45.0397 5.86079 44.8769 5.87499Z" fill="#3498DB" stroke="#3498DB" stroke-width="2"/>
<path id="Vector_2" d="M26.625 54.25C33.6788 54.25 40.7325 54.25 48 54.25C48 54.9925 48 55.735 48 56.5C40.9462 56.5 33.8925 56.5 26.625 56.5C26.625 55.7575 26.625 55.015 26.625 54.25Z" fill="#3498DB"/>
<path id="Vector_3" d="M26.625 43.5C33.6788 43.5 40.7325 43.5 48 43.5C48 44.2425 48 44.985 48 45.75C40.9462 45.75 33.8925 45.75 26.625 45.75C26.625 45.0075 26.625 44.265 26.625 43.5Z" fill="#3498DB"/>
<path id="Vector_4" d="M26.625 32.875C33.6788 32.875 40.7325 32.875 48 32.875C48 33.6175 48 34.36 48 35.125C40.9462 35.125 33.8925 35.125 26.625 35.125C26.625 34.3825 26.625 33.64 26.625 32.875Z" fill="#3498DB"/>
<path id="Vector_5" d="M26.625 22.25C33.6788 22.25 40.7325 22.25 48 22.25C48 22.9925 48 23.735 48 24.5C40.9462 24.5 33.8925 24.5 26.625 24.5C26.625 23.7575 26.625 23.015 26.625 22.25Z" fill="#3498DB"/>
<path id="Vector_6" d="M21.1259 31.25C21.994 32.0294 22.4044 32.7635 22.4956 33.9229C22.5123 34.9409 22.1805 35.6293 21.5009 36.375C20.8408 37.0178 20.1063 37.2678 19.1963 37.3047C18.1783 37.2737 17.3297 36.8608 16.6259 36.125C15.9558 35.1943 15.8426 34.2479 16.0009 33.125C16.2964 32.1565 16.8527 31.487 17.7309 30.9966C18.8314 30.5082 20.1095 30.6183 21.1259 31.25ZM18.2509 33.625C18.1468 34 18.1468 34 18.2509 34.375C18.4905 34.7604 18.4905 34.7604 18.8759 35C19.3159 35 19.6071 34.9539 19.9931 34.7422C20.2132 34.3409 20.2201 33.9375 20.1259 33.5C19.8273 33.1587 19.6293 33.0289 19.1884 32.9297C18.7209 33.0349 18.5374 33.2485 18.2509 33.625Z" fill="#3498DB"/>
<path id="Vector_7" d="M20.875 52.5C21.6897 53.0855 22.2122 53.6865 22.4453 54.6724C22.5972 55.6836 22.3663 56.5636 21.8047 57.4141C21.2153 58.133 20.4084 58.4893 19.5 58.625C18.5652 58.6749 17.6809 58.3907 16.9419 57.8159C16.2443 57.1219 15.9812 56.3753 15.9688 55.4062C15.9813 54.2966 16.2383 53.6673 17 52.8501C18.0333 51.9198 19.6859 51.7772 20.875 52.5ZM18.4453 54.5703C18.1745 54.9928 18.1796 55.2575 18.25 55.75C18.4721 56.0514 18.652 56.201 18.9844 56.3672C19.411 56.3797 19.6503 56.2357 20 56C20.2173 55.6504 20.2173 55.6504 20.25 55.25C20.0836 54.8839 19.9084 54.6584 19.625 54.375C19.1431 54.3215 18.859 54.3051 18.4453 54.5703Z" fill="#3498DB"/>
<path id="Vector_8" d="M21.3748 42.125C22.0945 42.8069 22.4756 43.7094 22.5115 44.6973C22.4367 45.9163 21.9495 46.6206 21.0516 47.417C20.2407 47.9759 19.3246 47.9812 18.3748 47.875C17.4638 47.6037 16.76 47.0515 16.2498 46.25C15.8907 45.3788 15.8283 44.346 16.0901 43.436C16.4715 42.6254 17.1024 42.0642 17.8748 41.625C19.1182 41.1898 20.2883 41.3706 21.3748 42.125ZM18.4998 43.875C18.1897 44.3401 18.1919 44.5747 18.2498 45.125C18.4269 45.4479 18.4269 45.4479 18.7498 45.625C19.2524 45.6968 19.5078 45.7112 19.9217 45.4062C20.1851 45.0487 20.1851 45.0487 20.2498 44.625C20.0839 44.1371 19.9773 43.9285 19.5154 43.6875C19.0723 43.6166 18.8844 43.6506 18.4998 43.875Z" fill="#3498DB"/>
<path id="Vector_9" d="M20.875 20.5C21.6897 21.0855 22.2122 21.6865 22.4453 22.6724C22.5972 23.6836 22.3663 24.5636 21.8047 25.4141C21.2153 26.133 20.4084 26.4893 19.5 26.625C18.5652 26.6749 17.6809 26.3907 16.9419 25.8159C16.2443 25.1219 15.9812 24.3753 15.9688 23.4062C15.9813 22.2966 16.2383 21.6673 17 20.8501C18.0333 19.9198 19.6859 19.7772 20.875 20.5ZM18.4453 22.5703C18.1745 22.9928 18.1796 23.2575 18.25 23.75C18.4721 24.0514 18.652 24.201 18.9844 24.3672C19.411 24.3797 19.6503 24.2357 20 24C20.2173 23.6504 20.2173 23.6504 20.25 23.25C20.0836 22.8839 19.9084 22.6584 19.625 22.375C19.1431 22.3215 18.859 22.3051 18.4453 22.5703Z" fill="#3498DB"/>
</g>
</svg>
