<svg width="64" height="64" viewBox="0 0 64 64" fill="none" xmlns="http://www.w3.org/2000/svg">
<g id="verified 1" clip-path="url(#clip0_65_556)">
<path id="Vector" d="M34.9025 0.780764C35.1568 0.892877 35.411 1.00502 35.6652 1.11719C35.9328 1.23243 36.2006 1.34733 36.4685 1.46192C37.0126 1.69496 37.5561 1.92942 38.0991 2.16498C39.1049 2.60014 40.1173 3.01869 41.1307 3.43568C41.6517 3.65024 42.1721 3.86617 42.6926 4.08203C42.85 4.14729 42.85 4.14729 43.0106 4.21387C44.4685 4.81846 45.9251 5.42623 47.3817 6.03371C48.9578 6.69098 50.5346 7.34652 52.1126 7.99936C52.8479 8.30362 53.5827 8.60897 54.3174 8.91456C54.8764 9.14688 55.4363 9.3769 55.9968 9.60547C56.2326 9.70306 56.4685 9.80071 56.7043 9.89844C56.8026 9.93771 56.9009 9.97697 57.0022 10.0174C57.7522 10.3318 58.3644 10.7349 58.8226 11.4177C59.0822 12.0825 59.0534 12.7041 59.0497 13.4117C59.0507 13.6437 59.0507 13.6437 59.0517 13.8802C59.0531 14.3037 59.0527 14.7271 59.0515 15.1506C59.0506 15.5974 59.0515 16.0441 59.0521 16.4908C59.0527 17.2436 59.0518 17.9964 59.0501 18.7492C59.048 19.6107 59.0487 20.4722 59.0507 21.3338C59.0525 22.079 59.0527 22.8241 59.0517 23.5693C59.0511 24.0118 59.051 24.4542 59.0523 24.8967C59.0591 27.6701 58.8941 30.409 58.3449 33.1328C58.3187 33.265 58.2925 33.3972 58.2655 33.5334C57.3291 38.0924 55.6406 42.5041 53.2512 46.5C53.1939 46.5961 53.1366 46.6922 53.0775 46.7911C52.1873 48.2703 51.2024 49.6511 50.1262 51C50.0258 51.1271 49.9254 51.2543 49.822 51.3853C49.2235 52.1309 48.5884 52.8358 47.9362 53.5342C47.7382 53.7519 47.5465 53.9757 47.364 54.2065C47.1478 54.4733 46.9365 54.6804 46.673 54.8984C46.2691 55.2427 45.8952 55.6044 45.5246 55.9844C44.8875 56.6253 44.2151 57.1972 43.5012 57.75C43.4132 57.8185 43.3251 57.887 43.2344 57.9576C34.8294 64.4708 34.8294 64.4708 31.4195 64.0637C30.2616 63.8124 29.1737 63.1585 28.1262 62.625C27.9136 62.5194 27.701 62.4137 27.4885 62.3081C24.5464 60.8228 21.8512 58.9201 19.3762 56.75C19.2817 56.6694 19.1873 56.5889 19.09 56.5059C18.5686 56.0589 18.0831 55.5859 17.6018 55.0962C17.3693 54.86 17.3693 54.86 17.0559 54.625C16.7015 54.3343 16.4223 54.0114 16.1257 53.6631C15.8575 53.3535 15.5782 53.0566 15.298 52.7578C14.4682 51.8463 13.7337 50.8654 13.0012 49.875C12.937 49.7889 12.8728 49.7028 12.8067 49.6141C11.8177 48.2813 10.9704 46.8901 10.172 45.4359C10.0167 45.1533 9.85908 44.8722 9.70088 44.5913C6.71928 39.2209 4.98687 32.742 4.98103 26.6026C4.98041 26.4439 4.97979 26.2852 4.97915 26.1217C4.97753 25.6907 4.97671 25.2597 4.97615 24.8287C4.97578 24.5589 4.97527 24.2891 4.97471 24.0193C4.97301 23.1734 4.97179 22.3275 4.97131 21.4816C4.97075 20.508 4.96854 19.5344 4.96493 18.5608C4.96223 17.8055 4.96097 17.0503 4.9608 16.2951C4.96067 15.845 4.95994 15.3949 4.9577 14.9449C4.95526 14.4437 4.9558 13.9426 4.95662 13.4415C4.95546 13.2932 4.95431 13.145 4.95312 12.9922C4.95734 12.1633 5.00683 11.5721 5.55339 10.9105C6.19984 10.3528 6.9109 10.0472 7.69648 9.72656C7.84537 9.66426 7.99426 9.60195 8.14766 9.53775C8.58194 9.35617 9.01713 9.17688 9.4525 8.99794C9.88508 8.81988 10.3172 8.64072 10.7494 8.46165C11.8541 8.00391 12.9594 7.54769 14.0651 7.09229C15.3081 6.58023 16.5496 6.0647 17.7902 5.54688C19.3676 4.88871 20.9457 4.23254 22.5246 3.57813C22.6301 3.53442 22.7355 3.4907 22.8442 3.44567C23.8421 3.03203 24.84 2.61854 25.838 2.20508C26.4299 1.95985 27.0218 1.71457 27.6137 1.46926C27.9467 1.33129 28.2796 1.19339 28.6126 1.05548C28.8167 0.970912 29.0207 0.886338 29.2248 0.80176C29.3161 0.763964 29.4074 0.726169 29.5015 0.687228C29.5877 0.651486 29.6739 0.615745 29.7627 0.578921C29.845 0.544975 29.9273 0.51103 30.0122 0.476056C30.2453 0.377489 30.4755 0.272145 30.7056 0.166659C32.1993 -0.425228 33.5219 0.184181 34.9025 0.780764ZM30.5573 5.79248C30.4531 5.83662 30.3488 5.88076 30.2414 5.92623C29.8978 6.07202 29.555 6.21962 29.2121 6.36719C28.9702 6.47012 28.7282 6.57289 28.4861 6.67551C27.9861 6.88751 27.4864 7.10004 26.9868 7.31287C25.9898 7.7368 24.989 8.15147 23.9877 8.56525C23.5642 8.74029 23.1409 8.9157 22.7175 9.09108C22.3993 9.22289 22.081 9.35464 21.7628 9.48639C20.8027 9.88389 19.8429 10.282 18.8831 10.68C18.3551 10.899 17.827 11.118 17.299 11.3369C17.1942 11.3804 17.0894 11.4238 16.9814 11.4686C16.298 11.752 15.6147 12.0352 14.9313 12.3183C14.4589 12.514 13.9866 12.7097 13.5143 12.9055C13.2892 12.9987 13.0641 13.092 12.839 13.1852C12.5268 13.3145 12.2147 13.4439 11.9025 13.5732C11.8112 13.611 11.7199 13.6488 11.6259 13.6878C11.4966 13.7414 11.4966 13.7414 11.3646 13.7961C11.291 13.8266 11.2173 13.8571 11.1415 13.8885C10.7605 14.0486 10.3809 14.2119 10.0012 14.375C9.99824 15.7085 9.99604 17.042 9.99469 18.3755C9.99405 18.9951 9.99318 19.6146 9.99174 20.2342C9.92577 24.8773 9.92577 24.8773 10.2824 29.5C10.2985 29.6218 10.3146 29.7436 10.3311 29.8691C10.925 34.1484 12.1977 38.3169 14.2512 42.125C14.3227 42.2594 14.3227 42.2594 14.3956 42.3966C16.6399 46.605 19.7464 50.5339 23.5012 53.5C23.6441 53.6179 23.7869 53.7361 23.9294 53.8545C27.7166 57.0404 27.7166 57.0404 32.1433 58.6231C32.8343 58.447 33.4273 58.1368 34.0559 57.8047C34.1921 57.7332 34.3284 57.6617 34.4688 57.588C36.9322 56.2669 39.2885 54.6537 41.3459 52.7573C41.5884 52.5347 41.8356 52.3215 42.0871 52.1094C43.382 50.9776 44.5722 49.7328 45.6262 48.375C45.7358 48.2389 45.8457 48.103 45.9558 47.9673C52.5947 39.7342 54.0335 30.1212 54.0098 19.8687C54.0085 19.2476 54.0079 18.6265 54.0073 18.0054C54.006 16.7952 54.0038 15.5851 54.0012 14.375C51.1255 13.1691 48.2486 11.9666 45.3677 10.7735C43.9948 10.2049 42.6226 9.63453 41.2512 9.0625C39.3689 8.27748 37.4853 7.49573 35.6013 6.71509C35.4467 6.65102 35.4467 6.65102 35.2891 6.58566C35.0894 6.50297 34.8897 6.42045 34.6898 6.33811C34.265 6.16283 33.8422 5.98507 33.4216 5.79993C33.2906 5.74253 33.1596 5.68512 33.0246 5.62598C32.9155 5.57685 32.8064 5.52773 32.694 5.47711C31.8851 5.21726 31.2976 5.46981 30.5573 5.79248Z" fill="#3498DB"/>
<path id="Vector_2" d="M43.4004 22.4302C43.9291 22.8888 44.2062 23.3147 44.3052 24.0156C44.3413 25.0227 44.1598 25.7634 43.5033 26.5429C43.1878 26.8771 42.8651 27.2024 42.5387 27.526C42.4145 27.6508 42.2905 27.7758 42.1665 27.9008C41.8314 28.2382 41.4947 28.5741 41.1576 28.9095C40.804 29.2619 40.4516 29.6154 40.099 29.9688C39.5069 30.5619 38.9136 31.1539 38.3198 31.7454C37.6347 32.4278 36.9514 33.112 36.269 33.7971C35.6815 34.3868 35.0931 34.9755 34.5039 35.5634C34.1527 35.9139 33.8017 36.2647 33.4517 36.6164C33.1224 36.9471 32.792 37.2766 32.4606 37.6051C32.2822 37.7825 32.1051 37.9611 31.928 38.1398C31.12 38.9372 30.3867 39.5692 29.1953 39.5781C29.0666 39.5823 28.9378 39.5865 28.8052 39.5908C27.4971 39.3147 26.5345 38.0896 25.6265 37.1763C25.4724 37.0224 25.3182 36.8687 25.1641 36.7149C24.8427 36.3942 24.5221 36.0727 24.2019 35.7508C23.7928 35.3396 23.3821 34.9301 22.9708 34.5211C22.6528 34.2044 22.3357 33.8869 22.0189 33.5691C21.8678 33.4178 21.7165 33.2667 21.5648 33.116C21.3528 32.9049 21.142 32.6926 20.9315 32.48C20.8696 32.4189 20.8077 32.3577 20.7439 32.2948C20.0849 31.6237 19.6784 30.9773 19.6719 30.0156C19.6991 29.161 19.8846 28.6009 20.5 28C21.138 27.4796 21.8083 27.4423 22.6094 27.4336C23.7512 27.6277 24.4413 28.3737 25.2188 29.1699C25.3311 29.283 25.4434 29.396 25.5592 29.5125C25.8552 29.8108 26.1501 30.1102 26.4444 30.4101C26.746 30.7168 27.0491 31.0222 27.3521 31.3276C27.9444 31.9254 28.5352 32.5247 29.125 33.125C29.5154 32.9518 29.7788 32.7515 30.0787 32.4488C30.1667 32.3607 30.2546 32.2725 30.3452 32.1817C30.4404 32.085 30.5356 31.9883 30.6337 31.8887C30.735 31.7868 30.8363 31.685 30.9406 31.5801C31.1605 31.3588 31.3801 31.1373 31.5995 30.9155C31.9467 30.5645 32.2948 30.2143 32.643 29.8644C33.5081 28.9951 34.372 28.1246 35.2352 27.2536C35.9644 26.5178 36.6944 25.7827 37.4254 25.0488C37.6561 24.8167 37.8865 24.5843 38.1164 24.3516C38.4381 24.026 38.7609 23.7016 39.0839 23.3775C39.226 23.2328 39.226 23.2328 39.3709 23.0852C40.5261 21.932 41.9603 21.4135 43.4004 22.4302Z" fill="#3498DB"/>
</g>
<defs>
<clipPath id="clip0_65_556">
<rect width="64" height="64" fill="white"/>
</clipPath>
</defs>
</svg>
