<svg width="65" height="64" viewBox="0 0 65 64" fill="none" xmlns="http://www.w3.org/2000/svg">
<g id="favorite 1">
<path id="Vector" d="M56.7768 32.0576C58.8565 33.7065 60.1692 35.8808 60.6685 38.5C60.7198 39.0352 60.7283 39.5642 60.7231 40.1016C60.722 40.2441 60.7209 40.3866 60.7197 40.5334C60.6784 42.5523 60.0377 44.3212 58.9185 46C58.8805 46.2525 58.8805 46.2525 58.8853 46.5327C58.8843 46.6414 58.8833 46.75 58.8822 46.8619C58.8824 47.0402 58.8824 47.0402 58.8826 47.222C58.8817 47.3475 58.8809 47.4729 58.88 47.6022C58.8783 47.8749 58.8771 48.1477 58.8765 48.4204C58.8755 48.8523 58.8729 49.2842 58.8699 49.7161C58.8639 50.6336 58.8598 51.5512 58.856 52.4687C58.8515 53.5302 58.8462 54.5917 58.839 55.6532C58.8365 56.0783 58.8354 56.5033 58.8344 56.9284C58.8328 57.19 58.8311 57.4516 58.8293 57.7133C58.8295 57.89 58.8295 57.89 58.8297 58.0703C58.8221 58.8785 58.7925 59.5706 58.2622 60.2187C57.6792 60.6957 57.1971 60.9526 56.424 60.9181C55.4703 60.7574 54.5982 60.0065 53.8247 59.4687C53.5809 59.3014 53.3371 59.1341 53.0933 58.9668C52.7018 58.6967 52.3116 58.4251 51.9233 58.1504C51.7928 58.0595 51.6623 57.9686 51.5278 57.875C51.4192 57.7977 51.3106 57.7203 51.1987 57.6406C50.9344 57.4744 50.9344 57.4744 50.6806 57.535C50.3975 57.6322 50.1897 57.7548 49.9431 57.9241C49.8517 57.9862 49.7604 58.0484 49.6663 58.1124C49.5689 58.1797 49.4714 58.247 49.3711 58.3164C49.27 58.3853 49.169 58.4542 49.0648 58.5252C48.7421 58.7452 48.4201 58.9663 48.0981 59.1875C47.7757 59.4086 47.4531 59.6295 47.1301 59.8498C46.9292 59.987 46.7286 60.1245 46.5283 60.2626C46.4373 60.3247 46.3464 60.3869 46.2527 60.4509C46.1728 60.5058 46.093 60.5606 46.0108 60.6172C45.4732 60.9457 44.9026 60.9607 44.2935 60.875C43.6349 60.6174 43.2463 60.2648 42.9003 59.642C42.6967 59.1332 42.7311 58.6143 42.7411 58.0737C42.7414 57.9457 42.7417 57.8177 42.742 57.6859C42.743 57.409 42.745 57.1321 42.748 56.8552C42.7525 56.4156 42.7534 55.9762 42.7534 55.5367C42.7537 54.2874 42.7595 53.0382 42.7698 51.7889C42.7759 51.0236 42.7771 50.2584 42.7754 49.493C42.7757 49.2027 42.7779 48.9124 42.782 48.6221C42.83 46.5286 42.83 46.5286 41.9185 44.7093C40.6934 43.0714 40.612 40.5865 40.8472 38.623C41.1022 36.8763 41.8058 35.2477 42.9185 33.875C42.9989 33.7728 43.0793 33.6707 43.1621 33.5654C46.5103 29.5674 52.6253 29.0077 56.7768 32.0576ZM46.4185 36.125C45.2925 37.472 44.7969 39.0048 44.9185 40.75C45.1701 42.386 45.8933 43.6932 47.1685 44.75C48.6315 45.8164 50.1451 46.055 51.9185 45.875C52.4172 45.769 52.8404 45.6066 53.2935 45.375C53.3995 45.3234 53.5055 45.2719 53.6147 45.2187C55.054 44.4441 55.8483 43.2528 56.4185 41.75C56.8019 40.4086 56.659 38.7401 56.0435 37.5C55.7832 37.0536 55.4948 36.6502 55.1685 36.25C55.1059 36.1704 55.0434 36.0908 54.979 36.0088C54.0337 34.9346 52.4917 34.3369 51.0928 34.2236C49.3353 34.1592 47.6241 34.8391 46.4185 36.125ZM53.4282 49.6284C51.6368 50.1945 49.3968 50.0699 47.626 49.4844C47.2924 49.3555 47.2924 49.3555 46.9185 49.375C46.9185 51.19 46.9185 53.005 46.9185 54.875C47.6077 54.4853 47.6077 54.4853 48.2671 54.0615C48.346 54.0079 48.425 53.9542 48.5063 53.8989C48.6676 53.7885 48.8288 53.6778 48.9897 53.5669C49.7296 53.0651 50.3697 52.7363 51.2935 52.875C52.0838 53.1743 52.7805 53.682 53.4731 54.1562C53.6733 54.2926 53.8737 54.4286 54.0742 54.5644C54.1615 54.6241 54.2487 54.6838 54.3386 54.7452C54.5206 54.8861 54.5206 54.8861 54.6685 54.875C54.6685 53.0187 54.6685 51.1625 54.6685 49.25C54.2654 49.25 53.8061 49.4986 53.4282 49.6284Z" fill="#3498DB"/>
<path id="Vector_2" d="M43.747 7.48828C43.8451 7.57464 43.9432 7.66101 44.0443 7.75C44.1205 7.81574 44.1968 7.88148 44.2753 7.94921C46.9008 10.3823 48.2567 14.0346 48.41 17.5413C48.5166 21.433 47.0846 24.8337 44.5443 27.75C44.4783 27.8267 44.4122 27.9034 44.3441 27.9824C42.686 29.7681 40.3477 30.9332 38.0443 31.625C37.9143 31.665 37.7843 31.7049 37.6503 31.7461C35.2884 32.3414 32.4861 32.2509 30.1693 31.5C30.0841 31.4732 29.9989 31.4464 29.9111 31.4188C28.1326 30.846 26.5836 29.9766 25.1693 28.75C25.0683 28.667 24.9673 28.584 24.8632 28.4985C22.4367 26.4377 20.6682 23.244 20.3187 20.065C20.0135 16.1181 20.6767 12.2667 23.289 9.16943C23.4154 9.02368 23.4154 9.02368 23.5443 8.875C23.6273 8.77397 23.7103 8.67294 23.7958 8.56884C25.8127 6.194 28.9884 4.381 32.1064 4.0249C36.5564 3.67077 40.3193 4.57453 43.747 7.48828ZM27.229 10.9374C25.3463 12.85 24.3814 15.3293 24.3568 18C24.3812 20.4386 25.1827 22.6529 26.7943 24.5C26.9391 24.6815 26.9391 24.6815 27.0868 24.8667C28.6549 26.7452 31.2265 27.7269 33.599 27.9844C36.4358 28.1271 39.0557 27.1094 41.1693 25.25C43.0953 23.4503 44.1443 20.9924 44.2943 18.375C44.3173 15.4608 43.2436 12.9125 41.2435 10.8086C37.2869 7.05753 31.113 7.19251 27.229 10.9374Z" fill="#3498DB"/>
<path id="Vector_3" d="M23.2888 35.9779C23.3975 35.9771 23.5061 35.9762 23.6181 35.9754C23.9749 35.9729 24.3318 35.9715 24.6887 35.9702C24.8723 35.9695 24.8723 35.9695 25.0595 35.9687C25.7064 35.9661 26.3532 35.9643 27 35.9631C27.6673 35.9617 28.3346 35.9574 29.002 35.9525C29.5162 35.9492 30.0303 35.9481 30.5445 35.9477C30.7906 35.9471 31.0366 35.9456 31.2827 35.9433C31.6267 35.9403 31.9706 35.9404 32.3147 35.9413C32.4158 35.9397 32.517 35.9381 32.6211 35.9364C33.2788 35.9424 33.6439 36.0701 34.1687 36.5C34.6222 36.9774 34.7074 37.3603 34.7312 38C34.7074 38.6397 34.6222 39.0226 34.1687 39.5C33.6046 39.9435 33.2386 40.0626 32.5241 40.0643C32.4378 40.0652 32.3515 40.0661 32.2625 40.067C31.9783 40.0694 31.6941 40.0683 31.4099 40.0674C31.2096 40.0686 31.0092 40.0701 30.8089 40.0718C30.2809 40.0759 29.753 40.0772 29.2249 40.0777C28.2866 40.0789 27.3482 40.084 26.4099 40.0908C26.3098 40.0915 26.2097 40.0922 26.1066 40.0929C21.5779 40.1289 17.6957 41.056 14.3484 44.3115C12.087 46.693 10.6031 49.8346 10.5041 53.1436C10.5015 53.2257 10.4989 53.3079 10.4963 53.3926C10.4881 53.6523 10.4807 53.9121 10.4734 54.1719C10.468 54.3491 10.4625 54.5264 10.457 54.7036C10.4437 55.1357 10.431 55.5679 10.4187 56C10.5954 55.9993 10.5954 55.9993 10.7758 55.9986C13.6426 55.9875 16.5094 55.9793 19.3763 55.9741C20.7627 55.9715 22.1491 55.968 23.5354 55.9623C24.7437 55.9573 25.952 55.9541 27.1604 55.953C27.8002 55.9523 28.44 55.9508 29.0799 55.9471C29.6821 55.9437 30.2843 55.9427 30.8866 55.9434C31.1076 55.9433 31.3286 55.9423 31.5496 55.9404C31.8516 55.9379 32.1534 55.9385 32.4553 55.9399C32.5426 55.9384 32.6299 55.937 32.7199 55.9355C33.3414 55.943 33.6873 56.1162 34.1687 56.5C34.6222 56.9774 34.7074 57.3603 34.7312 58C34.7074 58.6397 34.6222 59.0226 34.1687 59.5C33.5723 59.9845 33.0983 60.072 32.3512 60.0635C32.2454 60.0643 32.1397 60.0651 32.0307 60.0659C31.6772 60.0678 31.3237 60.0663 30.9702 60.0647C30.7164 60.0654 30.4626 60.0663 30.2087 60.0674C29.52 60.0696 28.8312 60.0687 28.1424 60.0672C27.4216 60.0659 26.7007 60.0671 25.9799 60.0679C24.7693 60.0688 23.5588 60.0676 22.3483 60.0652C20.9488 60.0625 19.5493 60.0633 18.1498 60.0661C16.9482 60.0684 15.7466 60.0687 14.545 60.0674C13.8273 60.0666 13.1097 60.0665 12.392 60.0681C11.7173 60.0696 11.0426 60.0686 10.3679 60.0657C10.1203 60.065 9.87269 60.0652 9.62507 60.0663C9.28704 60.0677 8.94916 60.066 8.61113 60.0635C8.51315 60.0646 8.41517 60.0657 8.31422 60.0669C7.66285 60.0576 7.29671 59.9092 6.79367 59.5C6.16764 58.8284 6.22274 58.1483 6.23166 57.2793C6.23148 57.1359 6.2313 56.9924 6.23111 56.8447C6.23132 56.5408 6.23276 56.237 6.23536 55.9331C6.23893 55.4755 6.23794 55.0181 6.2363 54.5605C6.24121 49.0738 8.13752 44.5916 11.9826 40.6807C14.927 37.858 19.2017 35.9915 23.2888 35.9779Z" fill="#3498DB"/>
</g>
</svg>
