<svg width="65" height="64" viewBox="0 0 65 64" fill="none" xmlns="http://www.w3.org/2000/svg">
<g id="add-friend">
<path id="Vector" d="M42.5091 6.13117C42.6067 6.21351 42.7043 6.29585 42.805 6.38068C46.0696 9.20016 48.0323 13.3563 48.3841 17.6312C48.6296 22.614 47.122 26.99 43.7835 30.7064C43.2683 31.2644 42.7105 31.7621 42.1341 32.2562C42.0084 32.3805 41.8832 32.5054 41.7591 32.6312C41.837 32.6638 41.9149 32.6964 41.9952 32.73C46.7465 34.7297 46.7465 34.7297 47.4099 35.9915C47.7053 36.7801 47.7428 37.6278 47.3938 38.4002C46.9916 39.0895 46.5278 39.6151 45.7591 39.8812C44.4316 40.1716 43.4786 39.7196 42.3528 39.0452C37.5546 36.2889 31.6429 35.674 26.3137 37.0296C22.5559 38.0536 19.3798 39.8941 16.5091 42.5062C16.4159 42.5903 16.3228 42.6744 16.2268 42.7611C12.055 46.7302 10.0639 52.4961 9.82936 58.1312C9.78058 59.0039 9.6762 59.6113 9.03005 60.223C8.28532 60.821 7.6008 61.0895 6.63405 61.0062C5.74585 60.7973 5.06809 60.3271 4.54958 59.5789C4.30271 58.9111 4.32863 58.275 4.33718 57.5687C4.33894 57.3439 4.33894 57.3439 4.34075 57.1145C4.40538 53.2298 5.40905 49.2714 7.26497 45.8515C7.38146 45.636 7.49389 45.4182 7.60622 45.2005C8.67888 43.1428 10.0655 41.3322 11.6341 39.6312C11.7282 39.5242 11.8223 39.4172 11.9192 39.3069C12.4958 38.6513 13.0835 38.0587 13.7591 37.5062C13.8238 37.4524 13.8886 37.3986 13.9553 37.3431C16.2346 35.453 18.6821 33.9635 21.3841 32.7562C21.3159 32.7046 21.2477 32.653 21.1775 32.5999C19.965 31.6713 18.9433 30.7195 18.0091 29.5062C17.9254 29.3995 17.8418 29.2928 17.7556 29.1829C15.0044 25.5546 13.9324 21.0487 14.5481 16.5516C15.2128 12.133 17.5934 8.04219 21.1833 5.34855C21.5344 5.09722 21.8938 4.8614 22.2591 4.63117C22.3973 4.54303 22.5356 4.45489 22.678 4.36408C28.9249 0.594386 37.0083 1.44157 42.5091 6.13117ZM22.8518 11.1917C20.6289 13.799 19.6295 16.8478 19.8841 20.2562C20.2102 23.2385 21.7234 26.0965 24.0525 27.9954C26.7571 30.0588 29.7859 30.8034 33.1684 30.4789C35.4389 30.1563 37.5722 29.0235 39.2591 27.5062C39.3475 27.428 39.436 27.3499 39.5271 27.2694C41.4981 25.4228 42.8195 22.5479 42.9138 19.8514C42.9761 16.4347 42.0565 13.4904 39.6922 10.9457C38.113 9.31077 36.1922 8.31189 34.0091 7.75617C33.8958 7.72555 33.7825 7.69494 33.6658 7.6634C29.801 6.7831 25.4867 8.29245 22.8518 11.1917Z" fill="#3498DB"/>
<path id="Vector_2" d="M59.5812 40.25C60.1563 40.7831 60.6461 41.3371 60.7614 42.1289C60.7664 42.272 60.7714 42.4151 60.7766 42.5625C60.7884 42.7733 60.7884 42.7733 60.8005 42.9883C60.657 44.4069 59.2054 45.9475 58.4234 47.0956C58.0181 47.6908 57.6145 48.2873 57.2111 48.8838C57.1278 49.007 57.0445 49.1302 56.9587 49.2571C56.1591 50.4413 55.3724 51.6338 54.5881 52.8282C53.411 54.621 52.2316 56.4124 51.0367 58.1934C50.9012 58.3956 50.7661 58.598 50.6313 58.8007C50.4463 59.0787 50.2601 59.3559 50.0734 59.6328C50.0198 59.7139 49.9662 59.795 49.911 59.8786C49.4123 60.6128 48.8238 61.1361 47.9562 61.375C45.9934 61.7192 44.0752 59.8924 42.5656 58.8594C42.2169 58.622 41.868 58.3849 41.519 58.1478C41.2898 57.9919 41.0608 57.8357 40.832 57.6792C40.2868 57.3068 39.7398 56.9386 39.1854 56.5802C39.0835 56.5139 38.9816 56.4476 38.8767 56.3794C38.6879 56.257 38.4984 56.1356 38.308 56.0156C37.6029 55.5571 37.0264 55.0331 36.6594 54.2656C36.4854 53.3956 36.4784 52.526 36.9562 51.75C37.4894 51.175 38.0434 50.6851 38.8351 50.5698C39.0498 50.5623 39.0498 50.5623 39.2687 50.5547C39.4092 50.5468 39.5498 50.5389 39.6945 50.5308C41.203 50.6827 42.871 52.2756 44.0891 53.1094C44.4048 53.3254 44.7207 53.5413 45.0369 53.7566C45.2323 53.8896 45.4273 54.023 45.6221 54.1568C45.7098 54.2166 45.7975 54.2763 45.8879 54.3378C45.9647 54.3904 46.0415 54.443 46.1207 54.4972C46.3486 54.6462 46.3486 54.6462 46.7062 54.75C46.7468 54.6276 46.7468 54.6276 46.7881 54.5027C47.0174 53.9875 47.3277 53.5456 47.6462 53.0815C47.7165 52.978 47.7868 52.8745 47.8592 52.7679C48.0116 52.5433 48.1644 52.319 48.3173 52.0948C48.7291 51.491 49.1389 50.8859 49.5485 50.2808C49.6335 50.1553 49.7184 50.0299 49.8059 49.9007C50.8716 48.3244 51.9152 46.7335 52.9581 45.1421C53.3037 44.615 53.6505 44.0887 53.9987 43.5634C54.1405 43.3493 54.2819 43.135 54.423 42.9205C54.6372 42.5958 54.8531 42.2724 55.0695 41.9492C55.1332 41.8521 55.1969 41.755 55.2625 41.6549C56.2518 40.1897 57.8748 39.1991 59.5812 40.25Z" fill="#3498DB"/>
</g>
</svg>
