<svg xmlns="http://www.w3.org/2000/svg" width="24" height="24" viewBox="0 0 24 24" fill="none">
    <path d="M12.0008 8.84133C12.4508 8.84133 12.8258 8.46633 12.8258 8.01633V1.37883C12.8258 0.928833 12.4508 0.553833 12.0008 0.553833C11.5508 0.553833 11.1758 0.928833 11.1758 1.37883V7.97883C11.1758 8.46633 11.5508 8.84133 12.0008 8.84133Z" fill="#333333"/>
    <path d="M18.7508 2.35382H20.8133C21.2258 2.35382 21.5258 2.69132 21.5258 3.06632V5.12882C21.5258 5.57882 21.9008 5.95382 22.3508 5.95382C22.8008 5.95382 23.1758 5.57882 23.1758 5.12882V3.06632C23.1758 1.75382 22.0883 0.666321 20.7758 0.666321H18.7508C18.3008 0.666321 17.9258 1.04132 17.9258 1.49132C17.9258 1.94132 18.3008 2.35382 18.7508 2.35382Z" fill="#333333"/>
    <path d="M1.6125 5.99135C2.0625 5.99135 2.4375 5.61635 2.4375 5.16635V3.06635C2.4375 2.65385 2.775 2.35385 3.15 2.35385H5.25C5.7 2.35385 6.075 1.97885 6.075 1.52885C6.075 1.07885 5.7 0.703855 5.25 0.703855H3.15C1.8375 0.666355 0.75 1.71635 0.75 3.06635V5.12885C0.75 5.61635 1.125 5.99135 1.6125 5.99135Z" fill="#333333"/>
    <path d="M22.3875 17.8039C21.9375 17.8039 21.5625 18.1789 21.5625 18.6289V20.6914C21.5625 21.1039 21.225 21.4039 20.85 21.4039H12.825V15.7789C12.825 15.3289 12.45 14.9539 12 14.9539C11.55 14.9539 11.175 15.3289 11.175 15.7789V21.4414H3.15C2.7375 21.4414 2.4375 21.1039 2.4375 20.7289V18.6664C2.4375 18.2164 2.0625 17.8414 1.6125 17.8414C1.1625 17.8414 0.75 18.1789 0.75 18.6664V20.7289C0.75 22.0414 1.8375 23.1289 3.15 23.1289H20.8125C22.125 23.1289 23.2125 22.0414 23.2125 20.7289V18.6664C23.25 18.1789 22.875 17.8039 22.3875 17.8039Z" fill="#333333"/>
    <path d="M7.91484 2.35386H8.43984C8.88984 2.35386 9.26484 1.97886 9.26484 1.52886C9.26484 1.07886 8.88984 0.703857 8.43984 0.703857H7.91484C7.46484 0.703857 7.08984 1.07886 7.08984 1.52886C7.08984 1.97886 7.42734 2.35386 7.91484 2.35386Z" fill="#333333"/>
    <path d="M15.7117 2.35386H16.2367C16.6867 2.35386 17.0617 1.97886 17.0617 1.52886C17.0617 1.07886 16.6867 0.703857 16.2367 0.703857H15.7117C15.2617 0.703857 14.8867 1.07886 14.8867 1.52886C14.8867 1.97886 15.2242 2.35386 15.7117 2.35386Z" fill="#333333"/>
    <path d="M22.4617 6.89136C22.0117 6.89136 21.6367 7.26636 21.6367 7.71636V8.24136C21.6367 8.69136 22.0117 9.06636 22.4617 9.06636C22.9117 9.06636 23.2867 8.69136 23.2867 8.24136V7.71636C23.2867 7.26636 22.9117 6.89136 22.4617 6.89136Z" fill="#333333"/>
    <path d="M22.4617 14.6913C22.0117 14.6913 21.6367 15.0663 21.6367 15.5163V16.0413C21.6367 16.4913 22.0117 16.8663 22.4617 16.8663C22.9117 16.8663 23.2867 16.4913 23.2867 16.0413V15.5163C23.2867 15.0663 22.9117 14.6913 22.4617 14.6913Z" fill="#333333"/>
    <path d="M1.68828 6.89136C1.23828 6.89136 0.863281 7.26636 0.863281 7.71636V8.24136C0.863281 8.69136 1.23828 9.06636 1.68828 9.06636C2.13828 9.06636 2.51328 8.69136 2.51328 8.24136V7.71636C2.51328 7.26636 2.13828 6.89136 1.68828 6.89136Z" fill="#333333"/>
    <path d="M0.824219 15.5163V16.0413C0.824219 16.4913 1.19922 16.8663 1.64922 16.8663C2.09922 16.8663 2.47422 16.4913 2.47422 16.0413V15.5163C2.47422 15.0663 2.09922 14.6913 1.64922 14.6913C1.19922 14.6913 0.824219 15.0663 0.824219 15.5163Z" fill="#333333"/>
    <path d="M22.4992 11.0538H15.8992C15.4492 11.0538 15.0742 11.4288 15.0742 11.8788C15.0742 12.3288 15.4492 12.7038 15.8992 12.7038H22.4992C22.9492 12.7038 23.3242 12.3288 23.3242 11.8788C23.3242 11.4288 22.9492 11.0538 22.4992 11.0538Z" fill="#333333"/>
    <path d="M1.50078 12.7413H8.10078C8.55078 12.7413 8.92578 12.3663 8.92578 11.9163C8.92578 11.4663 8.55078 11.0913 8.10078 11.0913H1.50078C1.05078 11.0913 0.675781 11.4663 0.675781 11.9163C0.675781 12.3663 1.05078 12.7413 1.50078 12.7413Z" fill="#333333"/>
  </svg>