<svg width="13" height="42" viewBox="0 0 13 42" fill="none" xmlns="http://www.w3.org/2000/svg">
<g id="Icon">
<path id="Vector" d="M4.18359 15C4.25391 15 4.31641 15.0117 4.37109 15.0352C4.42578 15.0586 4.48047 15.0977 4.53516 15.1523L10.3828 21L4.53516 26.8477C4.43359 26.9492 4.31641 27 4.18359 27C4.05078 27 3.93359 26.9492 3.83203 26.8477C3.73047 26.7461 3.67969 26.6289 3.67969 26.4961C3.67969 26.3633 3.73047 26.2461 3.83203 26.1445L8.97656 21L3.83203 15.8555C3.73047 15.7539 3.67969 15.6367 3.67969 15.5039C3.67969 15.3711 3.73047 15.2539 3.83203 15.1523C3.87891 15.0977 3.92969 15.0586 3.98438 15.0352C4.03906 15.0117 4.10547 15 4.18359 15Z" fill="#4E4E4E"/>
</g>
</svg>
