<svg width="15" height="42" viewBox="0 0 15 42" fill="none" xmlns="http://www.w3.org/2000/svg">
<g id="Icon" clip-path="url(#clip0_237_13988)">
<path id="Vector" d="M14.0032 15.52L12.7288 14.2456C12.4362 13.953 12.0774 13.8066 11.6526 13.8066C11.2278 13.8066 10.8738 13.953 10.5906 14.2456L1.24492 23.5488L1.10332 23.6904C1.08444 23.7093 1.06792 23.7329 1.05376 23.7612C1.0396 23.7896 1.0278 23.8179 1.01836 23.8462L0.0837891 27.7827C0.074349 27.8394 0.076709 27.8913 0.0908691 27.9385C0.105029 27.9857 0.13099 28.0329 0.16875 28.0801C0.19707 28.1084 0.232471 28.1296 0.274951 28.1438C0.317432 28.158 0.352832 28.165 0.381152 28.165C0.390592 28.165 0.402393 28.165 0.416553 28.165C0.430713 28.165 0.437793 28.165 0.437793 28.165L4.346 27.2305C4.37432 27.2305 4.40264 27.2234 4.43096 27.2092C4.45928 27.1951 4.47816 27.1738 4.4876 27.1455L12.7005 18.9751L13.5359 18.1255L13.9749 17.7007C14.277 17.3892 14.4304 17.021 14.4351 16.5962C14.4398 16.1714 14.2959 15.8127 14.0032 15.52ZM12.5022 18.3096L9.91094 15.7183L10.3499 15.2935L12.9271 17.8706L12.5022 18.3096ZM4.45928 26.3384L1.88213 23.7612L9.48613 16.1572L12.0633 18.7344L4.45928 26.3384ZM1.54229 24.271L3.97783 26.7065L0.805957 27.4429L1.54229 24.271ZM13.5643 17.2334L13.366 17.4316L10.7889 14.8545L10.9871 14.6421C11.1665 14.4722 11.3836 14.3872 11.6385 14.3872C11.8934 14.3872 12.101 14.4722 12.2615 14.6421L13.5359 15.9307C13.7247 16.1195 13.8215 16.3389 13.8262 16.5891C13.8309 16.8393 13.7436 17.054 13.5643 17.2334Z" fill="#414141"/>
</g>
<defs>
<clipPath id="clip0_237_13988">
<rect width="14.5" height="42" fill="white" transform="matrix(1 0 0 -1 0 42)"/>
</clipPath>
</defs>
</svg>
