<svg xmlns="http://www.w3.org/2000/svg" width="24" height="25" viewBox="0 0 24 25" fill="none">
    <path d="M19 9.84131V6.84131C19 6.31088 18.7893 5.80217 18.4142 5.42709C18.0391 5.05202 17.5304 4.84131 17 4.84131H7C6.46957 4.84131 5.96086 5.05202 5.58579 5.42709C5.21071 5.80217 5 6.31088 5 6.84131V9.84131" stroke="#333333" stroke-width="2" stroke-linecap="round" stroke-linejoin="round"/>
    <path d="M3 11.8413V16.8413C3 17.3717 3.21071 17.8804 3.58579 18.2555C3.96086 18.6306 4.46957 18.8413 5 18.8413H19C19.5304 18.8413 20.0391 18.6306 20.4142 18.2555C20.7893 17.8804 21 17.3717 21 16.8413V11.8413C21 11.3109 20.7893 10.8022 20.4142 10.4271C20.0391 10.052 19.5304 9.84131 19 9.84131C18.4696 9.84131 17.9609 10.052 17.5858 10.4271C17.2107 10.8022 17 11.3109 17 11.8413V13.8413H7V11.8413C7 11.3109 6.78929 10.8022 6.41421 10.4271C6.03914 10.052 5.53043 9.84131 5 9.84131C4.46957 9.84131 3.96086 10.052 3.58579 10.4271C3.21071 10.8022 3 11.3109 3 11.8413Z" stroke="#333333" stroke-width="2" stroke-linecap="round" stroke-linejoin="round"/>
    <path d="M5 18.8413V20.8413" stroke="#333333" stroke-width="2" stroke-linecap="round" stroke-linejoin="round"/>
    <path d="M19 18.8413V20.8413" stroke="#333333" stroke-width="2" stroke-linecap="round" stroke-linejoin="round"/>
  </svg>