<svg xmlns="http://www.w3.org/2000/svg" width="24" height="24" viewBox="0 0 24 24" fill="none">
  <path d="M3.88782 2H20.1122C20.6129 2 21.093 2.22914 21.4471 2.63702C21.8011 3.04489 22 3.59809 22 4.17491C22 4.75173 21.8011 5.30493 21.4471 5.7128C21.093 6.12068 20.6129 6.34982 20.1122 6.34982H3.88782C3.38714 6.34982 2.90696 6.12068 2.55293 5.7128C2.19889 5.30493 2 4.75173 2 4.17491C2 3.59809 2.19889 3.04489 2.55293 2.63702C2.90696 2.22914 3.38714 2 3.88782 2ZM3.88782 9.82467H20.1122C20.3601 9.82467 20.6056 9.88093 20.8346 9.99023C21.0637 10.0995 21.2718 10.2597 21.4471 10.4617C21.6224 10.6636 21.7614 10.9034 21.8563 11.1673C21.9512 11.4312 22 11.714 22 11.9996C22 12.2852 21.9512 12.568 21.8563 12.8319C21.7614 13.0958 21.6224 13.3355 21.4471 13.5375C21.2718 13.7394 21.0637 13.8996 20.8346 14.0089C20.6056 14.1182 20.3601 14.1745 20.1122 14.1745H3.88782C3.6399 14.1745 3.39442 14.1182 3.16538 14.0089C2.93634 13.8996 2.72823 13.7394 2.55293 13.5375C2.37763 13.3355 2.23857 13.0958 2.1437 12.8319C2.04883 12.568 2 12.2852 2 11.9996C2 11.714 2.04883 11.4312 2.1437 11.1673C2.23857 10.9034 2.37763 10.6636 2.55293 10.4617C2.72823 10.2597 2.93634 10.0995 3.16538 9.99023C3.39442 9.88093 3.6399 9.82467 3.88782 9.82467ZM3.88782 17.6502H20.1122C20.3601 17.6502 20.6056 17.7064 20.8346 17.8157C21.0637 17.925 21.2718 18.0852 21.4471 18.2872C21.6224 18.4892 21.7614 18.7289 21.8563 18.9928C21.9512 19.2567 22 19.5395 22 19.8251C22 20.1107 21.9512 20.3935 21.8563 20.6574C21.7614 20.9213 21.6224 21.161 21.4471 21.363C21.2718 21.5649 21.0637 21.7251 20.8346 21.8344C20.6056 21.9437 20.3601 22 20.1122 22H3.88782C3.6399 22 3.39442 21.9437 3.16538 21.8344C2.93634 21.7251 2.72823 21.5649 2.55293 21.363C2.37763 21.161 2.23857 20.9213 2.1437 20.6574C2.04883 20.3935 2 20.1107 2 19.8251C2 19.5395 2.04883 19.2567 2.1437 18.9928C2.23857 18.7289 2.37763 18.4892 2.55293 18.2872C2.72823 18.0852 2.93634 17.925 3.16538 17.8157C3.39442 17.7064 3.6399 17.6502 3.88782 17.6502Z" fill="#1C1D1F"/>
</svg>