<svg width="24" height="24" viewBox="0 0 24 24" fill="none" xmlns="http://www.w3.org/2000/svg">
<g id="instagram">
<path id="Vector" d="M12.0012 6.50236C8.96107 6.50236 6.50749 8.95593 6.50749 11.9961C6.50749 15.0363 8.96107 17.4899 12.0012 17.4899C15.0414 17.4899 17.495 15.0363 17.495 11.9961C17.495 8.95593 15.0414 6.50236 12.0012 6.50236ZM12.0012 15.5666C10.0352 15.5666 8.43071 13.9622 8.43071 11.9961C8.43071 10.03 10.0352 8.42557 12.0012 8.42557C13.9673 8.42557 15.5718 10.03 15.5718 11.9961C15.5718 13.9622 13.9673 15.5666 12.0012 15.5666ZM17.72 4.997C17.0102 4.997 16.437 5.57022 16.437 6.28004C16.437 6.98986 17.0102 7.56307 17.72 7.56307C18.4298 7.56307 19.003 6.99254 19.003 6.28004C19.0032 6.11149 18.9702 5.94455 18.9058 5.78879C18.8414 5.63303 18.7469 5.49151 18.6277 5.37232C18.5085 5.25314 18.367 5.15864 18.2112 5.09424C18.0555 5.02983 17.8885 4.99679 17.72 4.997ZM22.7102 11.9961C22.7102 10.5175 22.7236 9.05236 22.6405 7.57647C22.5575 5.86218 22.1664 4.34075 20.9129 3.08718C19.6566 1.83093 18.1379 1.44254 16.4236 1.3595C14.945 1.27647 13.4798 1.28986 12.0039 1.28986C10.5254 1.28986 9.06017 1.27647 7.58428 1.3595C5.86999 1.44254 4.34857 1.83361 3.09499 3.08718C1.83874 4.34343 1.45035 5.86218 1.36731 7.57647C1.28428 9.05504 1.29767 10.5202 1.29767 11.9961C1.29767 13.472 1.28428 14.9399 1.36731 16.4158C1.45035 18.13 1.84142 19.6515 3.09499 20.905C4.35124 22.1613 5.86999 22.5497 7.58428 22.6327C9.06285 22.7158 10.528 22.7024 12.0039 22.7024C13.4825 22.7024 14.9477 22.7158 16.4236 22.6327C18.1379 22.5497 19.6593 22.1586 20.9129 20.905C22.1691 19.6488 22.5575 18.13 22.6405 16.4158C22.7262 14.9399 22.7102 13.4747 22.7102 11.9961ZM20.353 18.3122C20.1575 18.7997 19.9218 19.164 19.5441 19.539C19.1664 19.9166 18.8048 20.1524 18.3173 20.3479C16.9084 20.9077 13.5629 20.7818 12.0012 20.7818C10.4396 20.7818 7.09142 20.9077 5.68249 20.3506C5.19499 20.155 4.83071 19.9193 4.45571 19.5416C4.07803 19.164 3.84232 18.8024 3.64678 18.3149C3.08964 16.9033 3.21553 13.5577 3.21553 11.9961C3.21553 10.4345 3.08964 7.08629 3.64678 5.67736C3.84232 5.18986 4.07803 4.82557 4.45571 4.45057C4.83339 4.07557 5.19499 3.83718 5.68249 3.64165C7.09142 3.0845 10.4396 3.21039 12.0012 3.21039C13.5629 3.21039 16.9111 3.0845 18.32 3.64165C18.8075 3.83718 19.1718 4.0729 19.5468 4.45057C19.9245 4.82825 20.1602 5.18986 20.3557 5.67736C20.9129 7.08629 20.787 10.4345 20.787 11.9961C20.787 13.5577 20.9129 16.9033 20.353 18.3122Z" fill="#D1EBE8" fill-opacity="0.62"/>
</g>
</svg>
