<svg width="150" height="150" viewBox="0 0 150 150" fill="none" xmlns="http://www.w3.org/2000/svg">
<g id="Frame" clip-path="url(#clip0_144_365)">
<path id="Vector" d="M9.15488 28.0253C9.25024 28.3694 9.36567 28.7175 9.42712 29.069L9.17209 29.3074C9.09002 28.952 9.00401 28.5975 8.91406 28.244L9.12039 28.5005L9.15488 28.0253Z" fill="#000003"/>
<path id="Vector_2" d="M11.1141 35.9269C11.2308 36.4351 11.4072 36.9822 11.4706 37.4964C11.5726 37.9061 11.6985 38.325 11.7658 38.741L11.5138 38.9562L11.23 37.7031L10.8203 36.0408L11.1141 35.9269Z" fill="#000003"/>
<path id="Vector_3" d="M7.71673 22.2787L7.81671 22.4747C7.84622 22.3429 7.86695 22.2221 7.87362 22.0872C7.89568 22.2597 7.921 22.4317 7.94957 22.6032C8.14769 24.4638 8.76695 26.205 9.15352 28.0253L9.11903 28.5005L8.9127 28.244C8.4526 27.0922 7.56358 23.391 7.71673 22.2787Z" fill="#01000E"/>
<path id="Vector_4" d="M9.4269 29.069C9.63059 29.8294 9.92561 30.7079 10.0073 31.488C10.3094 32.6583 10.5897 33.8358 10.9015 35.0033C10.9699 35.3117 11.0404 35.6196 11.1131 35.9269L10.8193 36.0408L10.6183 35.181C10.355 34.018 10.0434 32.8622 9.754 31.7051C9.58723 30.9021 9.36904 30.1039 9.17188 29.3074L9.4269 29.069Z" fill="#01000E"/>
<path id="Vector_5" d="M84.6809 54.1141C89.1311 52.5549 93.0437 49.9284 95.1457 45.5618C96.1659 43.4781 96.7619 41.2125 96.8992 38.8966C97.0365 36.5807 96.7123 34.2606 95.9455 32.071C94.3079 27.5967 90.9666 23.9521 86.6511 21.9328C84.5514 20.9314 82.2724 20.3606 79.9486 20.2538C77.6248 20.1471 75.3031 20.5066 73.1204 21.3113C71.5949 21.8741 70.1811 22.6181 68.8919 23.6113C68.3445 24.033 67.8126 24.6034 67.2203 24.9475L67.1523 24.857C67.4967 23.8939 70.5779 22.095 71.5182 21.6481C73.6596 20.6236 75.9851 20.0396 78.3565 19.931C80.728 19.8224 83.0971 20.1913 85.3232 21.0159C89.878 22.7028 93.5909 26.1066 95.6665 30.498C97.6052 34.6278 97.7392 39.6825 96.1924 43.959C95.4482 46.015 94.3015 47.902 92.8195 49.5096C91.3374 51.1172 89.5496 52.4132 87.5608 53.3217C86.6855 53.7209 85.7928 54.0806 84.8852 54.3995C82.8491 55.0236 80.7104 55.4075 78.5754 55.3332C77.7214 55.3034 74.9331 55.0545 74.3501 54.4315L74.3728 54.3341L74.4673 54.3866L74.49 54.3251C75.3081 54.4592 76.1035 54.7283 76.9267 54.8556C79.5202 55.2565 82.1833 54.8369 84.6809 54.1141Z" fill="#000003"/>
<path id="Vector_6" d="M7.71875 22.2787C7.91335 21.1581 8.49109 20.0608 9.42844 19.3838C10.5318 18.5869 15.383 17.2328 16.8953 16.7357C23.5265 14.5554 30.17 12.4126 36.8256 10.3076C40.5036 9.09301 44.1893 7.90166 47.8823 6.73356C49.3743 6.26068 50.862 5.7008 52.3778 5.31176C52.9982 5.15251 53.5814 5.13521 54.2097 5.25492C55.2638 5.45575 56.2816 6.10064 56.8806 6.99358C57.5097 7.93136 58.0194 10.6343 58.3396 11.8461L60.77 21.2681C62.7169 28.7075 64.6147 36.1596 66.4634 43.624C67 45.797 67.6295 47.943 68.1263 50.1259L68.2426 50.6253L67.965 50.6652C65.6608 40.8702 63.0053 31.1436 60.5179 21.393C59.6795 18.1066 58.8699 14.8187 57.9921 11.5423C57.6559 10.2875 57.3108 8.35609 56.6856 7.27814C56.1458 6.34725 55.27 5.79013 54.241 5.54143C53.6288 5.39346 53.0618 5.40912 52.4565 5.56893C51.1876 5.90394 49.9547 6.40282 48.6997 6.78989C44.0078 8.23686 39.3576 9.812 34.6799 11.3028L16.3014 17.2222C14.7855 17.7197 10.8625 18.7686 9.68472 19.5137C8.61838 20.1882 8.20808 21.4435 7.95159 22.6032C7.92302 22.4317 7.8977 22.2597 7.87563 22.0872C7.86897 22.2222 7.84824 22.3429 7.81873 22.4747L7.71875 22.2787Z" fill="#000003"/>
<path id="Vector_7" d="M76.6294 93.3779C78.8611 93.3267 81.1902 93.6321 83.3823 94.0269C84.6684 94.2576 85.9458 94.5791 87.2524 94.6685C85.1453 96.6636 82.8096 98.4404 80.4512 100.126C78.8787 99.2212 77.512 98.1504 76.2031 96.8943C76.5562 95.9707 76.5408 94.3982 76.6294 93.3779Z" fill="#D7E3D2"/>
<path id="Vector_8" d="M75.6814 131.807C77.5806 132.141 79.479 132.514 81.3818 132.823C83.8098 133.217 86.2458 133.532 88.6665 133.975C87.9656 137.249 87.1138 140.51 86.2766 143.752C85.1772 143.402 83.6421 143.372 82.4695 143.163C79.7584 142.684 77.0651 142.11 74.3945 141.441C74.9072 138.248 75.2998 135.018 75.6814 131.807Z" fill="#D7E3D2"/>
<path id="Vector_9" d="M53.6372 127.931C55.5329 128.343 57.4718 128.627 59.3838 128.962L72.1534 131.141C71.9285 134.18 71.3235 137.177 71.0808 140.208L71.0161 140.507C70.9978 140.517 70.9806 140.53 70.961 140.537C70.608 140.67 69.6764 140.275 69.2873 140.169C63.7562 138.663 58.1911 136.673 52.9453 134.363C53.0001 132.229 53.3774 130.05 53.6372 127.931Z" fill="#D7E3D2"/>
<path id="Vector_10" d="M128.375 119.835C130.997 117.204 131.265 111.144 131.578 107.565C131.603 107.644 131.612 107.73 131.653 107.802C131.756 107.985 133.514 109.138 133.814 109.387C140.086 114.607 142.473 120.842 138.507 128.47C137.319 130.756 135.545 133.036 133.613 134.742C132.871 135.397 132.074 135.937 131.304 136.544C131.112 136.696 130.982 136.765 130.971 137.026C129.89 135.147 128.866 122.799 128.375 119.835Z" fill="#D7E3D2"/>
<path id="Vector_11" d="M77.9883 50.7418C75.6065 46.4744 70.7716 37.7424 72.1544 32.8545C72.6852 30.9781 74.0296 29.297 75.7347 28.3541C77.3094 27.4836 79.3221 27.3125 81.0425 27.8214C82.796 28.3403 84.356 29.6673 85.2064 31.2778C86.8785 34.4446 85.6085 38.0676 84.6087 41.2384C83.8425 43.654 82.9442 46.0256 81.9178 48.3426C81.4732 49.3269 80.9598 50.2772 80.5049 51.2561C80.1219 51.7862 79.9534 52.5222 79.4693 52.9917C79.1954 52.8295 78.2271 51.1156 77.9883 50.7418Z" fill="#000003"/>
<path id="Vector_12" d="M78.9753 27.8651C79.351 27.875 79.7275 27.8826 80.0988 27.9453C81.8457 28.2405 83.4746 29.3018 84.489 30.749C85.7334 32.5235 85.852 34.6 85.4799 36.6817C85.2924 37.7339 84.9819 38.7603 84.6882 39.7866C83.5992 43.6099 82.1254 47.3129 80.2893 50.8389C80.0842 51.2413 79.8015 52.1454 79.4646 52.3791L79.332 52.2498C76.592 48.2308 72.5346 40.1183 72.291 35.2267C72.1951 33.3015 72.8061 31.5432 74.1098 30.1127C75.4172 28.679 77.0512 27.944 78.9753 27.8651Z" fill="#F47E63"/>
<path id="Vector_13" d="M78.4884 29.2458C79.7152 29.1639 80.8651 29.3914 81.8927 30.0926C82.4706 30.488 82.9647 30.9937 83.3464 31.5807C83.7281 32.1677 83.99 32.8244 84.1171 33.513C84.2426 34.1896 84.2307 34.8845 84.0819 35.5563C83.9332 36.2282 83.6507 36.8632 83.2513 37.4235C82.3732 38.6644 81.1127 39.3607 79.6317 39.608C78.3133 39.6717 77.2001 39.4921 76.1066 38.7022C75.5244 38.288 75.0302 37.7623 74.6528 37.1556C74.2754 36.5489 74.0222 35.8733 73.9078 35.168C73.8059 34.4746 73.8427 33.7679 74.0159 33.0889C74.1892 32.4098 74.4955 31.7718 74.9171 31.212C75.8063 30.0327 77.0521 29.4576 78.4884 29.2458Z" fill="#000003"/>
<path id="Vector_14" d="M78.3907 29.6083C79.5611 29.4919 80.7176 29.7285 81.6917 30.4051C82.7559 31.1443 83.544 32.2921 83.7718 33.5734C83.8889 34.2093 83.8782 34.8622 83.7401 35.4938C83.602 36.1255 83.3394 36.7233 82.9676 37.2524C82.2037 38.3448 81.0963 38.9801 79.7955 39.2038C78.6236 39.3515 77.5352 39.2205 76.5282 38.5672C75.4215 37.8497 74.5872 36.6787 74.3214 35.3831C74.0635 34.1276 74.3148 32.7443 75.0282 31.6765C75.828 30.4805 77.013 29.8915 78.3907 29.6083Z" fill="#FEFEFE"/>
<path id="Vector_15" d="M21.5781 107.487C22.3907 107.807 23.1977 108.354 23.9691 108.776C25.4682 109.596 27.0155 110.413 28.5917 111.074C33.2794 113.058 38.1113 114.683 43.0454 115.935C45.7719 116.627 48.5423 117.175 51.2919 117.771C51.1375 119.968 50.8688 122.147 50.6303 124.336C50.4016 126.568 50.1573 128.799 49.8974 131.027C49.8566 131.551 49.7742 132.075 49.7069 132.595C48.0826 131.901 46.5498 130.934 45.0477 130.013C37.2624 125.27 30.3984 119.159 24.7867 111.974C23.6613 110.525 22.4964 109.08 21.5781 107.487Z" fill="#D7E3D2"/>
<path id="Vector_16" d="M41.3041 94.0825C45.7508 92.7473 50.1651 91.2649 54.5851 89.8418C54.4293 91.801 54.1428 93.7566 53.929 95.7107C53.2543 101.88 52.4708 108.05 51.8941 114.228C46.0971 113.18 40.2907 111.732 34.7517 109.714C33.4213 109.23 31.9789 108.744 30.7383 108.061C31.4959 107.577 32.2175 106.882 32.8628 106.26C35.7626 103.464 38.1541 100.136 40.1082 96.6167C40.5286 95.8601 41.0779 94.9805 41.2913 94.1455C41.2967 94.125 41.2999 94.1038 41.3041 94.0825Z" fill="#D7E3D2"/>
<path id="Vector_17" d="M57.7574 94.4539L57.7064 95.4492C58.132 95.2881 58.5524 95.1343 58.9501 94.9102C62.9674 102.39 67.5755 109.912 74.0731 115.502C73.9083 116.52 73.8782 117.562 73.772 118.588L73.1014 124.484C72.9835 125.496 72.9256 126.572 72.6883 127.562C70.5454 127.295 68.3879 126.883 66.2606 126.51C62.2212 125.804 58.1709 125.057 54.1094 124.489C54.1787 122.487 54.4928 120.42 54.7499 118.433C55.1062 115.783 55.4342 113.129 55.7338 110.472L56.7693 101.383C57.0218 99.085 57.1561 96.6914 57.7574 94.4539Z" fill="#D7E3D2"/>
<path id="Vector_18" d="M13.3161 46.3724C15.3358 54.9242 17.3179 63.4957 19.4684 72.015C19.8183 73.4034 20.1587 74.7942 20.4898 76.1873C20.6301 76.7659 20.7378 77.6031 21.0024 78.1231C21.2641 79.2144 21.4953 80.3416 21.8348 81.4109C21.9656 82.27 22.2431 83.1416 22.4555 83.9861C22.8891 85.8076 23.3453 87.6236 23.8239 89.4339C24.0839 90.4592 24.2883 91.5388 24.6136 92.543C24.7454 93.0996 24.8514 93.6812 25.019 94.2276C25.1723 94.9351 25.434 96.0586 26.0009 96.5559C26.3132 96.9917 26.717 97.3213 27.1882 97.5762C27.6981 97.8523 28.2399 97.9981 28.8208 97.96C30.1105 97.8743 31.4594 97.2569 32.6804 96.8518C34.0411 96.3955 35.4074 95.956 36.779 95.5335C36.5779 96.0213 36.2431 96.5003 35.9724 96.9544C33.748 100.688 30.5448 103.829 27.2168 106.577C25.9981 105.869 24.7272 105.25 23.5064 104.544C22.2504 103.818 21.0435 103.001 19.8052 102.245C19.0855 101.806 18.0798 101.362 17.4908 100.768C16.921 100.194 15.8854 97.7571 15.4937 96.9485C11.1262 87.9309 8.4578 77.3365 8.41451 67.3056C8.38661 60.8394 9.6567 55.2791 12.0074 49.2802C12.3297 48.4576 12.7102 46.9839 13.3161 46.3724Z" fill="#D7E3D2"/>
<path id="Vector_19" d="M68.1261 50.1258C70.4497 49.8027 72.6375 49.7134 74.9636 50.1469C75.8975 50.321 77.0576 50.7856 77.9893 50.7417C78.2281 51.1156 79.1963 52.8295 79.4702 52.9917C79.9544 52.5222 80.1228 51.7862 80.5059 51.2561C80.5359 51.2691 80.5659 51.2828 80.596 51.2949C80.8941 51.4145 81.2478 51.3254 81.5584 51.4395C82.7581 51.8798 83.9212 53.1299 84.6836 54.1141C82.1861 54.8369 79.523 55.2565 76.9295 54.8556C76.1062 54.7283 75.3108 54.4592 74.4927 54.3251L74.47 54.3866L74.3755 54.3341L74.3528 54.4315C74.9358 55.0545 77.7241 55.3034 78.5781 55.3331C80.7132 55.4075 82.8518 55.0236 84.888 54.3995C84.8953 54.4182 84.9033 54.4369 84.9107 54.4555C85.1604 55.0415 85.5318 55.5747 85.8064 56.1504C86.5425 57.6917 87.124 59.3537 87.5584 61.0027C88.6006 64.9545 88.7588 69.3832 88.2293 73.4238C87.8572 76.2597 87.2969 79.0891 87.2427 81.958C87.1841 85.0708 87.7876 88.0202 88.4534 91.0408C83.5711 90.0088 78.7129 89.718 73.7508 89.4184C72.5845 89.3481 71.3401 89.0896 70.1838 89.1496C69.4681 88.0226 68.7431 86.9015 68.009 85.7864C69.6887 85.3191 71.4311 84.8943 73.0714 84.3069C74.2378 83.8886 75.0523 83.1789 75.5869 82.051L75.3167 81.8108C75.5291 81.2724 75.6206 80.7261 75.5459 80.1504C75.294 78.2073 74.5462 76.2305 74.0701 74.3276L69.998 58.4686C69.3962 55.8596 68.4678 53.2864 67.9648 50.6651L68.2424 50.6253L68.1261 50.1258Z" fill="#D7E3D2"/>
<path id="Vector_20" d="M68.2424 50.6253C68.918 53.1554 69.6249 55.6816 70.2403 58.2269L74.314 74.0618C74.64 75.3367 74.9736 76.6096 75.3145 77.8806C75.5254 78.6775 75.7847 79.4978 75.8865 80.3167C75.9605 80.9121 75.8177 81.5032 75.5869 82.051L75.3167 81.8108C75.5291 81.2725 75.6206 80.7261 75.5459 80.1504C75.294 78.2073 74.5462 76.2305 74.0701 74.3277L69.998 58.4687C69.3962 55.8596 68.4678 53.2864 67.9648 50.6651L68.2424 50.6253Z" fill="#01000E"/>
<path id="Vector_21" d="M7.94922 22.6033C8.20571 21.4435 8.61602 20.1882 9.68235 19.5137C10.8601 18.7687 14.7832 17.7198 16.299 17.2222L34.6776 11.3029C39.3552 9.81201 44.0054 8.23687 48.6973 6.7899C49.9523 6.40283 51.1853 5.90396 52.4542 5.56894C53.0594 5.40913 53.6264 5.39347 54.2386 5.54144C55.2676 5.79015 56.1435 6.34726 56.6833 7.27816C57.3084 8.35611 57.6536 10.2875 57.9897 11.5424C58.8675 14.8187 59.6771 18.1066 60.5155 21.393C63.0029 31.1436 65.6584 40.8702 67.9626 50.6652C68.4656 53.2865 69.394 55.8597 69.9958 58.4687L74.0679 74.3277C74.5439 76.2305 75.2917 78.2073 75.5437 80.1504C75.6184 80.7261 75.5269 81.2725 75.3145 81.8108L75.5847 82.0511C75.05 83.179 74.2356 83.8887 73.0691 84.3069C71.4289 84.8943 69.6865 85.3191 68.0068 85.7864C68.7409 86.9016 69.4659 88.0227 70.1816 89.1497C71.8588 91.9227 73.8899 94.618 76.2022 96.8943C77.511 98.1505 78.8777 99.2213 80.4502 100.126C82.8086 98.4405 85.1443 96.6636 87.2515 94.6685C88.1311 94.0342 90.5049 91.7813 91.1457 90.9339C91.6394 90.2806 91.9998 89.5064 92.4517 88.8194C93.1116 87.816 93.8791 86.8646 94.6255 85.9249C97.0872 82.8209 100.078 80.1087 103.284 77.7957C103.039 77.5328 102.844 77.2537 102.645 76.9564C103.126 76.0115 105.706 72.1858 106.43 71.5859C107.188 71.6337 107.896 71.8126 108.621 72.0326C109.127 69.8352 109.081 68.1419 108.483 65.9735L108.38 65.7708C107.237 66.1139 105.539 65.8501 104.408 65.5399C102.401 64.9896 100.184 63.8728 99.1248 61.9922C98.7825 61.3918 98.5777 60.7229 98.5249 60.0337C98.3564 57.7569 99.562 52.6309 100.194 50.3172C100.079 50.1424 99.9724 49.9618 99.8755 49.7761C99.1482 48.4163 98.9365 47.0536 99.3892 45.5654C100.656 46.1133 101.923 46.5578 103.303 46.6788C104.047 45.9721 104.627 44.9997 105.266 44.1943C107.775 41.0335 110.048 38.7798 113.949 37.4273C113.889 37.03 113.864 36.6194 113.854 36.2178C113.811 34.5529 114.287 32.8858 115.475 31.6803C116.486 30.6539 117.916 30.1253 119.346 30.1146C121.804 30.0961 123.812 31.3126 125.518 32.9727C126.117 33.4599 126.919 33.3627 127.627 33.581C130 34.1004 132.188 35.2555 133.955 36.9228C134.54 37.4834 135.047 38.1383 135.648 38.6776C135.959 38.9574 136.343 39.1676 136.688 39.4033C137.364 39.8646 137.943 40.5248 138.379 41.214C139.174 42.4718 139.515 43.8085 139.53 45.2871C140.819 46.4784 142.251 48.0947 142.336 49.9468C142.388 51.0629 141.987 51.9467 141.314 52.8039C141.92 53.8854 141.91 54.9437 141.584 56.1121C141.169 57.5994 140.201 58.7756 138.856 59.525C138.389 59.7852 137.885 59.9721 137.388 60.1655C137.657 61.1039 137.709 61.8833 137.229 62.7801C136.422 64.2862 134.663 65.1755 133.083 65.6138C132.702 65.7195 132.294 65.8303 131.901 65.875C130.812 66.1727 129.57 66.1583 128.448 66.1389L127.905 66.2281C125.824 66.8452 123.897 67.41 121.704 67.4935C121.754 67.9247 121.793 68.357 121.892 68.7803C122.945 68.7753 124.91 68.5464 125.718 69.3491C126.714 70.3405 127.735 73.4107 127.721 74.7672C127.718 75.0323 127.674 75.3157 127.705 75.5794C127.803 76.4063 128.2 77.3746 128.425 78.1934C128.954 80.0561 129.422 81.9352 129.83 83.8279C131.474 91.6262 132.062 99.6101 131.578 107.565C131.265 111.144 130.997 117.204 128.375 119.835C128.865 122.799 129.89 135.147 130.971 137.026L130.519 137.305C119.346 145.809 103.083 146.066 89.7454 144.255C88.7522 144.12 87.636 143.835 86.6384 143.86L86.2744 143.753C87.1116 140.51 87.9634 137.249 88.6643 133.975C88.9602 132.887 89.1111 131.752 89.3982 130.657C88.0622 130.313 86.6633 130.113 85.3054 129.871C82.2615 129.327 79.2043 128.857 76.1633 128.293C76.271 126.639 76.498 124.971 76.6973 123.325C76.9397 121.321 77.1689 119.32 77.5264 117.333C76.2498 116.962 75.1438 116.269 74.0723 115.502C67.5747 109.912 62.9666 102.39 58.9493 94.9102C58.3498 93.4966 57.6103 92.1277 57.1773 90.6482C57.312 90.0447 57.549 89.4734 57.7708 88.8978C56.704 89.1915 55.6455 89.5262 54.5849 89.8419C50.1648 91.2649 45.7505 92.7474 41.3039 94.0826C39.8494 94.5396 38.2325 95.1768 36.776 95.5335C35.4044 95.956 34.0381 96.3955 32.6774 96.8519C31.4564 97.2569 30.1075 97.8743 28.8178 97.96C28.2369 97.9981 27.6951 97.8523 27.1853 97.5762C26.714 97.3213 26.3102 96.9918 25.9979 96.556C25.431 96.0587 25.1693 94.9351 25.016 94.2276C24.8484 93.6812 24.7424 93.0997 24.6106 92.543C24.2853 91.5389 24.0809 90.4593 23.8209 89.4339C23.3423 87.6237 22.8862 85.8076 22.4525 83.9861C22.2401 83.1417 21.9626 82.2701 21.8318 81.4109C21.4923 80.3416 21.2611 79.2144 20.9994 78.1231C20.7348 77.6031 20.6271 76.7659 20.4868 76.1873C20.1557 74.7943 19.8153 73.4035 19.4655 72.015C17.3149 63.4958 15.3328 54.9242 13.3131 46.3725C12.7253 43.8971 12.0802 41.4365 11.5113 38.9563L11.7633 38.7411C11.696 38.3251 11.5701 37.9062 11.4681 37.4965C11.4047 36.9823 11.2283 36.4352 11.1116 35.927C11.0389 35.6196 10.9684 35.3117 10.9 35.0034C10.5882 33.8358 10.3079 32.6584 10.0059 31.488C9.92412 30.7079 9.6291 29.8295 9.42541 29.069C9.36396 28.7175 9.24853 28.3695 9.15317 28.0254C8.7666 26.2051 8.14734 24.4638 7.94922 22.6033Z" fill="#000003"/>
<path id="Vector_22" d="M94.5374 86.6653C94.4546 87.3098 93.2271 88.5425 92.8608 89.1379C93.2703 88.7461 93.8555 87.9888 94.3066 87.7148L94.4216 87.7368C94.0664 88.3835 92.6829 89.573 92.0977 90.1252C92.7715 88.894 93.6328 87.7375 94.5374 86.6653Z" fill="#E9AA6E"/>
<path id="Vector_23" d="M121.984 68.9965C122.559 68.9698 124.641 68.9725 125.054 69.3166C125.208 69.4453 125.184 69.5353 125.178 69.7147C125.016 70.051 124.686 70.2711 124.404 70.5065C123.826 70.9023 123.231 71.2973 122.585 71.5729C122.304 70.7365 122.124 69.8669 121.984 68.9965Z" fill="#25223D"/>
<path id="Vector_24" d="M115.965 62.2685C116.226 62.2577 116.454 62.2646 116.701 62.3593C117.059 62.4967 117.355 62.7369 117.496 63.1019C117.618 63.4185 117.581 63.7592 117.433 64.0598C117.215 64.5014 116.842 64.6719 116.399 64.8278C116.099 64.8343 115.804 64.8352 115.527 64.7049C115.219 64.5597 114.955 64.269 114.842 63.9471C114.73 63.624 114.755 63.2858 114.917 62.9845C115.14 62.5677 115.531 62.3927 115.965 62.2685Z" fill="#D7E3D2"/>
<path id="Vector_25" d="M65.3427 82.7065C66.103 82.949 67.3406 85.2773 67.7865 86.0171C66.9387 86.2156 66.2505 86.4771 65.4812 86.8872C64.9097 85.979 64.3965 84.6987 63.6022 83.9802L63.4741 84.063L63.4817 84.0103C63.4557 84.5823 64.8114 86.428 65.1737 87.0608C64.6601 87.4057 64.1536 87.7612 63.6548 88.1272C63.3511 87.4995 61.9297 85.2041 61.3124 84.9727C61.3395 85.5059 63.018 87.7039 63.4376 88.3037C62.9099 88.7542 62.4174 89.2354 61.9226 89.7209C61.4138 89.0728 60.6859 87.5596 60.0777 87.1611L59.9608 87.2058L59.9665 87.4182C60.5007 88.2839 61.1449 89.0771 61.7134 89.9209C61.2908 90.5156 60.9117 91.1448 60.5211 91.7615C60.1766 91.1902 59.0575 89.0522 58.5221 88.9058C58.4933 89.5518 59.9194 91.448 60.3761 91.9907C60.1013 92.521 59.9047 93.2776 59.5456 93.7383C59.4466 93.865 59.4122 93.8665 59.2625 93.8899C58.562 93.5684 57.807 91.3543 57.4727 90.5772C57.7836 89.603 58.1825 88.4934 58.7199 87.6211C60.1877 85.2393 62.6048 83.3372 65.3427 82.7065Z" fill="#FEB75B"/>
<path id="Vector_26" d="M130.254 88.6091C130.298 88.9907 130.399 89.3833 130.46 89.7664C130.802 91.8517 131.053 93.9508 131.214 96.0579C131.605 101.672 131.523 111.598 129.727 116.8C129.41 117.716 128.989 118.542 128.421 119.325L128.374 119.343C128.009 118.841 127.375 110.844 127.438 110.013C127.516 108.973 128.033 107.817 128.318 106.805C128.672 105.506 128.965 104.191 129.194 102.864C129.785 99.5553 130.135 96.2075 130.239 92.8477C130.286 91.4348 130.201 90.0212 130.254 88.6091Z" fill="#FEB75B"/>
<path id="Vector_27" d="M61.1645 33.1462C61.283 33.5421 61.3953 33.9397 61.5015 34.3391C61.6371 34.8842 61.7592 35.4384 61.9401 35.9705C62.1068 36.696 62.2437 37.4916 62.5164 38.1816L62.5937 38.1562L62.6527 38.254L62.8297 38.1556C63.2066 39.9038 63.7879 42.3157 64.3365 43.9975L64.1559 44.5435C64.6745 46.5242 65.1827 48.5076 65.6805 50.4937C65.8832 51.2999 66.2111 52.228 66.2913 53.0474C65.085 53.4392 63.8348 53.7901 62.5959 54.0608C61.7659 51.1148 61.0599 48.1377 60.2637 45.1832C59.2864 41.5563 58.2164 37.9305 57.4375 34.2548C58.6724 33.8616 59.9315 33.5469 61.1645 33.1462Z" fill="#FEFEFE"/>
<path id="Vector_28" d="M62.5156 38.1817L62.593 38.1562L62.6519 38.254L62.829 38.1556C63.2059 39.9038 63.7871 42.3157 64.3358 43.9975L64.1551 44.5435C63.5918 42.433 62.9818 40.3157 62.5156 38.1817Z" fill="#000003"/>
<path id="Vector_29" d="M66.283 53.4393C66.4932 53.6687 66.6133 54.2287 66.6423 54.5435C66.6433 54.5552 66.6412 54.5669 66.6406 54.5786L66.7452 54.8511L67.0232 54.76L68.3162 59.7419C68.515 60.517 68.8123 61.382 68.896 62.1702L69.1271 62.9699L68.9182 63.4549C69.4387 65.5398 69.9457 67.628 70.4392 69.7194C70.5453 70.1533 70.7425 70.6925 70.7426 71.1335L70.8641 71.4097C71.5042 73.9248 72.251 76.4656 72.6728 79.0291C72.5678 79.4407 72.466 79.8501 72.326 80.2522C72.2241 80.4478 72.1209 80.6448 72.0053 80.833C71.752 81.2461 71.4224 81.5684 71.0061 81.8174C69.9896 82.4238 67.5702 82.9709 66.3643 83.25C65.9586 82.834 65.6833 82.5073 65.0891 82.3879C64.6759 81.5815 64.1384 80.8916 63.5857 80.1782C65.2489 79.5352 67.0289 79.2078 68.6978 78.5662C68.4641 76.9131 67.8594 75.2673 67.4864 73.6355C66.0165 67.2025 64.2346 60.8429 62.7109 54.4238C63.8953 54.0729 65.0862 53.7447 66.283 53.4393Z" fill="#FEFEFE"/>
<path id="Vector_30" d="M66.7461 54.8511L67.0241 54.76L68.3171 59.7419C68.5159 60.517 68.8132 61.382 68.8969 62.1702L69.128 62.9699L68.9191 63.4549L68.644 62.3917C68.5043 61.4814 68.2079 60.5527 67.9782 59.6584L66.7461 54.8511Z" fill="#01000E"/>
<path id="Vector_31" d="M64.5746 63.1473C65.4435 66.824 66.4001 70.4809 67.2982 74.1511C67.6433 75.561 68.0374 76.9556 68.3251 78.3786C66.6736 78.9097 64.9698 79.3103 63.3347 79.8816C59.1328 74.7334 55.8698 72.7582 49.9844 69.8649C51.5515 68.9089 53.8428 67.9096 55.5398 67.1252C58.5175 65.749 61.5305 64.3705 64.5746 63.1473Z" fill="#D7E3D2"/>
<path id="Vector_32" d="M61.5296 66.7301C61.7776 66.713 62.0284 66.6963 62.2761 66.7284C62.6565 66.7776 62.9913 66.999 63.2159 67.3064C63.6948 67.9619 63.5791 68.8845 63.435 69.634C63.3356 70.1506 63.0929 71.274 62.643 71.5806C61.9441 70.9901 61.2554 70.4179 60.8187 69.596C60.5313 69.0552 60.3147 68.3495 60.516 67.7438C60.6905 67.2184 61.0616 66.9752 61.5296 66.7301Z" fill="#F47E63"/>
<path id="Vector_33" d="M61.8842 67.4539C61.9555 67.4558 61.9671 67.4546 62.0472 67.4653C62.2843 67.4972 62.4735 67.5649 62.6189 67.7656C62.742 67.9356 62.7768 68.1341 62.7464 68.3393C62.6892 68.7246 62.4847 68.9341 62.186 69.1616C62.1049 69.1623 62.0237 69.1627 61.9428 69.1566C61.7268 69.1402 61.536 69.0291 61.412 68.85C61.2992 68.6869 61.2672 68.4922 61.2941 68.299C61.352 67.8831 61.5546 67.6883 61.8842 67.4539Z" fill="#FEFEFE"/>
<path id="Vector_34" d="M45.314 67.7336C45.4824 67.735 45.6588 67.7366 45.82 67.7906C46.8933 68.1505 48.2454 69.3497 49.3281 69.9287C50.5889 70.6028 51.913 71.1503 53.1661 71.8417C56.8421 73.8699 59.6505 76.0005 62.3692 79.2026C63.2416 80.2302 64.0728 81.2878 64.7218 82.4744C61.8808 83.2031 59.5422 85.5154 58.0537 87.9529C56.5925 85.5872 54.0807 84.4915 51.6188 83.4573C50.8597 83.1482 50.0653 82.8633 49.3744 82.4165C48.8744 82.0935 48.356 81.605 48.2454 80.9927C48.2017 80.7502 48.2437 80.5437 48.3952 80.3445C49.1703 79.3279 51.1556 80.3716 52.0198 80.2617L52.0255 80.1621C51.3131 79.4084 49.7963 79.8669 48.7567 78.7427L48.6879 78.6672C48.6338 78.252 48.6205 77.8206 48.6168 77.4023C48.614 77.0779 48.6576 76.585 48.9358 76.3689C49.5972 75.8555 51.8344 77.4844 52.6931 77.5847C52.8329 77.6016 52.7775 77.6155 52.8822 77.5298C52.6061 76.7856 49.8234 76.4736 49.3093 75.5237C49.1753 75.2761 49.1711 75.0505 49.2704 74.7927C49.519 74.1497 50.0654 73.8274 50.6673 73.5703C51.9687 74.1636 53.8649 75.3992 55.0452 75.7676C54.2147 74.6975 51.8998 73.7754 50.6995 73.0304C49.3223 72.1755 47.9527 71.2529 46.6842 70.242C46.1738 69.8352 45.0119 68.9778 45.0001 68.2628C44.9963 68.032 45.1656 67.8855 45.314 67.7336Z" fill="#9F766E"/>
<path id="Vector_35" d="M125.598 69.7783C126.508 70.5611 127.314 73.6787 127.419 74.8659C127.409 74.8908 127.399 74.9157 127.388 74.9407C126.472 77.1057 124.103 78.9638 121.981 79.842C118.224 81.3969 114.304 80.9509 110.455 80.0185C108.812 79.6201 107.248 79.1689 105.687 78.5141C104.797 78.1325 103.795 77.6719 103.062 77.0332C103.636 75.8525 105.146 73.6816 105.984 72.6336C106.232 72.3243 106.464 72.0362 106.89 72.0423C107.916 72.0568 109.12 72.6166 110.116 72.8918C112.547 73.5637 115.124 73.6545 117.623 73.3711C120.362 73.0601 123.808 72.0183 125.598 69.7783Z" fill="#FEB75B"/>
<path id="Vector_36" d="M122.402 73.7937L122.676 73.8296C122.739 73.8962 122.796 73.9556 122.844 74.0354C123.215 74.6543 123.992 76.6531 123.839 77.3181C123.802 77.2954 123.763 77.2749 123.729 77.2485C123.564 77.1248 122.415 74.0896 122.402 73.7937Z" fill="#000003"/>
<path id="Vector_37" d="M124.726 72.3328C124.828 72.4021 124.873 72.4405 124.934 72.5521C125.162 72.9722 125.807 75.0667 125.888 75.5691C125.911 75.709 125.876 75.8079 125.827 75.9368C125.381 75.6123 124.779 73.5183 124.629 72.9124C124.564 72.6492 124.585 72.563 124.726 72.3328Z" fill="#000003"/>
<path id="Vector_38" d="M119.733 74.6514L119.938 74.7056C120.212 75.134 120.634 77.9905 120.627 78.5881C120.527 78.5574 120.393 78.55 120.335 78.457C120.098 78.0791 119.671 75.1458 119.733 74.6514Z" fill="#000003"/>
<path id="Vector_39" d="M110.779 74.2866L110.972 74.3708C111.078 74.7832 109.991 77.4587 109.778 78.1077C109.657 78.0571 109.57 77.9993 109.466 77.9187C109.435 77.3921 110.492 74.8271 110.779 74.2866Z" fill="#000003"/>
<path id="Vector_40" d="M114.156 74.7209C114.296 74.7363 114.379 74.7642 114.502 74.8308C114.496 75.7515 114.019 78.0688 113.855 79.1543C113.724 79.1235 113.667 79.0964 113.569 79.0042C113.396 78.301 114.02 75.5332 114.156 74.7209Z" fill="#000003"/>
<path id="Vector_41" d="M108.171 73.3345C108.332 73.3704 108.336 73.3513 108.46 73.4773C108.379 74.0735 106.864 76.6897 106.493 77.3979C106.362 77.3782 106.356 77.3481 106.262 77.2625C106.244 76.6655 107.788 74.0552 108.171 73.3345Z" fill="#000003"/>
<path id="Vector_42" d="M117.199 74.8389C117.293 74.8945 117.347 74.9004 117.389 75.0088C117.58 75.4907 118.107 78.8855 117.98 79.2349C117.916 79.2144 117.864 79.2004 117.804 79.1646C117.502 78.9844 117.177 76.1733 117.104 75.6167C117.064 75.3098 117.003 75.093 117.199 74.8389Z" fill="#000003"/>
<path id="Vector_43" d="M77.5271 117.333C81.1387 118.367 86.0356 116.394 89.333 114.858C90.2353 114.438 91.1062 113.914 92.0166 113.522C91.7017 116.832 91.3662 120.119 90.8088 123.4C90.3965 125.829 89.8098 128.231 89.3989 130.657C88.063 130.313 86.6641 130.113 85.3061 129.871C82.2622 129.327 79.2051 128.856 76.1641 128.293C76.2717 126.639 76.4988 124.971 76.698 123.324C76.9404 121.321 77.1697 119.32 77.5271 117.333Z" fill="#D7E3D2"/>
<path id="Vector_44" d="M19.8728 45.5475C19.3661 43.2449 18.7676 40.959 18.1946 38.672C17.8897 37.4551 17.5155 36.2133 17.3316 34.9735C17.2905 34.6961 17.2278 34.3898 17.3666 34.13C17.4861 33.9061 17.6632 33.684 17.8987 33.5794C18.6335 33.2531 19.4713 33.0469 20.2396 32.805L24.6795 31.4111C29.0154 30.0495 33.3419 28.6174 37.6973 27.3229C37.3897 31.7014 36.5496 34.2235 33.1649 37.153C29.8477 40.0239 26.0023 42.2556 22.1561 44.3374C21.6908 44.5892 20.1378 45.2459 19.8728 45.5475Z" fill="#D7E3D2"/>
<path id="Vector_45" d="M25.8561 33.2765C26.1127 33.3012 26.3293 33.341 26.552 33.4785C26.9361 33.7156 27.1575 34.1047 27.243 34.5419C27.4219 35.4561 26.8945 37.4027 26.3863 38.1685L26.2889 38.1828L25.9709 37.914C25.6395 37.5703 25.305 37.228 24.9842 36.8744C24.2764 36.0939 24.0462 35.4971 24.0965 34.4507C24.1547 34.3463 24.2147 34.2426 24.2837 34.1448C24.6869 33.5742 25.1845 33.3761 25.8561 33.2765Z" fill="#F47E63"/>
<path id="Vector_46" d="M25.1676 34.0578C25.2737 34.0487 25.3801 34.0398 25.4866 34.0378C25.717 34.0333 26.0129 34.1215 26.1623 34.3117C26.2766 34.4571 26.3233 34.5948 26.2905 34.7812C26.2483 35.0221 26.0535 35.1701 25.877 35.3163L25.8221 35.3241C25.5413 35.3616 25.2472 35.3737 25.0231 35.166C24.8835 35.0366 24.8071 34.9014 24.8086 34.7068C24.8108 34.4137 24.9747 34.2485 25.1676 34.0578Z" fill="#FEFEFE"/>
<path id="Vector_47" d="M7.94922 22.6033C8.20571 21.4435 8.61602 20.1882 9.68235 19.5137C10.8601 18.7687 14.7832 17.7198 16.299 17.2222L34.6776 11.3029C39.3552 9.81201 44.0054 8.23687 48.6973 6.7899C49.9523 6.40283 51.1853 5.90396 52.4542 5.56894C53.0595 5.40913 53.6264 5.39347 54.2387 5.54144C55.2676 5.79015 56.1435 6.34726 56.6833 7.27816C57.3085 8.35611 57.6536 10.2875 57.9898 11.5424C58.8675 14.8187 59.6771 18.1066 60.5155 21.393C63.0029 31.1436 65.6584 40.8702 67.9626 50.6652C68.4656 53.2865 69.394 55.8597 69.9958 58.4687L74.0679 74.3277C74.544 76.2305 75.2917 78.2073 75.5437 80.1504C75.6184 80.7261 75.5269 81.2725 75.3145 81.8108C75.2332 82.0042 75.1504 82.1968 75.0449 82.3785C74.7651 82.8643 74.369 83.273 73.8921 83.5679C72.6513 84.3472 69.3153 85.1038 67.7909 85.5411C67.3954 84.8489 66.9644 84.1758 66.5452 83.4983C67.5467 83.3313 68.5693 82.9878 69.5471 82.7073C71.0544 82.2737 71.7238 81.9419 72.5102 80.524L72.3246 80.2522C72.4646 79.8501 72.5664 79.4407 72.6714 79.0291C72.2496 76.4656 71.5028 73.9249 70.8627 71.4097L70.7412 71.1336C70.7411 70.6925 70.5439 70.1533 70.4379 69.7194C69.9443 67.628 69.4373 65.5398 68.9168 63.455L69.1257 62.97L68.8946 62.1703C68.8109 61.3821 68.5136 60.5171 68.3148 59.7419L67.0218 54.7601L66.7438 54.8511L66.6392 54.5787C66.6398 54.5669 66.6419 54.5552 66.6409 54.5436C66.6119 54.2288 66.4919 53.6687 66.2816 53.4394L66.3055 53.4099C66.3498 53.2388 66.337 53.2105 66.2898 53.0475C66.2096 52.2281 65.8817 51.3 65.679 50.4938C65.1813 48.5077 64.673 46.5243 64.1544 44.5435L64.3351 43.9976C63.7864 42.3158 63.2052 39.9039 62.8283 38.1556L62.6512 38.2541L62.5923 38.1563L62.5149 38.1817C62.2423 37.4917 62.1053 36.6961 61.9386 35.9705C61.7577 35.4385 61.6356 34.8843 61.5 34.3391C61.3939 33.9398 61.2815 33.5422 61.163 33.1463L61.1195 32.9915L60.8739 32.903L61.0229 32.8484C61.1198 32.4052 60.6567 31.113 60.5164 30.6016C60.3404 30.0568 60.2124 29.4888 60.0656 28.935L59.925 28.347L60.1566 27.9863C59.8868 27.0972 59.6618 26.1788 59.4472 25.2745C59.1338 24.284 58.9363 23.2585 58.6434 22.2612C58.4986 21.1259 58.0175 19.8691 57.7022 18.7582C57.0937 16.6288 56.6389 14.4626 56.0266 12.3366C55.8213 11.5107 55.6504 10.6407 55.3346 9.84944C55.0633 9.16961 54.6274 8.57422 53.9299 8.29473C53.4427 8.09954 52.9007 8.0698 52.3839 8.12759C51.0609 8.27547 49.616 8.92256 48.3462 9.33418C47.368 9.65125 46.3435 9.91177 45.3903 10.2922C43.8052 10.6744 42.2262 11.2788 40.6735 11.7834C37.6357 12.7707 34.5977 13.7713 31.5472 14.7177L18.7935 18.7817C16.5907 19.4812 14.2449 20.024 12.1152 20.9204C11.63 21.1246 11.1688 21.4738 10.8988 21.934C10.559 22.5132 10.3172 23.3972 10.4024 24.0626C10.5208 24.9887 10.821 25.9536 11.0393 26.8632C11.5559 28.9977 12.0857 31.1291 12.6288 33.2571L17.0395 51.5087L23.8958 79.7139C24.6229 82.7365 25.3772 85.7525 26.1585 88.7615C26.4807 90.0542 26.71 91.4034 27.0928 92.6763C27.3089 93.3956 27.7046 94.095 28.3823 94.4656C29.262 94.9461 30.0067 94.8963 30.926 94.6026L56.3493 86.4339C57.0012 87.0652 57.4614 87.7002 57.9049 88.4883C51.6067 90.4158 45.3288 92.4093 39.0723 94.4686C37.1853 95.0889 35.2795 95.65 33.394 96.2718C32.0556 96.7134 30.6402 97.3316 29.255 97.5806C28.5749 97.7037 27.9331 97.5997 27.3191 97.2818C27.0004 97.117 26.7386 96.9083 26.476 96.6658L25.9979 96.556C25.431 96.0586 25.1693 94.9351 25.016 94.2276C24.8484 93.6812 24.7424 93.0997 24.6106 92.543C24.2853 91.5389 24.0809 90.4593 23.8209 89.4339C23.3423 87.6237 22.8862 85.8076 22.4525 83.9861C22.2401 83.1416 21.9626 82.2701 21.8318 81.4109C21.4923 80.3416 21.2611 79.2144 20.9994 78.1231C20.7348 77.6031 20.6272 76.7659 20.4868 76.1873C20.1557 74.7943 19.8153 73.4035 19.4655 72.015C17.3149 63.4958 15.3328 54.9242 13.3131 46.3725C12.7253 43.8971 12.0802 41.4365 11.5113 38.9563L11.7633 38.7411C11.696 38.3251 11.5701 37.9062 11.4681 37.4965C11.4047 36.9823 11.2283 36.4352 11.1116 35.927C11.0389 35.6196 10.9684 35.3117 10.9 35.0034C10.5882 33.8358 10.3079 32.6584 10.0059 31.488C9.92412 30.7079 9.6291 29.8295 9.42542 29.069C9.36396 28.7175 9.24854 28.3695 9.15317 28.0254C8.7666 26.2051 8.14734 24.4638 7.94922 22.6033Z" fill="#3D547E"/>
<path id="Vector_48" d="M66.628 53.186C66.7247 53.5643 66.8517 53.9579 66.9176 54.3415L67.0214 54.76L66.7434 54.8511L66.6388 54.5786C66.6394 54.5669 66.6415 54.5552 66.6405 54.5435C66.6115 54.2287 66.4915 53.6686 66.2812 53.4393L66.3051 53.4098C66.4542 53.3578 66.5138 53.2914 66.628 53.186Z" fill="#000003"/>
<path id="Vector_49" d="M61.5 34.3391L61.79 34.2582L62.2433 35.8881C62.117 35.9532 62.0858 35.9711 61.9386 35.9705C61.7577 35.4385 61.6356 34.8843 61.5 34.3391Z" fill="#000003"/>
<path id="Vector_50" d="M60.1574 27.9862C60.207 28.1845 60.2501 28.3886 60.3085 28.5843C60.4496 29.188 60.6007 29.7892 60.7618 30.3878L60.6096 30.3792C60.5696 30.4564 60.5375 30.5164 60.5171 30.6015C60.3411 30.0568 60.2132 29.4888 60.0663 28.935L59.9258 28.347L60.1574 27.9862Z" fill="#000003"/>
<path id="Vector_51" d="M62.2461 35.8881C62.4083 36.6464 62.6083 37.4127 62.8311 38.1556L62.6541 38.254L62.5951 38.1562L62.5178 38.1816C62.2451 37.4916 62.1081 36.696 61.9414 35.9705C62.0886 35.971 62.1198 35.9532 62.2461 35.8881Z" fill="#01000E"/>
<path id="Vector_52" d="M21.0744 77.2712C21.4782 78.5142 21.9013 79.9541 22.0746 81.2512C22.0499 81.2256 22.0236 81.2014 22.0002 81.1743C21.901 81.0586 21.8791 80.9766 21.842 80.8337L21.8324 81.4109C21.4928 80.3416 21.2617 79.2144 21 78.123L21.1693 78.353C21.2763 78.0637 21.0081 77.6243 21.0744 77.2712Z" fill="#000003"/>
<path id="Vector_53" d="M60.5195 30.6016C60.5399 30.5165 60.572 30.4565 60.612 30.3793L60.7642 30.3878C61.1238 31.6625 61.5329 32.9603 61.7931 34.2582L61.5032 34.3391C61.397 33.9398 61.2847 33.5421 61.1662 33.1463L61.1226 32.9915L60.877 32.903L61.026 32.8484C61.1229 32.4051 60.6599 31.1129 60.5195 30.6016Z" fill="#01000E"/>
<path id="Vector_54" d="M69.1269 62.9699C69.6503 65.1965 70.2364 67.4112 70.7363 69.6429L71.0125 70.8274L71.2006 71.5286C71.0462 71.4043 71.0586 71.3919 70.8639 71.4097L70.7424 71.1336C70.7423 70.6925 70.545 70.1533 70.439 69.7194C69.9454 67.628 69.4384 65.5398 68.918 63.4549L69.1269 62.9699Z" fill="#000003"/>
<path id="Vector_55" d="M64.3369 43.9976C65.1181 47.0524 65.9308 50.1117 66.6302 53.1861C66.516 53.2914 66.4564 53.3578 66.3074 53.4098C66.3516 53.2388 66.3389 53.2105 66.2917 53.0474C66.2115 52.2281 65.8836 51.3 65.6809 50.4938C65.1831 48.5077 64.6749 46.5242 64.1562 44.5435L64.3369 43.9976Z" fill="#01000E"/>
<path id="Vector_56" d="M70.8633 71.4096C71.058 71.3918 71.0456 71.4042 71.2001 71.5286C71.8522 73.812 72.6079 76.5227 72.9119 78.8745C72.8891 79.4868 72.7682 79.9673 72.5108 80.5239L72.3252 80.2522C72.4652 79.8501 72.567 79.4406 72.672 79.029C72.2501 76.4655 71.5033 73.9248 70.8633 71.4096Z" fill="#01000E"/>
<path id="Vector_57" d="M21.832 81.4109L21.8416 80.8337C21.8788 80.9766 21.9006 81.0586 21.9998 81.1743C22.0232 81.2014 22.0495 81.2256 22.0742 81.2512C22.3251 81.9587 22.4767 82.719 22.6386 83.4521L24.9329 92.5166C25.0723 93.1304 25.2054 93.7456 25.354 94.3572C25.6042 95.2507 25.8761 95.9443 26.4762 96.6658L25.9981 96.5559C25.4312 96.0586 25.1695 94.9351 25.0162 94.2275C24.8486 93.6812 24.7426 93.0996 24.6108 92.543C24.2855 91.5388 24.0811 90.4592 23.8211 89.4338C23.3425 87.6236 22.8864 85.8076 22.4527 83.9861C22.2403 83.1416 21.9628 82.27 21.832 81.4109Z" fill="#01000E"/>
<path id="Vector_58" d="M11.5117 38.9563L11.7637 38.741L17.6156 62.9594C18.535 66.63 19.4812 70.3063 20.306 73.9995C20.5434 75.0623 20.9452 76.1983 21.0743 77.2713C21.0079 77.6243 21.2761 78.0637 21.1691 78.353L20.9999 78.1231C20.7353 77.603 20.6276 76.7659 20.4873 76.1873C20.1562 74.7942 19.8157 73.4034 19.4659 72.015C17.3154 63.4957 15.3333 54.9242 13.3135 46.3724C12.7257 43.8971 12.0806 41.4365 11.5117 38.9563Z" fill="#01000E"/>
<path id="Vector_59" d="M113.952 37.4272C113.892 37.0299 113.867 36.6193 113.857 36.2177C113.814 34.5528 114.289 32.8857 115.477 31.6802C116.489 30.6538 117.919 30.1252 119.349 30.1145C121.807 30.0961 123.815 31.3125 125.521 32.9726L125.227 33.1126C123.602 31.5222 121.68 30.4062 119.34 30.447C117.93 30.4715 116.587 30.9894 115.614 32.027C114.527 33.1852 114.122 34.6818 114.182 36.2434C114.195 36.6231 114.227 37.0019 114.277 37.3785C115.29 37.2115 117.239 37.0353 118.111 37.6769C118.271 37.7946 118.357 37.9368 118.379 38.136C118.438 38.6883 117.942 39.578 117.824 40.1539C117.657 41.918 118.024 43.5093 118.863 45.0693L118.45 44.9193C118.904 45.842 119.449 46.5394 120.193 47.2473C119.449 49.9506 117.73 52.6254 117.669 55.489C119.117 55.3667 120.653 55.1769 121.841 56.2286C122.374 56.6994 122.676 57.3409 122.69 58.0517C122.714 59.2254 122.041 60.5726 121.202 61.3785C120.425 62.1255 119.397 62.4321 118.337 62.3896C117.572 62.3589 116.865 62.1099 116.146 61.8718C116.145 61.5912 116.204 61.2616 116.058 61.0212C115.88 61.0481 115.882 61.0463 115.763 61.1822C115.73 61.4548 115.855 61.7904 115.644 61.9739C115.182 62.3794 114.535 62.5624 114.389 63.2502C114.288 63.7298 114.557 64.3054 114.842 64.6766C115.065 64.9682 115.581 65.1866 115.94 65.2137C116.206 65.2326 116.473 65.1971 116.724 65.1095C116.976 65.0218 117.207 64.8838 117.403 64.7038C117.74 64.3916 117.931 63.9252 117.945 63.4683C117.952 63.233 117.887 63.0419 117.804 62.8249C118.562 62.6628 119.319 62.7845 120.101 62.5679C120.142 64.1609 120.349 66.1796 121.4 67.4718C121.477 68.9482 121.874 70.3191 122.287 71.7283C118.148 73.6347 113.252 73.5132 108.967 72.1924C109.404 70.4179 109.513 68.8427 109.14 67.0428C109.071 66.7089 108.993 66.212 108.798 65.9291C108.782 65.9056 108.762 65.8856 108.744 65.8639C108.579 65.87 108.62 65.8404 108.486 65.9735L108.383 65.7707C107.24 66.1139 105.541 65.85 104.411 65.5398C102.404 64.9895 100.187 63.8727 99.1275 61.9922C98.7853 61.3917 98.5805 60.7228 98.5277 60.0337C98.3592 57.7569 99.5648 52.6309 100.197 50.3171C100.082 50.1423 99.9752 49.9617 99.8783 49.776C99.151 48.4162 98.9393 47.0535 99.392 45.5653C100.658 46.1132 101.925 46.5578 103.306 46.6787C104.049 45.972 104.629 44.9996 105.269 44.1942C107.778 41.0334 110.051 38.7797 113.952 37.4272Z" fill="#9F766E"/>
<path id="Vector_60" d="M106.993 50.7857C107.284 50.7305 107.625 50.695 107.908 50.8042C108.217 50.9235 108.523 51.127 108.656 51.4417C108.775 51.7213 108.783 51.9952 108.667 52.272C108.397 52.0606 108.376 51.7259 108.227 51.4344C107.97 50.9306 107.424 51.1099 106.988 50.9375L106.993 50.7857Z" fill="#000003"/>
<path id="Vector_61" d="M110.641 41.9227C110.802 41.8964 110.968 41.8679 111.131 41.8955C111.565 41.9687 111.908 42.2469 112.141 42.6106C112.547 43.2439 112.743 44.3531 112.587 45.0933C112.553 45.0831 112.463 45.0585 112.437 45.0383C112.108 44.7798 112.244 43.3807 111.993 42.9172C111.736 42.4391 111.169 42.2219 110.684 42.0574L110.641 41.9227Z" fill="#000003"/>
<path id="Vector_62" d="M118.486 58.5403C118.509 58.5453 118.534 58.5484 118.558 58.5552C118.761 58.6141 119.015 58.8144 119.108 59.0109C119.195 59.1945 119.202 59.3544 119.135 59.5454C119.052 59.7863 118.817 59.9789 118.591 60.0793C118.031 60.3287 117.491 60.1822 116.946 59.9675C116.851 59.8463 116.825 59.7306 116.785 59.5836L116.856 59.4765C117.405 59.597 117.855 59.93 118.444 59.8362C118.547 59.7648 118.617 59.7412 118.67 59.6218C118.833 59.2551 118.621 58.8846 118.486 58.5403Z" fill="#000003"/>
<path id="Vector_63" d="M119.296 57.2194C119.383 57.2136 119.471 57.2087 119.559 57.2106C119.842 57.2169 120.405 57.3246 120.59 57.5613C120.651 57.6402 120.611 57.6981 120.593 57.7868C120.349 57.8369 120.046 57.6971 119.808 57.6343C119.185 57.4704 118.6 57.7177 118.071 58.0317L117.979 58.0873C117.771 58.2593 117.548 58.4765 117.31 58.6011C117.185 58.6662 117.161 58.6831 117.027 58.6337C117.038 58.5449 117.058 58.4845 117.111 58.411C117.608 57.7187 118.489 57.3796 119.296 57.2194Z" fill="#000003"/>
<path id="Vector_64" d="M117.589 39.8648L117.66 39.9436L117.712 39.821L117.619 39.8722L117.719 39.9472L117.755 39.7973L117.823 40.1539C117.656 41.918 118.023 43.5094 118.862 45.0693L118.449 44.9193C118.416 44.8701 118.382 44.8214 118.353 44.7701C117.585 43.4218 117.186 41.3783 117.589 39.8648Z" fill="#01000E"/>
<path id="Vector_65" d="M108.22 45.6266C108.269 45.6247 108.318 45.6218 108.367 45.6209C108.564 45.617 108.743 45.6629 108.869 45.829C109.015 46.0215 109.014 46.3031 108.973 46.5301C108.845 47.2231 108.46 47.7779 107.88 48.1581C107.637 48.2082 107.499 48.2232 107.281 48.0968C107.112 47.8822 107.098 47.6989 107.133 47.4381C107.184 47.0789 107.307 46.7336 107.494 46.4225C107.68 46.1115 107.928 45.8408 108.22 45.6266Z" fill="#000003"/>
<path id="Vector_66" d="M113.952 37.4272C113.892 37.0299 113.867 36.6193 113.857 36.2177C113.814 34.5528 114.289 32.8857 115.477 31.6802C116.489 30.6538 117.919 30.1252 119.349 30.1145C121.807 30.0961 123.815 31.3125 125.521 32.9726L125.227 33.1126C123.602 31.5222 121.68 30.4062 119.34 30.447C117.93 30.4715 116.587 30.9894 115.614 32.027C114.527 33.1852 114.122 34.6818 114.182 36.2434C114.195 36.6231 114.227 37.0019 114.277 37.3785C115.29 37.2115 117.239 37.0353 118.111 37.6769C118.271 37.7946 118.357 37.9368 118.379 38.136C118.438 38.6883 117.942 39.578 117.824 40.1539L117.757 39.7973L117.72 39.9471L117.62 39.8722L117.713 39.821L117.661 39.9436L117.59 39.8647C117.595 39.8394 117.599 39.8141 117.604 39.7889C117.699 39.2907 118.192 38.4208 117.954 37.9875C117.202 37.4903 115.18 37.5485 114.287 37.7269C109.931 38.5979 105.942 43.4971 103.529 47.0265C102.144 46.951 100.836 46.5496 99.5626 46.0114C99.4369 46.7515 99.4588 47.5093 99.6271 48.2409C99.7954 48.9726 100.107 49.6637 100.543 50.2746L100.599 50.3523C101.038 50.4205 101.484 50.4561 101.881 50.6661L101.939 50.7796C101.536 50.9644 100.927 50.7096 100.524 50.5922C100.137 51.4741 99.9706 52.4279 99.7757 53.3661C101.342 54.022 103.009 54.406 104.717 54.1995C105.444 54.1116 106.162 53.9502 106.889 53.8661C107.179 53.8325 107.232 53.8435 107.396 54.0795C107.457 54.6373 106.92 55.2321 106.587 55.644C105.503 56.986 103.816 58.3703 102.044 58.574C101.644 58.62 101.111 58.5942 100.797 58.3021C100.651 58.1658 100.548 58.0091 100.53 57.805C100.502 57.4776 100.69 57.1974 100.921 56.9851C101.257 56.6744 101.706 56.5347 102.128 56.3781C101.692 55.9489 101.197 55.5593 100.801 55.0936C100.392 54.6129 100.422 54.0035 99.8204 53.7003L99.7054 53.7338C99.4278 54.4506 98.8331 58.9171 98.8507 59.7299C98.8604 60.2924 98.9811 60.8475 99.2059 61.3633C99.9471 63.0693 101.766 64.2402 103.443 64.8804C105.789 65.7754 108.15 65.7653 110.441 64.7287C111.219 64.3768 111.972 63.6636 112.721 63.4082L112.831 63.4514C112.793 63.6957 112.607 63.8386 112.417 63.9781C111.297 64.8027 109.753 65.5065 108.383 65.7707C107.24 66.1139 105.541 65.85 104.411 65.5398C102.404 64.9895 100.187 63.8727 99.1275 61.9922C98.7853 61.3917 98.5805 60.7228 98.5277 60.0337C98.3592 57.7569 99.5648 52.6309 100.197 50.3171C100.082 50.1423 99.9752 49.9617 99.8783 49.776C99.151 48.4162 98.9393 47.0535 99.392 45.5653C100.658 46.1132 101.925 46.5578 103.306 46.6787C104.049 45.972 104.629 44.9996 105.269 44.1942C107.778 41.0334 110.051 38.7797 113.952 37.4272Z" fill="#000003"/>
<path id="Vector_67" d="M100.664 54.0872C103.189 54.7458 104.483 54.5597 107.03 54.2104C106.539 55.362 105.687 56.2209 104.728 57.0031C103.953 57.532 103.157 57.9964 102.224 58.1792C101.865 58.2496 101.372 58.311 101.065 58.0597C100.921 57.942 100.891 57.8097 100.864 57.637C101.126 57.002 101.976 56.9407 102.393 56.4415C102.382 55.8538 101.316 55.2111 100.969 54.7417C100.827 54.5487 100.745 54.311 100.664 54.0872Z" fill="#FEFEFE"/>
<path id="Vector_68" d="M114.277 37.3786C114.227 37.0019 114.195 36.6231 114.182 36.2435C114.121 34.6818 114.527 33.1852 115.613 32.027C116.587 30.9894 117.929 30.4715 119.34 30.447C121.679 30.4062 123.602 31.5223 125.226 33.1127L125.521 32.9726C126.12 33.4598 126.921 33.3626 127.63 33.581C130.003 34.1004 132.19 35.2555 133.958 36.9227C134.542 37.4833 135.05 38.1382 135.65 38.6775C135.962 38.9573 136.345 39.1676 136.69 39.4032C137.366 39.8646 137.946 40.5248 138.381 41.214C139.177 42.4718 139.517 43.8085 139.533 45.287C140.822 46.4783 142.254 48.0946 142.339 49.9468C142.391 51.0628 141.989 51.9467 141.316 52.8038C141.923 53.8854 141.913 54.9437 141.587 56.1121C141.172 57.5993 140.204 58.7755 138.859 59.525C138.392 59.7852 137.888 59.972 137.391 60.1655C137.659 61.1038 137.712 61.8833 137.232 62.7801C136.424 64.2861 134.665 65.1754 133.085 65.6138C132.704 65.7195 132.297 65.8302 131.903 65.875C130.814 66.1726 129.573 66.1583 128.451 66.1388L127.907 66.228L127.948 65.9543C126.507 66.3129 125.132 66.78 123.662 67.0377C123.034 67.1477 122.147 67.3827 121.594 66.9562C120.666 66.2406 120.459 63.5415 120.308 62.4391C120.75 62.235 121.134 61.9918 121.475 61.6419C122.362 60.7318 123.093 59.2888 123.041 57.9941C123.025 57.6094 122.932 57.2319 122.766 56.8845C122.6 56.5371 122.366 56.227 122.076 55.9729C120.931 54.947 119.453 55.002 118.027 55.0882C118.326 52.3401 119.87 49.9049 120.576 47.3566C120.168 46.5324 119.351 45.8829 118.863 45.0694C118.024 43.5094 117.657 41.918 117.824 40.1539C117.942 39.578 118.438 38.6883 118.378 38.136C118.356 37.9368 118.271 37.7947 118.111 37.6769C117.239 37.0353 115.29 37.2116 114.277 37.3786Z" fill="#473041"/>
<path id="Vector_69" d="M127.947 65.9543C128.179 65.8973 128.449 65.918 128.688 65.9133L128.45 66.1388L127.906 66.228L127.947 65.9543Z" fill="#000003"/>
<path id="Vector_70" d="M128.688 65.9134C129.754 65.9445 130.796 65.775 131.846 65.6095L131.902 65.875C130.813 66.1727 129.571 66.1583 128.449 66.1388L128.688 65.9134Z" fill="#25223D"/>
<path id="Vector_71" d="M138.925 45.1701C138.376 44.7364 137.818 44.3011 137.228 43.9238C136.805 43.6531 136.319 43.4246 135.925 43.1172C135.786 43.0097 135.71 42.971 135.648 42.8059C135.673 42.803 135.697 42.7975 135.721 42.7974C136.477 42.7912 138.214 44.0947 138.741 44.6195C138.778 44.7973 138.851 44.8733 138.971 45.0059L138.925 45.1701Z" fill="#01000E"/>
<path id="Vector_72" d="M125.521 32.9726C126.12 33.4598 126.921 33.3626 127.63 33.5809L127.912 33.9172C127.326 33.7623 126.74 33.6561 126.144 33.556C126.875 34.5505 128.938 37.364 129.23 38.452L129.183 38.5038C128.332 37.7804 127.723 36.4665 127.096 35.5293C126.536 34.6773 125.91 33.8694 125.227 33.1126L125.521 32.9726Z" fill="#01000E"/>
<path id="Vector_73" d="M127.629 33.5809C130.002 34.1003 132.19 35.2555 133.957 36.9227C134.541 37.4833 135.049 38.1382 135.65 38.6775C135.961 38.9573 136.345 39.1676 136.69 39.4032C137.366 39.8645 137.945 40.5247 138.381 41.2139C139.176 42.4717 139.517 43.8085 139.532 45.287C140.821 46.4783 142.253 48.0946 142.338 49.9468C142.39 51.0628 141.989 51.9466 141.316 52.8038C141.922 53.8853 141.912 54.9436 141.586 56.1121C141.171 57.5993 140.203 58.7755 138.858 59.5249C138.391 59.7852 137.887 59.972 137.39 60.1654C137.659 61.1038 137.711 61.8832 137.231 62.78C136.424 64.2861 134.665 65.1754 133.085 65.6138C132.704 65.7195 132.296 65.8302 131.903 65.875L131.847 65.6094C132.886 65.4275 133.921 65.111 134.854 64.6125C135.874 64.0676 136.9 63.2562 137.218 62.0945C137.448 61.251 137.239 60.6014 136.826 59.8737C137.913 59.7975 138.904 59.3546 139.709 58.6229C140.787 57.6439 141.528 56.1827 141.572 54.715C141.598 53.8639 141.305 53.2492 140.739 52.6385C140.977 52.4905 141.217 52.3351 141.405 52.1249C141.933 51.5368 142.092 50.711 142.041 49.944C141.911 47.9715 140.324 46.3947 138.927 45.1701L138.973 45.0059C138.853 44.8733 138.78 44.7972 138.743 44.6195C138.884 44.7388 138.976 44.8298 139.159 44.8752L139.252 44.7189C139.328 43.7135 138.706 42.437 138.234 41.5728C137.393 40.0295 136.688 39.8979 135.513 38.8451C134.875 38.2741 134.304 37.6251 133.677 37.0412C132.011 35.4897 130.077 34.56 127.912 33.9172L127.629 33.5809Z" fill="#000003"/>
<path id="Vector_74" d="M103.189 80.7927C104.256 80.748 105.245 81.1545 106.065 81.8203C108.48 83.7825 109.75 87.3252 110.056 90.3318C110.427 93.9866 109.334 99.4394 106.939 102.336C105.763 103.757 103.577 105.334 102.071 106.464C97.1484 110.156 92.0105 113.51 86.2515 115.745C84.4497 116.444 82.4795 117.093 80.5474 117.264C77.8528 117.501 75.627 116.358 73.6084 114.656C68.7166 110.531 63.5 102.626 60.4896 97.021C60.1268 96.345 59.2425 95.0017 59.1797 94.2803C59.2634 94.196 59.2923 94.1836 59.4118 94.1579C59.4543 94.1492 59.4979 94.1448 59.5394 94.1323C59.5414 94.1316 59.7696 94.0452 59.7853 94.032C60.0426 93.8115 60.5404 92.5085 60.7243 92.1431C61.9732 89.9546 63.7344 88.218 65.9777 87.0447C66.5684 86.7356 67.2141 86.5532 67.797 86.2361C67.8167 86.2251 67.8361 86.2141 67.8557 86.2031C68.7141 87.4292 69.4569 88.7344 70.2754 89.9868C72.5306 93.4372 75.2549 97.1536 78.7515 99.4446C77.8477 99.6599 77.0691 99.9316 76.3162 100.492C75.2615 101.277 73.8706 103.217 73.7498 104.54C73.7351 104.699 73.7666 104.715 73.8662 104.825C74.0208 104.793 74.0164 104.796 74.0911 104.665C74.2376 104.407 74.302 104.056 74.3965 103.77C74.603 103.145 74.9304 102.551 75.3208 102.022C76.281 100.718 77.5488 100.008 79.1338 99.7676C79.4648 99.9309 79.7871 100.118 80.1108 100.296C79.8443 100.478 79.5803 100.664 79.3191 100.854C78.0989 101.754 77.1877 103.108 77.0002 104.637C76.9277 105.225 77.0442 106.272 77.4185 106.742L77.5422 106.745C77.6924 106.531 77.3811 105.403 77.3665 105.075C77.335 104.369 77.6382 103.547 77.9678 102.933C78.219 102.466 78.5273 102.058 78.9199 101.7C79.9607 100.755 81.2549 100.011 82.3894 99.1736C84.1157 97.8992 85.8018 96.4841 87.3948 95.0456C89.4207 93.2153 91.4443 91.3484 93.3625 89.4053C95.6082 87.1304 97.7725 84.7075 100.184 82.6077C101.093 81.8159 102.025 81.1413 103.189 80.7927Z" fill="#FEB75B"/>
<path id="Vector_75" d="M45.3919 10.2921C46.3451 9.91167 47.3696 9.65115 48.3478 9.33408C49.6177 8.92246 51.0625 8.27537 52.3855 8.12749C52.9024 8.0697 53.4443 8.09944 53.9315 8.29463C54.629 8.57412 55.0649 9.16951 55.3363 9.84934C55.652 10.6406 55.8229 11.5106 56.0283 12.3365C56.6406 14.4625 57.0953 16.6287 57.7038 18.7581C58.0191 19.869 58.5002 21.1258 58.6451 22.2611C58.9379 23.2584 59.1354 24.2839 59.4488 25.2744C59.6634 26.1787 59.8884 27.0971 60.1582 27.9862L59.9266 28.3469L60.0672 28.9349C60.214 29.4887 60.342 30.0567 60.518 30.6015C60.6583 31.1129 61.1214 32.4051 61.0245 32.8483L60.8755 32.9029C59.6682 33.1751 58.5038 33.586 57.3079 33.8975C56.6653 31.5583 56.0518 29.2113 55.4674 26.857C55.1807 25.7057 54.9273 24.054 54.4514 23.0072C54.348 22.7796 54.1141 22.5919 53.9052 22.4641C53.3007 22.0944 52.6604 22.3221 52.0317 22.501C49.924 23.1008 47.8371 23.804 45.7412 24.4469C40.3681 26.0967 35.0033 27.7738 29.6472 29.4782C27.2859 30.2382 24.9188 30.9801 22.5461 31.7039C21.1293 32.137 19.6383 32.5114 18.2587 33.0455C17.8371 33.2088 17.2302 33.5118 17.0217 33.9439C16.8606 34.2777 16.983 34.93 17.0488 35.2926C17.2409 36.3527 17.5427 37.4097 17.8002 38.4566C18.316 40.5531 18.8518 42.646 19.3445 44.7479C21.3334 53.34 23.4132 61.9109 25.5836 70.4589L25.6694 70.5144L25.8744 70.4501C26.515 70.1035 27.387 70.0127 28.1048 69.8919C32.0059 69.2357 35.6997 69.6271 39.4708 70.7484C40.7997 71.1435 42.0585 71.663 43.3003 72.2766C44.3039 71.7284 45.2805 70.7668 46.3927 70.4761C46.7999 70.7905 47.2024 71.1173 47.6213 71.4155C48.5635 72.0786 49.5306 72.6957 50.5051 73.3102C49.8621 73.5058 49.363 73.8215 49.0527 74.4404C48.9394 74.666 48.8549 74.8974 48.8172 75.1472L49.0518 75.8349L48.9484 75.9111C48.5233 76.2297 48.3435 76.4582 48.2591 76.9995C48.1571 77.6542 48.2324 78.5844 48.6309 79.133C48.7757 79.3322 48.975 79.486 49.1664 79.6376C48.6954 79.7797 48.2095 79.9321 47.956 80.3972C47.8144 80.6572 47.8491 80.9479 47.9398 81.2175C48.256 82.1564 49.1796 82.7834 50.0448 83.176C50.3067 83.2925 50.5703 83.4053 50.8355 83.5144C49.5096 83.8744 48.1948 84.2742 46.893 84.7133L36.4054 88.0341C34.9722 88.4846 33.5375 89.0551 32.085 89.425C31.6461 89.537 31.3157 89.5942 30.9123 89.3364C30.6846 89.1906 30.5672 88.9724 30.4691 88.727C30.2221 88.1096 30.1037 87.3969 29.9445 86.7502L29.0185 82.9204L28.6559 81.5082C28.1654 79.8742 27.8275 78.1669 27.4315 76.5073C27.271 75.8349 27.15 75.0388 26.8764 74.4074C26.8233 74.2844 26.7506 74.2126 26.652 74.1262C26.601 74.2946 26.5975 74.458 26.6294 74.6308C27.0221 76.7541 27.6741 78.895 28.1994 80.9948C28.885 83.7355 29.4922 86.5136 30.266 89.2294C30.4596 89.4484 30.6904 89.6235 30.9608 89.7363C31.3761 89.9099 31.7609 89.8388 32.1836 89.7348C33.1218 89.5034 34.0481 89.1459 34.9711 88.8537L41.5225 86.7604L48.0211 84.7119C49.0828 84.3786 50.2174 84.123 51.2416 83.6967C52.9632 84.364 54.5647 85.1674 56.0833 86.2243C54.0467 86.8102 52.0341 87.5178 50.0135 88.1594L36.9215 92.3254C35.4322 92.8007 33.9523 93.3105 32.4668 93.7976C31.6867 94.0539 30.8699 94.3762 30.0591 94.5146C29.5948 94.5937 29.0997 94.4391 28.6873 94.2333C28.0508 93.9155 27.6422 93.4145 27.4124 92.7451C27.0933 91.8156 26.938 90.7778 26.7097 89.8198C26.3144 88.1608 25.8843 86.5092 25.4684 84.8554L20.4561 64.3275L14.8594 41.0854L11.9999 29.5594C11.5794 27.8204 11.083 26.0676 10.7445 24.3114C10.6282 23.7079 10.6549 23.0733 10.9357 22.5145C11.1982 21.992 11.55 21.4794 12.0931 21.2214C13.2008 20.6952 14.5014 20.3941 15.6765 20.0279L21.9369 18.06C29.6655 15.6095 37.4185 13.2038 45.1076 10.6319C45.2893 10.5035 45.3256 10.5005 45.3919 10.2921Z" fill="#FEFEFE"/>
<path id="Vector_76" d="M30.1797 22.3487C30.7617 22.1431 31.2714 21.9547 31.8933 21.9222L31.8972 21.9992C31.4562 22.3446 31.0773 22.4673 30.5504 22.6265C30.4305 22.4909 30.3433 22.4259 30.1797 22.3487Z" fill="#01000E"/>
<path id="Vector_77" d="M19.4569 23.3821C19.5422 23.475 19.5199 23.4924 19.5262 23.6131C19.0647 24.0235 16.5026 24.6948 15.7639 24.9281C15.6615 24.7828 15.6842 24.8651 15.7065 24.6785C16.2665 24.2035 18.6486 23.5902 19.4569 23.3821Z" fill="#000003"/>
<path id="Vector_78" d="M19.4053 27.3934C19.6891 27.2983 19.9626 27.18 20.2659 27.1954L20.3344 27.28C20.1038 27.5845 19.7512 27.6739 19.4057 27.7996C18.7979 28.0112 16.9818 28.8265 16.4219 28.5745L16.4726 28.4657C17.3047 27.9782 18.4839 27.7132 19.4053 27.3934Z" fill="#01000E"/>
<path id="Vector_79" d="M55.7539 12.4381L56.0264 12.3365C56.6387 14.4625 57.0934 16.6288 57.7019 18.7581L57.475 18.9781C56.8462 16.8138 56.3242 14.6188 55.7539 12.4381Z" fill="#000003"/>
<path id="Vector_80" d="M57.7035 18.7582C58.0188 19.8691 58.4999 21.1259 58.6448 22.2612C58.9376 23.2585 59.1351 24.284 59.4485 25.2745C59.6631 26.1788 59.8881 27.0972 60.158 27.9863L59.9264 28.347C59.6972 27.4717 59.454 26.5976 59.259 25.7139C58.9104 24.6545 58.6584 23.5587 58.3864 22.4778C58.1766 21.3192 57.7978 20.1122 57.4766 18.9782L57.7035 18.7582Z" fill="#01000E"/>
<path id="Vector_81" d="M45.3898 10.2921C46.343 9.91167 47.3676 9.65115 48.3457 9.33408C49.6156 8.92246 51.0604 8.27537 52.3834 8.12749C52.9003 8.0697 53.4423 8.09944 53.9295 8.29463C54.627 8.57412 55.0628 9.16951 55.3342 9.84934C55.6499 10.6406 55.8208 11.5106 56.0262 12.3365L55.7537 12.4381C55.5642 11.7739 55.4015 11.0993 55.2023 10.4386C54.9687 9.66389 54.5629 8.96677 53.8184 8.59045C53.4289 8.39272 52.9927 8.30543 52.5571 8.33806C51.4048 8.42493 50.1226 9.0105 49.0252 9.37407C47.7211 9.80118 46.4145 10.2205 45.1055 10.6319C45.2873 10.5035 45.3235 10.5005 45.3898 10.2921Z" fill="#01000E"/>
<path id="Vector_82" d="M30.5488 22.6264L22.1744 25.3606C20.4167 25.9464 18.6368 26.6359 16.8416 27.0883C16.6485 27.137 16.4786 27.1855 16.293 27.1057L16.3491 26.9792C17.0203 26.499 18.4675 26.2286 19.2928 25.9516L30.1781 22.3487C30.3418 22.4258 30.429 22.4909 30.5488 22.6264Z" fill="#000003"/>
<path id="Vector_83" d="M45.3286 14.7379C45.5911 14.704 45.8649 14.6691 46.1254 14.7367C46.5366 14.8433 46.9134 15.1448 47.1086 15.5211C47.1971 15.6875 47.2507 15.8702 47.2661 16.058C47.2815 16.2458 47.2584 16.4347 47.1982 16.6133C47.0313 17.1027 46.6561 17.3557 46.2141 17.5783C45.9869 17.5918 45.7427 17.6066 45.5183 17.5646C45.0941 17.485 44.6967 17.2154 44.4771 16.8423C44.3806 16.6805 44.3188 16.5004 44.2955 16.3134C44.2723 16.1264 44.2882 15.9366 44.3421 15.7561C44.4968 15.2428 44.8739 14.973 45.3286 14.7379Z" fill="#000003"/>
<path id="Vector_84" d="M45.41 15.0278C45.5857 15.003 45.7642 14.9766 45.9415 14.9995C46.2561 15.0402 46.5711 15.2296 46.7612 15.4828C46.9606 15.7482 47.0227 16.0781 46.954 16.4011C46.8593 16.847 46.5822 17.0402 46.2195 17.2785C46.0406 17.2893 45.856 17.304 45.6772 17.2871C45.315 17.2527 44.961 17.045 44.7503 16.7489C44.6692 16.6343 44.6132 16.504 44.5858 16.3664C44.5583 16.2288 44.5601 16.087 44.591 15.9501C44.6971 15.4824 45.0185 15.2562 45.41 15.0278Z" fill="#3D547E"/>
<path id="Vector_85" d="M50.4787 13.0549C50.7431 13.035 51.0068 13.0266 51.2621 13.113C51.4505 13.177 51.6237 13.2795 51.7705 13.4138C51.9173 13.5482 52.0346 13.7116 52.115 13.8937C52.2026 14.0938 52.2483 14.3098 52.2493 14.5283C52.2504 14.7468 52.2067 14.9631 52.121 15.1641C51.9064 15.6688 51.53 15.9097 51.0396 16.1075C50.7882 16.121 50.5346 16.1188 50.2946 16.032C50.0912 15.9587 49.9055 15.8435 49.7494 15.6938C49.5934 15.5441 49.4706 15.3632 49.389 15.163C49.3059 14.9586 49.2668 14.739 49.2743 14.5185C49.2819 14.298 49.3358 14.0816 49.4326 13.8833C49.6649 13.4092 50.0002 13.2286 50.4787 13.0549Z" fill="#000003"/>
<path id="Vector_86" d="M50.3061 13.349C50.4427 13.3292 50.582 13.3081 50.7201 13.3051C50.902 13.3026 51.0823 13.3385 51.2493 13.4106C51.4163 13.4827 51.5662 13.5892 51.6892 13.7233C51.9164 13.976 52.0059 14.3136 51.9644 14.648C51.8999 15.1676 51.6087 15.4365 51.2106 15.7388C51.0113 15.7969 50.7951 15.8414 50.5863 15.8213C50.3005 15.7938 50.0195 15.6656 49.8353 15.4413C49.5959 15.1496 49.5271 14.7531 49.5866 14.3869C49.6664 13.8955 49.919 13.6335 50.3061 13.349Z" fill="#3D547E"/>
<path id="Vector_87" d="M47.6226 71.4155C48.5648 72.0787 49.532 72.6958 50.5064 73.3103C49.8634 73.5059 49.3643 73.8215 49.054 74.4404C48.9407 74.666 48.8562 74.8975 48.8185 75.1472C47.4919 74.8813 46.2921 73.8962 45.2031 73.1481C45.8497 72.671 47.2437 72.0513 47.6226 71.4155Z" fill="#D7E3D2"/>
<path id="Vector_88" d="M26.6523 74.1262C27.6563 73.1783 31.5344 73.1091 32.9603 73.1501C35.1728 73.2137 37.7114 73.6216 39.7374 74.5569C38.2713 75.5325 36.7615 76.4282 35.2793 77.3775C34.0231 78.1817 32.7939 79.0327 31.5156 79.8018C30.9995 80.1123 28.8697 81.1721 28.6563 81.5083C28.1657 79.8743 27.8279 78.167 27.4319 76.5073C27.2714 75.835 27.1503 75.0388 26.8768 74.4075C26.8237 74.2844 26.751 74.2127 26.6523 74.1262Z" fill="#D7E3D2"/>
<path id="Vector_89" d="M41.2142 75.3604C42.6279 76.0188 45.0054 76.9929 46.0929 78.0579C46.5205 80.2778 46.905 82.4436 46.894 84.7134L36.4064 88.0342C34.9732 88.4846 33.5385 89.0552 32.086 89.425C31.6471 89.5371 31.3167 89.5942 30.9133 89.3364C30.6856 89.1907 30.5682 88.9724 30.4702 88.7271C30.2231 88.1096 30.1048 87.397 29.9455 86.7502L29.0195 82.9204C32.2898 81.282 35.339 79.0408 38.43 77.0815C39.3421 76.5029 40.2547 75.854 41.2142 75.3604Z" fill="#D7E3D2"/>
<path id="Vector_90" d="M39.1204 26.8913L47.5244 24.2738C49.1576 23.7564 50.8139 23.1406 52.4769 22.7358C52.7754 22.6632 53.2848 22.526 53.5749 22.6339C54.1837 22.8601 54.3903 23.9763 54.5375 24.5312L61.1171 49.8505L63.324 58.3036C63.6077 59.4231 63.9887 60.5821 64.1882 61.7144L64.5745 63.1473C61.5304 64.3705 58.5175 65.749 55.5397 67.1252C53.8427 67.9096 51.5514 68.909 49.9843 69.8649C49.33 69.4986 48.6807 69.1234 48.0367 68.7393C47.3686 68.3207 46.1507 67.2735 45.3262 67.445C45.2162 67.4668 45.1119 67.5112 45.0199 67.5755C44.928 67.6398 44.8504 67.7225 44.7922 67.8183C44.6631 68.0318 44.632 68.2893 44.6926 68.5302C44.8704 69.2375 45.8543 70.0239 46.3925 70.4762C45.2803 70.7668 44.3037 71.7285 43.3001 72.2766C42.0583 71.663 40.7995 71.1436 39.4706 70.7484C35.6995 69.6272 32.0057 69.2358 28.1046 69.892C27.3868 70.0127 26.5148 70.1035 25.8742 70.4501C25.2548 67.3619 24.385 64.2917 23.6352 61.2312L20.1124 46.6902L19.8711 45.5475C20.1361 45.2459 21.6891 44.5892 22.1544 44.3374C26.0006 42.2556 29.846 40.0239 33.1632 37.153C36.548 34.2235 37.3881 31.7014 37.6957 27.3229C38.1612 27.1599 38.6476 27.0338 39.1204 26.8913Z" fill="#D7E3D2"/>
<path id="Vector_91" d="M49.3737 26.1634C49.8584 26.1291 50.3624 26.1939 50.7987 26.4206C51.1934 26.6258 51.4616 26.9828 51.5862 27.4065C51.9768 28.7357 50.8816 30.684 50.2748 31.8179C49.5979 31.2856 48.6299 30.0292 48.2566 29.2366C47.967 28.6214 47.8708 27.8934 48.1361 27.251C48.3771 26.6674 48.8095 26.387 49.3737 26.1634Z" fill="#F47E63"/>
<path id="Vector_92" d="M49.513 27.0274C49.5927 27.0371 49.6729 27.0451 49.7517 27.061C49.9927 27.1099 50.22 27.2531 50.3498 27.4649C50.4818 27.6801 50.5063 27.9328 50.4411 28.1744C50.3389 28.5525 50.1363 28.7354 49.8094 28.9296C49.725 28.9083 49.64 28.8886 49.5565 28.8638C49.2488 28.7723 49.0219 28.5878 48.8767 28.2989C48.7671 28.0808 48.7421 27.8376 48.8323 27.6081C48.9567 27.2917 49.2124 27.1461 49.513 27.0274Z" fill="#FEFEFE"/>
<path id="Vector_93" d="M48.0352 68.7393C48.5728 68.3924 49.2426 68.1658 49.8323 67.9099L53.181 66.4545C55.8549 65.2698 58.4901 63.9992 61.1859 62.8644C62.1429 62.4616 63.174 61.9342 64.1867 61.7144L64.573 63.1473C61.5289 64.3705 58.516 65.749 55.5382 67.1252C53.8412 67.9095 51.5499 68.9089 49.9828 69.8649C49.3285 69.4986 48.6792 69.1234 48.0352 68.7393Z" fill="#FEFEFE"/>
<path id="Vector_94" d="M37.6957 27.3228C38.1612 27.1599 38.6476 27.0338 39.1204 26.8913C38.6387 31.4875 37.9181 34.7664 34.1407 37.833C30.4103 40.8614 26.5356 43.4624 22.2419 45.6265C21.5378 45.9814 20.8326 46.3728 20.1124 46.6902L19.8711 45.5475C20.1361 45.2459 21.6891 44.5892 22.1544 44.3374C26.0006 42.2555 29.846 40.0239 33.1632 37.153C36.548 34.2235 37.3881 31.7014 37.6957 27.3228Z" fill="#FEFEFE"/>
<path id="Vector_95" d="M41.7688 37.5803C41.9049 37.5734 42.1058 37.5539 42.2145 37.6486C42.4948 37.8925 42.4666 38.5011 42.4977 38.8483C44.8885 40.9219 47.1163 43.2263 49.3652 45.4519C50.3752 46.4514 52.3435 48.1476 52.967 49.2592L52.771 50.0166C52.1355 50.2909 51.4541 50.4695 50.7923 50.67C51.8959 53.9323 52.8855 57.3144 53.7545 60.6471C54.062 60.5236 54.4534 60.311 54.7896 60.4071C55.0159 60.4717 55.1953 60.6401 55.2949 60.8497C55.4646 61.2066 55.4506 61.6307 55.3335 61.9991C53.8548 62.5811 52.2698 62.9393 50.7568 63.431C47.0746 64.6496 43.3815 65.8348 39.6779 66.9864C37.1756 67.8008 34.6651 68.5895 32.1467 69.3524C32.0238 69.0523 31.8933 68.7432 31.8092 68.43C31.7389 68.1688 31.7293 67.8679 31.8874 67.6346C32.0941 67.3295 32.4721 67.2571 32.8028 67.1593C31.5893 63.2812 30.4201 59.3894 29.2956 55.4846C28.9012 55.6775 28.1903 56.0253 27.7481 55.8224C27.6749 55.7888 27.5544 55.7002 27.527 55.6166C27.4003 55.2322 30.7096 42.764 31.1851 41.6562C31.9135 41.3953 32.736 41.2516 33.489 41.0486C35.6035 40.4786 37.7277 39.951 39.8277 39.3286C39.7499 39.2029 39.6697 39.0771 39.5979 38.9479C39.4569 38.6939 39.4485 38.5989 39.5276 38.3212C39.9052 37.9079 41.1877 37.7587 41.7688 37.5803Z" fill="#000003"/>
<path id="Vector_96" d="M54.5376 60.7089C54.6383 60.7084 54.5946 60.6978 54.6968 60.7506C54.9673 60.8901 55.0733 61.4767 55.156 61.7542L32.7623 68.8077C32.7579 68.8086 32.7534 68.81 32.7488 68.8107C32.5523 68.8398 32.4599 68.8911 32.289 68.7762C32.1343 68.4604 32.0996 68.2082 32.1895 67.8667C32.3279 67.7 32.5423 67.6229 32.742 67.5519C35.0419 66.7335 37.4287 66.0827 39.7636 65.3636L49.4042 62.3371C51.1071 61.8118 52.8938 61.3989 54.5376 60.7089Z" fill="#F47E63"/>
<path id="Vector_97" d="M31.541 41.8616C32.6269 42.5455 33.7685 43.9744 34.7063 44.9114C37.0463 47.2491 39.3681 49.616 41.7655 51.8946C42.5667 51.6272 51.8983 49.1084 52.3272 49.1782C52.3769 49.1862 52.4194 49.2185 52.4654 49.2387C52.5298 49.4169 52.57 49.4726 52.5302 49.6548C51.7845 50.2073 43.3593 52.3884 41.8627 52.7787C41.4325 52.5621 41.0343 52.2531 40.6378 51.9787C39.3673 51.2767 37.4415 49.0943 36.3699 47.9963L33.4416 45.0343C33.0756 44.6606 32.4886 43.857 32.0246 43.6709C31.8789 43.8024 31.8379 43.9425 31.7838 44.1255C31.6573 44.5535 31.6167 45.0175 31.5142 45.4539C31.2501 46.579 30.9647 47.7004 30.6865 48.8221C30.2107 50.7414 29.3671 53.1803 29.2037 55.1055C28.8532 55.3254 28.3599 55.6632 27.9383 55.5718C27.8039 55.0556 30.6131 44.4295 31.0287 43.09C31.1634 42.6558 31.3152 42.2575 31.541 41.8616Z" fill="#F47E63"/>
<path id="Vector_98" d="M50.3741 50.7751C50.7984 51.1174 53.0916 59.5408 53.4133 60.7452L43.328 63.8987L43.0244 62.8626C42.317 60.5804 41.7121 58.2611 41.0551 55.9635C40.6814 54.6569 40.1914 53.3448 39.9219 52.0146C40.6313 52.3083 41.1535 52.8609 41.8439 53.1753C44.6237 52.2305 47.5528 51.5969 50.3741 50.7751Z" fill="#FEFEFE"/>
<path id="Vector_99" d="M48.4965 53.1068C48.7081 53.0884 48.8081 53.0484 48.9957 53.1557C49.4782 54.1972 49.9256 56.493 50.2131 57.6663C48.5822 58.3888 46.7599 58.6267 45.1067 59.3149C44.9778 59.354 44.9152 59.3584 44.7843 59.3558C44.5121 58.9577 43.51 55.0412 43.457 54.4258C45.1762 54.0738 46.8197 53.6158 48.4965 53.1068Z" fill="#000003"/>
<path id="Vector_100" d="M48.649 53.4073C48.6593 53.4124 48.671 53.4152 48.6798 53.4226C48.9797 53.6737 49.684 56.8803 49.7809 57.4733C48.2018 58.0245 46.5849 58.4687 44.9842 58.9528C44.6422 57.5411 44.1683 56.1678 43.793 54.7653C45.4247 54.39 47.0397 53.8699 48.649 53.4073Z" fill="#FEFEFE"/>
<path id="Vector_101" d="M41.8793 37.9539L42.0406 38.0143C42.1634 38.3069 42.1212 38.6935 42.1231 39.0085C45.6146 42.1243 48.8873 45.4558 52.1609 48.7973C50.7148 49.0693 49.2548 49.5396 47.826 49.9071C45.8338 50.4196 43.8004 50.8654 41.838 51.478C41.3415 51.0172 40.8586 50.5402 40.3705 50.0705C37.6004 47.3301 34.8531 44.5667 32.1289 41.7807C33.069 41.5582 33.9955 41.2656 34.9301 41.0191C36.6304 40.5707 38.3371 40.1508 40.0186 39.6347L40.4381 40.68C41.0692 40.5663 41.6937 40.4564 42.2999 40.242L42.2956 40.0577L42.4832 40.1152L42.3245 40.2282L42.3367 40.058C41.7851 39.9835 41.2214 40.1532 40.6898 40.2802C40.4109 39.6704 40.1149 39.0822 39.7848 38.4983C40.4784 38.2993 41.1726 38.1014 41.8793 37.9539Z" fill="#F47E63"/>
<path id="Vector_102" d="M32.0793 44.1921C32.7953 44.6248 33.4719 45.5648 34.0653 46.1651C35.8309 47.983 37.6252 49.7728 39.4476 51.5339C40.4939 55.7232 41.8621 59.8512 43.0029 64.0182C41.5427 64.4332 40.0909 64.8885 38.6379 65.328L33.1503 67.0341C32.4663 65.4049 32.0325 63.5867 31.5354 61.8887C30.8505 59.5494 30.1295 57.2251 29.5156 54.8654C29.893 53.5646 30.1796 52.2239 30.5133 50.9101C31.0813 48.6744 31.6676 46.4629 32.0793 44.1921Z" fill="#FEFEFE"/>
<path id="Vector_103" d="M33.5145 48.6397C33.9734 48.6192 34.3572 48.6427 34.7714 48.8598C35.2839 49.1285 35.6523 49.6091 35.8097 50.1629C35.9632 50.7037 35.9168 51.3135 35.6324 51.8038C35.3222 52.3387 34.8749 52.5751 34.2967 52.7311C33.895 52.7442 33.5101 52.7152 33.1448 52.5314C32.8925 52.4036 32.6681 52.227 32.4846 52.0117C32.3011 51.7965 32.1622 51.547 32.076 51.2776C31.8997 50.7437 31.919 50.1349 32.1828 49.6327C32.4823 49.0622 32.9222 48.8274 33.5145 48.6397Z" fill="#000003"/>
<path id="Vector_104" d="M33.7843 48.9455C34.0532 48.973 34.3128 48.9965 34.5565 49.1224C34.9962 49.3495 35.3264 49.7731 35.468 50.2439C35.6019 50.6892 35.5864 51.1826 35.3605 51.5957C35.0823 52.1041 34.6755 52.2573 34.1403 52.3959C33.8245 52.3888 33.5651 52.359 33.2828 52.2059C33.0583 52.0855 32.8605 51.9211 32.7011 51.7224C32.5417 51.5237 32.4241 51.2949 32.3553 51.0496C32.2279 50.5994 32.2822 50.1072 32.5362 49.7106C32.836 49.2424 33.263 49.0628 33.7843 48.9455Z" fill="#FEFEFE"/>
<path id="Vector_105" d="M127.377 75.7515C128.077 78.8013 129.201 81.7749 129.618 84.8892C129.86 86.6997 129.881 88.5754 129.886 90.4006C129.911 98.0413 128.671 108.482 124.585 115.128C124.135 115.859 123.347 116.556 123.009 117.324L123.073 117.407C123.677 117.285 124.5 115.92 124.836 115.417C125.767 114.026 126.505 112.284 127.094 110.717C127.156 111.932 127.246 113.145 127.365 114.355C127.647 117.099 129.84 136.206 130.521 137.305C119.348 145.809 103.085 146.066 89.7476 144.255C88.7544 144.12 87.6382 143.835 86.6406 143.86C86.8523 143.225 86.9841 142.536 87.1482 141.885L88.1948 137.623C89.5359 132.093 90.7561 126.486 91.5859 120.856C91.9536 118.364 92.2942 115.845 92.3777 113.325C95.3455 111.775 98.1623 109.819 100.864 107.849C102.753 106.471 104.65 105.06 106.382 103.483C109.006 101.093 110.36 96.2021 110.512 92.7488C110.674 89.0801 109.585 84.9829 107.045 82.248C106.168 81.3047 104.967 80.4382 103.628 80.4119C101.075 80.3606 96.3057 85.9438 94.4233 87.7368L94.3083 87.7148C93.8572 87.9888 93.272 88.7461 92.8625 89.1379C93.2288 88.5425 94.4563 87.3098 94.5391 86.6653C96.6038 83.7488 100.692 79.9189 103.697 77.9641C108.192 80.3569 115.764 82.1741 120.693 80.6902C123.524 79.8376 125.723 78.1816 127.377 75.7515Z" fill="#FEB75B"/>
<path id="Vector_106" d="M125.974 116.056L126.126 116.174C126.157 116.306 126.177 116.317 126.13 116.454C125.695 117.741 123.112 119.798 121.898 120.39L121.758 120.286C121.792 119.949 122.63 119.602 122.905 119.411C124.13 118.556 125.238 117.352 125.974 116.056Z" fill="#000003"/>
</g>
<defs>
<clipPath id="clip0_144_365">
<rect width="150" height="150" fill="white"/>
</clipPath>
</defs>
</svg>
