<svg width="25" height="24" viewBox="0 0 25 24" fill="none" xmlns="http://www.w3.org/2000/svg">
<g id="Icon">
<path id="Vector" d="M15.6367 7.92188C15.0742 7.35938 14.4414 6.9375 13.7383 6.65625C13.0195 6.375 12.293 6.23438 11.5586 6.23438C10.8242 6.23438 10.1055 6.375 9.40234 6.65625C8.69922 6.9375 8.06641 7.35938 7.50391 7.92188C6.94141 8.48438 6.51953 9.11719 6.23828 9.82031C5.95703 10.5391 5.81641 11.2656 5.81641 12C5.81641 12.7344 5.95703 13.4531 6.23828 14.1562C6.51953 14.8594 6.94141 15.4922 7.50391 16.0547C8.06641 16.6172 8.69922 17.0391 9.40234 17.3203C10.1055 17.6016 10.8242 17.7422 11.5586 17.7422C12.293 17.7422 13.0195 17.6016 13.7383 17.3203C14.4414 17.0391 15.0742 16.6172 15.6367 16.0547C15.7305 15.9609 15.8477 15.9141 15.9883 15.9141C16.1289 15.9141 16.2461 15.9609 16.3398 16.0547C16.4492 16.1641 16.5039 16.2891 16.5039 16.4297C16.5039 16.5703 16.4492 16.6875 16.3398 16.7812C15.6836 17.4375 14.9414 17.9297 14.1133 18.2578C13.2852 18.5859 12.4375 18.75 11.5703 18.75C10.7031 18.75 9.85547 18.5859 9.02734 18.2578C8.18359 17.9297 7.43359 17.4375 6.77734 16.7812C6.12109 16.125 5.62891 15.375 5.30078 14.5312C4.97266 13.7031 4.80859 12.8555 4.80859 11.9883C4.80859 11.1211 4.97266 10.2734 5.30078 9.44531C5.62891 8.61719 6.12109 7.875 6.77734 7.21875C7.43359 6.54688 8.18359 6.04688 9.02734 5.71875C9.85547 5.39062 10.7031 5.22656 11.5703 5.22656C12.4375 5.22656 13.2852 5.39062 14.1133 5.71875C14.9414 6.04688 15.6836 6.54688 16.3398 7.21875C16.4492 7.3125 16.5039 7.42969 16.5039 7.57031C16.5039 7.71094 16.4492 7.82812 16.3398 7.92188C16.2461 8.01562 16.1289 8.0625 15.9883 8.0625C15.8477 8.0625 15.7305 8.01562 15.6367 7.92188ZM17.5586 9.5625C17.6523 9.46875 17.7695 9.42188 17.9102 9.42188C18.0508 9.42188 18.168 9.46875 18.2617 9.5625L20.6523 11.9531C20.6992 12 20.7344 12.0547 20.7578 12.1172C20.7812 12.1797 20.793 12.25 20.793 12.3281C20.793 12.3906 20.7812 12.4531 20.7578 12.5156C20.7344 12.5781 20.6992 12.6328 20.6523 12.6797L18.2617 15.0703C18.168 15.1641 18.0508 15.2109 17.9102 15.2109C17.7695 15.2109 17.6523 15.1641 17.5586 15.0703C17.4492 14.9766 17.3945 14.8594 17.3945 14.7188C17.3945 14.5781 17.4492 14.4531 17.5586 14.3438L19.1992 12.7031H13.4102C13.2695 12.7031 13.1484 12.6523 13.0469 12.5508C12.9453 12.4492 12.8945 12.3281 12.8945 12.1875C12.8945 12.0469 12.9453 11.9297 13.0469 11.8359C13.1484 11.7422 13.2695 11.6953 13.4102 11.6953H18.9648L17.5586 10.2891C17.4492 10.1797 17.3945 10.0586 17.3945 9.92578C17.3945 9.79297 17.4492 9.67188 17.5586 9.5625Z" fill="#4E4E4E"/>
</g>
</svg>
