<svg width="12" height="42" viewBox="0 0 12 42" fill="none" xmlns="http://www.w3.org/2000/svg">
<g id="Icon">
<path id="Vector" d="M6.92682 14.1732H0.850685C0.737378 14.1732 0.638233 14.2157 0.553253 14.3007C0.468272 14.3857 0.425781 14.4848 0.425781 14.5981V27.4727C0.425781 27.5955 0.468272 27.6994 0.553253 27.7843C0.638233 27.8693 0.737378 27.9118 0.850685 27.9118H10.2411C10.3544 27.9118 10.4535 27.8693 10.5385 27.7843C10.6235 27.6994 10.666 27.5955 10.666 27.4727V17.9549C10.666 17.8982 10.6542 17.8439 10.6306 17.792C10.607 17.7401 10.5763 17.6952 10.5385 17.6574L7.22425 14.3007C7.18648 14.2629 7.14163 14.2322 7.0897 14.2086C7.03776 14.185 6.98347 14.1732 6.92682 14.1732ZM6.74269 15.023L9.81616 18.139V27.0478H1.27559V15.023H6.74269ZM6.92682 14.1732C7.03068 14.1732 7.12274 14.2063 7.203 14.2724C7.28326 14.3385 7.33284 14.4235 7.35172 14.5273V14.5981V17.53H10.2411C10.3449 17.53 10.437 17.563 10.5173 17.6291C10.5975 17.6952 10.6424 17.7802 10.6518 17.8841L10.666 17.9549C10.666 18.0587 10.6329 18.1508 10.5668 18.2311C10.5007 18.3113 10.4158 18.3609 10.3119 18.3798H10.2411H6.92682C6.82295 18.3798 6.73089 18.3467 6.65063 18.2806C6.57037 18.2145 6.5208 18.1343 6.50191 18.0399V17.9549V14.5981C6.50191 14.4848 6.5444 14.3857 6.62938 14.3007C6.71436 14.2157 6.81351 14.1732 6.92682 14.1732ZM8.03157 19.3004C8.14487 19.3004 8.24402 19.3405 8.329 19.4208C8.41398 19.5011 8.45647 19.6026 8.45647 19.7253C8.45647 19.8292 8.42342 19.9189 8.35733 19.9944C8.29123 20.07 8.20625 20.1172 8.10238 20.1361L8.03157 20.1502H5.82206C5.70876 20.1502 5.60961 20.1077 5.52463 20.0227C5.43965 19.9378 5.39716 19.8386 5.39716 19.7253C5.39716 19.6215 5.43021 19.5294 5.4963 19.4491C5.5624 19.3689 5.64738 19.3193 5.75125 19.3004H5.82206H8.03157ZM8.03157 21.8498C8.14487 21.8498 8.24402 21.8923 8.329 21.9773C8.41398 22.0623 8.45647 22.1614 8.45647 22.2747C8.45647 22.3786 8.42342 22.4707 8.35733 22.5509C8.29123 22.6312 8.20625 22.6808 8.10238 22.6996H8.03157H5.82206C5.70876 22.6996 5.60961 22.6595 5.52463 22.5793C5.43965 22.499 5.39716 22.3975 5.39716 22.2747C5.39716 22.1709 5.43021 22.0812 5.4963 22.0056C5.5624 21.9301 5.64738 21.8829 5.75125 21.864L5.82206 21.8498H8.03157ZM8.03157 24.4134C8.14487 24.4134 8.24402 24.4559 8.329 24.5409C8.41398 24.6259 8.45647 24.725 8.45647 24.8383C8.45647 24.9422 8.42342 25.0343 8.35733 25.1145C8.29123 25.1948 8.20625 25.2443 8.10238 25.2632H8.03157H5.82206C5.70876 25.2632 5.60961 25.2231 5.52463 25.1428C5.43965 25.0626 5.39716 24.9611 5.39716 24.8383C5.39716 24.7345 5.43021 24.6424 5.4963 24.5621C5.5624 24.4819 5.64738 24.4323 5.75125 24.4134H5.82206H8.03157ZM4.41988 18.5073C4.49542 18.4223 4.5922 18.3798 4.71023 18.3798C4.82826 18.3798 4.92977 18.4176 5.01475 18.4931C5.09029 18.5686 5.13278 18.6583 5.14222 18.7622C5.15166 18.8661 5.12805 18.9605 5.0714 19.0455L5.01475 19.1021L3.64089 20.5043C3.56535 20.5798 3.47565 20.62 3.37178 20.6247C3.26792 20.6294 3.1735 20.6035 3.08851 20.5468L3.03186 20.5043L2.21038 19.6545C2.1254 19.579 2.08291 19.4822 2.08291 19.3641C2.08291 19.2461 2.1254 19.1446 2.21038 19.0596C2.28592 18.9841 2.37562 18.9416 2.47949 18.9322C2.58335 18.9227 2.67305 18.951 2.74859 19.0171L2.81941 19.0596L3.34346 19.5978L4.41988 18.5073ZM4.41988 21.0142C4.49542 20.9387 4.5922 20.8985 4.71023 20.8938C4.82826 20.8891 4.92977 20.9292 5.01475 21.0142C5.09029 21.0897 5.13278 21.1794 5.14222 21.2833C5.15166 21.3872 5.12805 21.4816 5.0714 21.5666L5.01475 21.6232L3.64089 23.0254C3.56535 23.1009 3.47565 23.1411 3.37178 23.1458C3.26792 23.1505 3.1735 23.1246 3.08851 23.0679L3.03186 23.0254L2.21038 22.1756C2.1254 22.0906 2.08291 21.9891 2.08291 21.8711C2.08291 21.7531 2.1254 21.6563 2.21038 21.5807C2.28592 21.5052 2.37562 21.4627 2.47949 21.4533C2.58335 21.4438 2.67305 21.4674 2.74859 21.5241L2.81941 21.5807L3.34346 22.1048L4.41988 21.0142ZM4.41988 23.5353C4.49542 23.4503 4.5922 23.4078 4.71023 23.4078C4.82826 23.4078 4.92977 23.4503 5.01475 23.5353C5.09029 23.6108 5.13278 23.7005 5.14222 23.8044C5.15166 23.9083 5.12805 23.998 5.0714 24.0735L5.01475 24.1443L3.64089 25.5323C3.56535 25.6079 3.47565 25.6504 3.37178 25.6598C3.26792 25.6693 3.1735 25.6456 3.08851 25.589L3.03186 25.5323L2.21038 24.6967C2.1254 24.6117 2.08291 24.5102 2.08291 24.3922C2.08291 24.2742 2.1254 24.1774 2.21038 24.1018C2.28592 24.0263 2.37562 23.9838 2.47949 23.9744C2.58335 23.9649 2.67305 23.9885 2.74859 24.0452L2.81941 24.1018L3.34346 24.6259L4.41988 23.5353Z" fill="#414141"/>
</g>
</svg>
