<svg xmlns="http://www.w3.org/2000/svg" width="24" height="25" viewBox="0 0 24 25" fill="none">
    <path fill-rule="evenodd" clip-rule="evenodd" d="M8 5.84131C8 5.04566 8.31607 4.2826 8.87868 3.71999C9.44129 3.15738 10.2044 2.84131 11 2.84131H19C19.7956 2.84131 20.5587 3.15738 21.1213 3.71999C21.6839 4.2826 22 5.04566 22 5.84131V19.8413C22 20.637 21.6839 21.4 21.1213 21.9626C20.5587 22.5252 19.7956 22.8413 19 22.8413H11C10.2044 22.8413 9.44129 22.5252 8.87868 21.9626C8.31607 21.4 8 20.637 8 19.8413V5.84131ZM11 4.84131C10.7348 4.84131 10.4804 4.94667 10.2929 5.1342C10.1054 5.32174 10 5.57609 10 5.84131V19.8413C10 20.1065 10.1054 20.3609 10.2929 20.5484C10.4804 20.736 10.7348 20.8413 11 20.8413H19C19.2652 20.8413 19.5196 20.736 19.7071 20.5484C19.8946 20.3609 20 20.1065 20 19.8413V5.84131C20 5.57609 19.8946 5.32174 19.7071 5.1342C19.5196 4.94667 19.2652 4.84131 19 4.84131H11Z" fill="#333333"/>
    <path fill-rule="evenodd" clip-rule="evenodd" d="M2 11.8413C2 11.0457 2.31607 10.2826 2.87868 9.71999C3.44129 9.15738 4.20435 8.84131 5 8.84131H9.5V10.8413H5C4.73478 10.8413 4.48043 10.9467 4.29289 11.1342C4.10536 11.3217 4 11.5761 4 11.8413V19.8413C4 20.1065 4.10536 20.3609 4.29289 20.5484C4.48043 20.736 4.73478 20.8413 5 20.8413H14.5V22.8413H5C4.20435 22.8413 3.44129 22.5252 2.87868 21.9626C2.31607 21.4 2 20.637 2 19.8413V11.8413Z" fill="#333333"/>
    <path fill-rule="evenodd" clip-rule="evenodd" d="M12 17.8413C12 17.3109 12.2107 16.8022 12.5858 16.4271C12.9609 16.052 13.4696 15.8413 14 15.8413H16C16.5304 15.8413 17.0391 16.052 17.4142 16.4271C17.7893 16.8022 18 17.3109 18 17.8413V20.8413H16V17.8413H14V20.8413H12V17.8413Z" fill="#333333"/>
    <path d="M12 6.84131C12 6.57609 12.1054 6.32174 12.2929 6.1342C12.4804 5.94667 12.7348 5.84131 13 5.84131C13.2652 5.84131 13.5196 5.94667 13.7071 6.1342C13.8946 6.32174 14 6.57609 14 6.84131V7.84131C14 8.10653 13.8946 8.36088 13.7071 8.54842C13.5196 8.73595 13.2652 8.84131 13 8.84131C12.7348 8.84131 12.4804 8.73595 12.2929 8.54842C12.1054 8.36088 12 8.10653 12 7.84131V6.84131ZM12 11.8413C12 11.5761 12.1054 11.3217 12.2929 11.1342C12.4804 10.9467 12.7348 10.8413 13 10.8413C13.2652 10.8413 13.5196 10.9467 13.7071 11.1342C13.8946 11.3217 14 11.5761 14 11.8413V12.8413C14 13.1065 13.8946 13.3609 13.7071 13.5484C13.5196 13.736 13.2652 13.8413 13 13.8413C12.7348 13.8413 12.4804 13.736 12.2929 13.5484C12.1054 13.3609 12 13.1065 12 12.8413V11.8413ZM5 15.8413C5 15.5761 5.10536 15.3217 5.29289 15.1342C5.48043 14.9467 5.73478 14.8413 6 14.8413C6.26522 14.8413 6.51957 14.9467 6.70711 15.1342C6.89464 15.3217 7 15.5761 7 15.8413V16.8413C7 17.1065 6.89464 17.3609 6.70711 17.5484C6.51957 17.736 6.26522 17.8413 6 17.8413C5.73478 17.8413 5.48043 17.736 5.29289 17.5484C5.10536 17.3609 5 17.1065 5 16.8413V15.8413ZM16 6.84131C16 6.57609 16.1054 6.32174 16.2929 6.1342C16.4804 5.94667 16.7348 5.84131 17 5.84131C17.2652 5.84131 17.5196 5.94667 17.7071 6.1342C17.8946 6.32174 18 6.57609 18 6.84131V7.84131C18 8.10653 17.8946 8.36088 17.7071 8.54842C17.5196 8.73595 17.2652 8.84131 17 8.84131C16.7348 8.84131 16.4804 8.73595 16.2929 8.54842C16.1054 8.36088 16 8.10653 16 7.84131V6.84131ZM16 11.8413C16 11.5761 16.1054 11.3217 16.2929 11.1342C16.4804 10.9467 16.7348 10.8413 17 10.8413C17.2652 10.8413 17.5196 10.9467 17.7071 11.1342C17.8946 11.3217 18 11.5761 18 11.8413V12.8413C18 13.1065 17.8946 13.3609 17.7071 13.5484C17.5196 13.736 17.2652 13.8413 17 13.8413C16.7348 13.8413 16.4804 13.736 16.2929 13.5484C16.1054 13.3609 16 13.1065 16 12.8413V11.8413Z" fill="#333333"/>
  </svg>