<svg xmlns="http://www.w3.org/2000/svg" width="44" height="40" viewBox="0 0 44 40" fill="none">
    <g clip-path="url(#clip0_233_10944)">
      <g filter="url(#filter0_d_233_10944)">
        <path d="M22.0032 38.3492C33.5748 38.3492 42.9555 35.535 42.9555 32.0635C42.9555 28.592 33.5748 25.7778 22.0032 25.7778C10.4315 25.7778 1.05078 28.592 1.05078 32.0635C1.05078 35.535 10.4315 38.3492 22.0032 38.3492Z" fill="url(#paint0_radial_233_10944)"/>
      </g>
      <path d="M1.05078 2.5143V7.9619C1.05078 11.202 3.67738 13.8286 6.91745 13.8286H34.9936C37.5394 13.8286 39.6032 15.8923 39.6032 18.4381C39.6032 20.9839 37.5394 23.0476 34.9936 23.0476H14.1626C11.9639 23.0476 10.1816 24.83 10.1816 27.0286C10.1816 29.2272 11.9639 31.0095 14.1626 31.0095H22.0032" stroke="#BE9FFF" stroke-width="0.761905" stroke-linecap="round" stroke-linejoin="round" stroke-dasharray="1.59 1.59"/>
      <path fill-rule="evenodd" clip-rule="evenodd" d="M34.1221 12.882C34.1221 5.76753 27.944 1.52588e-05 21.3569 1.52588e-05C14.7697 1.52588e-05 9.42969 5.76753 9.42969 12.882C9.42969 17.2674 11.4586 21.1411 14.5586 23.4671C14.6824 23.5604 15.7136 24.4004 15.9891 24.6504C20.3183 28.5946 22.195 31.3951 22.195 31.3951C22.195 31.3951 23.2595 28.5241 27.7265 24.5025C27.9474 24.3035 28.778 23.6265 28.8563 23.5693C32.0329 21.2547 34.1221 17.3316 34.1221 12.882Z" fill="#4114A2"/>
      <path fill-rule="evenodd" clip-rule="evenodd" d="M31.5294 12.7615C31.5294 18.33 27.3502 22.8447 22.1944 22.8447C17.0386 22.8447 12.8594 18.33 12.8594 12.7615C12.8594 7.19289 17.0386 2.67909 22.1944 2.67909C27.3502 2.67909 31.5294 7.19289 31.5294 12.7615Z" fill="white"/>
      <path fill-rule="evenodd" clip-rule="evenodd" d="M27.4764 12.249C27.6724 12.0245 27.6535 11.6805 27.4342 11.4808L22.6044 7.07829C22.3851 6.87861 22.0337 6.88273 21.819 7.08775L16.9728 11.7156C16.7582 11.9205 16.7476 12.2641 16.9495 12.4826L17.071 12.6144C17.2726 12.833 17.5984 12.8591 17.7983 12.6724L18.1604 12.3345V17.2813C18.1604 17.5848 18.3965 17.8304 18.6876 17.8304H20.5768C20.8679 17.8304 21.1039 17.5848 21.1039 17.2813V13.8206H23.5135V17.2813C23.5093 17.5845 23.7176 17.8302 24.0087 17.8302H26.0107C26.3018 17.8302 26.5379 17.5845 26.5379 17.281V12.4042C26.5379 12.4042 26.6379 12.4955 26.7613 12.6085C26.8845 12.7213 27.1433 12.6309 27.3392 12.4062L27.4764 12.249Z" fill="#3498DB"/>
      <path fill-rule="evenodd" clip-rule="evenodd" d="M34.1238 12.882C34.1238 5.76753 28.7838 1.52588e-05 22.1966 1.52588e-05C15.6095 1.52588e-05 10.2695 5.76753 10.2695 12.882C10.2695 17.2674 12.2984 21.1411 15.3984 23.4671C15.5223 23.5604 16.5535 24.4004 16.829 24.6504C21.1582 28.5946 22.1966 31.3951 22.1966 31.3951C22.1966 31.3951 23.2612 28.5241 27.7282 24.5025C27.9492 24.3035 28.7798 23.6265 28.858 23.5693C32.0346 21.2547 34.1238 17.3316 34.1238 12.882Z" fill="#3498DB"/>
      <path fill-rule="evenodd" clip-rule="evenodd" d="M31.5293 12.7615C31.5293 18.33 27.3501 22.8447 22.1944 22.8447C17.0385 22.8447 12.8594 18.33 12.8594 12.7615C12.8594 7.19289 17.0385 2.67909 22.1944 2.67909C27.3501 2.67909 31.5293 7.19289 31.5293 12.7615Z" fill="white"/>
      <g filter="url(#filter1_d_233_10944)">
        <path fill-rule="evenodd" clip-rule="evenodd" d="M27.4764 12.249C27.6724 12.0245 27.6535 11.6805 27.4342 11.4808L22.6044 7.07829C22.3851 6.87861 22.0336 6.88273 21.819 7.08775L16.9728 11.7156C16.7582 11.9205 16.7476 12.2641 16.9495 12.4826L17.071 12.6144C17.2726 12.833 17.5984 12.8591 17.7983 12.6724L18.1604 12.3345V17.2813C18.1604 17.5848 18.3965 17.8304 18.6876 17.8304H20.5768C20.8679 17.8304 21.1039 17.5848 21.1039 17.2813V13.8206H23.5135V17.2813C23.5093 17.5845 23.7176 17.8302 24.0087 17.8302H26.0107C26.3018 17.8302 26.5379 17.5845 26.5379 17.281V12.4042C26.5379 12.4042 26.6379 12.4955 26.7613 12.6085C26.8845 12.7213 27.1433 12.6309 27.3392 12.4062L27.4764 12.249Z" fill="#3498DB"/>
      </g>
    </g>
    <defs>
      <filter id="filter0_d_233_10944" x="0.415861" y="25.7778" width="43.1761" height="14.0444" filterUnits="userSpaceOnUse" color-interpolation-filters="sRGB">
        <feFlood flood-opacity="0" result="BackgroundImageFix"/>
        <feColorMatrix in="SourceAlpha" type="matrix" values="0 0 0 0 0 0 0 0 0 0 0 0 0 0 0 0 0 0 127 0" result="hardAlpha"/>
        <feOffset dy="0.838095"/>
        <feGaussianBlur stdDeviation="0.31746"/>
        <feComposite in2="hardAlpha" operator="out"/>
        <feColorMatrix type="matrix" values="0 0 0 0 0.9375 0 0 0 0 0.9375 0 0 0 0 0.9375 0 0 0 1 0"/>
        <feBlend mode="normal" in2="BackgroundImageFix" result="effect1_dropShadow_233_10944"/>
        <feBlend mode="normal" in="SourceGraphic" in2="effect1_dropShadow_233_10944" result="shape"/>
      </filter>
      <filter id="filter1_d_233_10944" x="16.3856" y="6.93121" width="11.2276" height="10.8992" filterUnits="userSpaceOnUse" color-interpolation-filters="sRGB">
        <feFlood flood-opacity="0" result="BackgroundImageFix"/>
        <feColorMatrix in="SourceAlpha" type="matrix" values="0 0 0 0 0 0 0 0 0 0 0 0 0 0 0 0 0 0 127 0" result="hardAlpha"/>
        <feOffset dx="-0.419048"/>
        <feComposite in2="hardAlpha" operator="out"/>
        <feColorMatrix type="matrix" values="0 0 0 0 0.290196 0 0 0 0 0.101961 0 0 0 0 0.690196 0 0 0 1 0"/>
        <feBlend mode="normal" in2="BackgroundImageFix" result="effect1_dropShadow_233_10944"/>
        <feBlend mode="normal" in="SourceGraphic" in2="effect1_dropShadow_233_10944" result="shape"/>
      </filter>
      <radialGradient id="paint0_radial_233_10944" cx="0" cy="0" r="1" gradientUnits="userSpaceOnUse" gradientTransform="translate(22.0032 32.0635) rotate(90) scale(6.28572 20.9524)">
        <stop offset="0.479167" stop-color="#E8E9EF"/>
        <stop offset="1" stop-color="white"/>
      </radialGradient>
      <clipPath id="clip0_233_10944">
        <rect width="43.1746" height="40" fill="white" transform="translate(0.414062)"/>
      </clipPath>
    </defs>
  </svg>