<svg xmlns="http://www.w3.org/2000/svg" width="24" height="24" viewBox="0 0 24 24" fill="none">
    <path d="M12 2C17.523 2 22 6.477 22 12C22 17.523 17.523 22 12 22C6.477 22 2 17.523 2 12L4 12C4.00015 13.8812 4.66326 15.7023 5.87283 17.1431C7.0824 18.5839 8.76104 19.5524 10.6138 19.8784C12.4666 20.2043 14.375 19.8669 16.0037 18.9254C17.6324 17.9839 18.8772 16.4986 19.5194 14.7304C20.1616 12.9621 20.1601 11.0242 19.5152 9.25691C18.8703 7.48967 17.6233 6.00622 15.9931 5.06721C14.363 4.12821 12.4541 3.79371 10.6018 4.1225C8.74954 4.45129 7.07237 5.42232 5.865 6.865L8 9L2 9L2 3L4.447 5.447C5.38479 4.364 6.54475 3.4956 7.84804 2.90081C9.15133 2.30602 10.5674 1.99879 12 2Z" fill="#333333"/>
  </svg>