<svg xmlns="http://www.w3.org/2000/svg" width="22" height="22" viewBox="0 0 22 22" fill="none">
    <path fill-rule="evenodd" clip-rule="evenodd" d="M10.8076 21.9565C4.88916 21.9565 0 17.0674 0 11.1489C0 5.23047 4.88086 0.341309 10.7993 0.341309C16.7178 0.341309 21.6152 5.23047 21.6152 11.1489C21.6152 17.0674 16.7261 21.9565 10.8076 21.9565ZM9.47949 16.5776C9.78662 16.5776 10.0522 16.4365 10.2515 16.1294L15.8296 7.38867C15.9541 7.20605 16.062 6.98193 16.062 6.78271C16.062 6.34277 15.6719 6.06885 15.2651 6.06885C15.0244 6.06885 14.7837 6.20996 14.6011 6.49219L9.43799 14.7017L6.69043 11.2568C6.47461 10.9829 6.25049 10.8833 5.98486 10.8833C5.57812 10.8833 5.23779 11.207 5.23779 11.647C5.23779 11.8545 5.3208 12.0786 5.46191 12.2529L8.66602 16.1377C8.92334 16.4531 9.17236 16.5776 9.47949 16.5776Z" fill="#0A84FF"/>
  </svg>