<svg xmlns="http://www.w3.org/2000/svg" width="24" height="25" viewBox="0 0 24 25" fill="none">
    <path d="M18 16.4213C17.24 16.4213 16.56 16.7213 16.04 17.1913L8.91 13.0413C8.96 12.8113 9 12.5813 9 12.3413C9 12.1013 8.96 11.8713 8.91 11.6413L15.96 7.53131C16.5 8.03131 17.21 8.34131 18 8.34131C19.66 8.34131 21 7.00131 21 5.34131C21 3.68131 19.66 2.34131 18 2.34131C16.34 2.34131 15 3.68131 15 5.34131C15 5.58131 15.04 5.81131 15.09 6.04131L8.04 10.1513C7.5 9.65131 6.79 9.34131 6 9.34131C4.34 9.34131 3 10.6813 3 12.3413C3 14.0013 4.34 15.3413 6 15.3413C6.79 15.3413 7.5 15.0313 8.04 14.5313L15.16 18.6913C15.11 18.9013 15.08 19.1213 15.08 19.3413C15.08 20.9513 16.39 22.2613 18 22.2613C19.61 22.2613 20.92 20.9513 20.92 19.3413C20.92 17.7313 19.61 16.4213 18 16.4213Z" fill="#4A4A4A"/>
  </svg>
  